{
.appVersion = "895";
copyright = "Created by Adam Bradley with FontForge 2.0 (http://fontforge.sf.net)";
customParameters = (
{
name = vendorID;
value = PfEd;
},
{
name = panose;
value = (
2,
0,
6,
3,
0,
0,
0,
0,
0,
0
);
},
{
name = unicodeRanges;
value = (
60
);
},
{
name = codePageRanges;
value = (
1252
);
},
{
name = glyphOrder;
value = (
.notdef,
uni0000,
uni000D,
uniF100,
uniF101,
uniF102,
uniF103,
uniF104,
uniF105,
uniF106,
uniF107,
uniF108,
uniF109,
uniF10A,
uniF10B,
uniF10C,
uniF10D,
uniF10E,
uniF10F,
uniF110,
uniF111,
uniF112,
uniF113,
uniF114,
uniF115,
uniF116,
uniF117,
uniF118,
uniF119,
uniF11A,
uniF11B,
uniF11C,
uniF11D,
uniF11E,
uniF11F,
uniF120,
uniF121,
uniF122,
uniF123,
uniF124,
uniF125,
uniF126,
uniF127,
uniF128,
uniF129,
uniF12A,
uniF12B,
uniF12C,
uniF12D,
uniF12E,
uniF12F,
uniF130,
uniF131,
uniF132,
uniF133,
uniF134,
uniF135,
uniF136,
uniF137,
uniF139,
uniF13A,
uniF13D,
uniF13E,
uniF13F,
uniF140,
uniF141,
uniF142,
uniF143,
uniF144,
uniF147,
uniF148,
uniF149,
uniF14A,
uniF14B,
uniF1F9,
uniF1FA,
uniF1FB,
uniF1FC,
uniF1FD,
uniF1FE,
uniF1FF,
uniF200,
uniF201,
uniF202,
uniF203,
uniF204,
uniF205,
uniF206,
uniF207,
uniF208,
uniF209,
uniF20A,
uniF20B,
uniF20C,
uniF20D,
uniF20E,
uniF20F,
uniF210,
uniF211,
uniF212,
uniF213,
uniF214,
uniF215,
uniF216,
uniF217,
uniF218,
uniF219,
uniF21A,
uniF21B,
uniF21C,
uniF21D,
uniF21E,
uniF21F,
uniF220,
uniF221,
uniF222,
uniF223,
uniF224,
uniF225,
uniF226,
uniF227,
uniF228,
uniF229,
uniF22A,
uniF22B,
uniF22C,
uniF22D,
uniF22E,
uniF22F,
uniF230,
uniF231,
uniF232,
uniF233,
uniF234,
uniF235,
uniF236,
uniF237,
uniF238,
uniF239,
uniF23A,
uniF23B,
uniF23C,
uniF23D,
uniF23E,
uniF23F,
uniF240,
uniF241,
uniF242,
uniF243,
uniF244,
uniF245,
uniF246,
uniF247,
uniF248,
uniF249,
uniF24A,
uniF24B,
uniF24C,
uniF24D,
uniF24E,
uniF24F,
uniF250,
uniF251,
uniF252,
uniF253,
uniF254,
uniF255,
uniF256,
uniF257,
uniF258,
uniF259,
uniF25A,
uniF25B,
uniF25C,
uniF25D,
uniF25E,
uniF25F,
uniF260,
uniF261,
uniF262,
uniF263,
uniF264,
uniF265,

glyphs = (
{
glyphname = .notdef;
lastChange = "2016-08-30 05:21:27 +0000";
layers = (
{
layerId = "7CC436F9-9F12-4208-AF2B-E4ABCB0FA991";
paths = (
{
closed = 1;
nodes = (
"153 341 LINE",
"17 341 LINE",
"17 0 LINE",
"153 0 LINE"
);
},
{
closed = 1;
nodes = (
"136 324 LINE",
"136 17 LINE",
"34 17 LINE",
"34 324 LINE"
);
}
);
width = 187;
}
);
note = .notdef;
},
{
export = 0;
glyphname = uniF100;
lastChange = "2016-08-30 05:18:41 +0000";
layers = (
{
layerId = "7CC436F9-9F12-4208-AF2B-E4ABCB0FA991";
paths = (
{
closed = 1;
nodes = (
"235 381 OFFCURVE",
"230 384 OFFCURVE",
"224 384 CURVE SMOOTH",
"218 384 OFFCURVE",
"213 381 OFFCURVE",
"210 375 CURVE",
"3 26 LINE SMOOTH",
"-1 19 OFFCURVE",
"-2 13 OFFCURVE",
"1 8 CURVE SMOOTH",
"4 3 OFFCURVE",
"9 0 OFFCURVE",
"15 0 CURVE SMOOTH",
"433 0 LINE SMOOTH",
"439 0 OFFCURVE",
"444 3 OFFCURVE",
"447 8 CURVE SMOOTH",
"450 13 OFFCURVE",
"449 19 OFFCURVE",
"445 26 CURVE SMOOTH",
"238 375 LINE"
);
},
{
closed = 1;
nodes = (
"192 96 LINE",
"256 96 LINE",
"256 48 LINE",
"192 48 LINE"
);
},
{
closed = 1;
nodes = (
"192 272 LINE",
"256 272 LINE",
"256 128 LINE",
"192 128 LINE"
);
}
);
width = 448;
}
);
note = uniF100;
unicode = F100;
},
{
export = 0;
glyphname = uniF101;
lastChange = "2016-08-30 05:18:41 +0000";
layers = (
{
layerId = "7CC436F9-9F12-4208-AF2B-E4ABCB0FA991";
paths = (
{
closed = 1;
nodes = (
"0 64 LINE",
"0 -32 LINE",
"128 -32 LINE",
"128 64 LINE"
);
},
{
closed = 1;
nodes = (
"0 416 LINE",
"16 128 LINE",
"112 128 LINE",
"128 416 LINE"
);
}
);
width = 128;
}
);
note = uniF101;
unicode = F101;
},
{
export = 0;
glyphname = uniF102;
lastChange = "2016-08-30 05:18:41 +0000";
layers = (
{
layerId = "7CC436F9-9F12-4208-AF2B-E4ABCB0FA991";
paths = (
{
closed = 1;
nodes = (
"272 256 LINE",
"272 352 LINE",
"176 352 LINE",
"176 256 LINE",
"96 256 LINE",
"224 140 LINE",
"352 256 LINE"
);
},
{
closed = 1;
nodes = (
"320 206 LINE",
"382 144 LINE",
"331 144 LINE SMOOTH",
"329 144 OFFCURVE",
"327 143 OFFCURVE",
"326 141 CURVE",
"308 96 LINE",
"140 96 LINE",
"122 141 LINE",
"121 143 OFFCURVE",
"119 144 OFFCURVE",
"116 144 CURVE SMOOTH",
"66 144 LINE",
"128 206 LINE",
"86 206 LINE",
"14 151 LINE",
"3 144 OFFCURVE",
"-2 134 OFFCURVE",
"0 119 CURVE SMOOTH",
"9 52 LINE SMOOTH",
"11 39 OFFCURVE",
"20 32 OFFCURVE",
"37 32 CURVE SMOOTH",
"411 32 LINE SMOOTH",
"428 32 OFFCURVE",
"437 39 OFFCURVE",
"439 52 CURVE SMOOTH",
"448 119 LINE SMOOTH",
"450 134 OFFCURVE",
"445 144 OFFCURVE",
"433 151 CURVE",
"362 206 LINE"
);
}
);
width = 448;
}
);
note = uniF102;
unicode = F102;
},
{
export = 0;
glyphname = uniF103;
lastChange = "2016-08-30 05:18:41 +0000";
layers = (
{
layerId = "7CC436F9-9F12-4208-AF2B-E4ABCB0FA991";
paths = (
{
closed = 1;
nodes = (
"272 192 LINE",
"272 384 LINE",
"112 384 LINE",
"112 192 LINE",
"0 192 LINE",
"192 0 LINE",
"384 192 LINE"
);
}
);
width = 384;
}
);
note = uniF103;
unicode = F103;
},
{
glyphname = uniF104;
lastChange = "2016-08-30 05:23:34 +0000";
layers = (
{
layerId = "7CC436F9-9F12-4208-AF2B-E4ABCB0FA991";
paths = (
{
closed = 1;
nodes = (
"141 105 LINE",
"147 99 OFFCURVE",
"153 96 OFFCURVE",
"160 96 CURVE SMOOTH",
"167 96 OFFCURVE",
"173 99 OFFCURVE",
"179 105 CURVE",
"315 261 LINE",
"317 264 LINE",
"319 266 OFFCURVE",
"320 269 OFFCURVE",
"320 272 CURVE SMOOTH",
"320 277 OFFCURVE",
"318 281 OFFCURVE",
"315 284 CURVE SMOOTH",
"312 287 OFFCURVE",
"308 288 OFFCURVE",
"303 288 CURVE SMOOTH",
"17 288 LINE SMOOTH",
"12 288 OFFCURVE",
"8 287 OFFCURVE",
"5 284 CURVE SMOOTH",
"2 281 OFFCURVE",
"0 277 OFFCURVE",
"0 272 CURVE SMOOTH",
"0 268 OFFCURVE",
"1 265 OFFCURVE",
"3 263 CURVE SMOOTH",
"5 261 LINE"
);
}
);
width = 320;
}
);
note = uniF104;
unicode = F104;
},
{
export = 0;
glyphname = uniF105;
lastChange = "2016-08-30 05:18:41 +0000";
layers = (
{
layerId = "7CC436F9-9F12-4208-AF2B-E4ABCB0FA991";
paths = (
{
closed = 1;
nodes = (
"271 131 OFFCURVE",
"274 138 OFFCURVE",
"274 147 CURVE SMOOTH",
"274 155 OFFCURVE",
"271 162 OFFCURVE",
"265 168 CURVE SMOOTH",
"259 174 OFFCURVE",
"251 177 OFFCURVE",
"242 177 CURVE SMOOTH",
"233 177 OFFCURVE",
"225 174 OFFCURVE",
"219 168 CURVE SMOOTH",
"169 120 LINE",
"169 337 LINE SMOOTH",
"169 346 OFFCURVE",
"166 353 OFFCURVE",
"160 359 CURVE",
"153 365 OFFCURVE",
"146 368 OFFCURVE",
"137 368 CURVE SMOOTH",
"128 368 OFFCURVE",
"121 365 OFFCURVE",
"115 359 CURVE",
"108 353 OFFCURVE",
"105 346 OFFCURVE",
"105 337 CURVE SMOOTH",
"105 120 LINE",
"55 168 LINE SMOOTH",
"49 174 OFFCURVE",
"41 177 OFFCURVE",
"32 177 CURVE SMOOTH",
"23 177 OFFCURVE",
"15 174 OFFCURVE",
"9 168 CURVE SMOOTH",
"3 162 OFFCURVE",
"0 155 OFFCURVE",
"0 147 CURVE SMOOTH",
"0 138 OFFCURVE",
"3 131 OFFCURVE",
"9 125 CURVE SMOOTH",
"115 25 LINE SMOOTH",
"121 19 OFFCURVE",
"128 16 OFFCURVE",
"137 16 CURVE SMOOTH",
"146 16 OFFCURVE",
"154 19 OFFCURVE",
"160 25 CURVE SMOOTH",
"265 125 LINE SMOOTH"
);
}
);
width = 274;
}
);
note = uniF105;
unicode = F105;
},
{
export = 0;
glyphname = uniF106;
lastChange = "2016-08-30 05:18:41 +0000";
layers = (
{
layerId = "7CC436F9-9F12-4208-AF2B-E4ABCB0FA991";
paths = (
{
closed = 1;
nodes = (
"192 112 LINE",
"384 112 LINE",
"384 272 LINE",
"192 272 LINE",
"192 384 LINE",
"0 192 LINE",
"192 0 LINE"
);
}
);
width = 384;
}
);
note = uniF106;
unicode = F106;
},
{
export = 0;
glyphname = uniF107;
lastChange = "2016-08-30 05:18:41 +0000";
layers = (
{
layerId = "7CC436F9-9F12-4208-AF2B-E4ABCB0FA991";
paths = (
{
closed = 1;
nodes = (
"9 211 LINE",
"3 205 OFFCURVE",
"0 199 OFFCURVE",
"0 192 CURVE SMOOTH",
"0 185 OFFCURVE",
"3 179 OFFCURVE",
"9 173 CURVE",
"165 37 LINE",
"167 35 LINE SMOOTH",
"169 33 OFFCURVE",
"172 32 OFFCURVE",
"176 32 CURVE SMOOTH",
"181 32 OFFCURVE",
"185 34 OFFCURVE",
"188 37 CURVE SMOOTH",
"191 40 OFFCURVE",
"192 44 OFFCURVE",
"192 49 CURVE SMOOTH",
"192 335 LINE SMOOTH",
"192 340 OFFCURVE",
"191 344 OFFCURVE",
"188 347 CURVE SMOOTH",
"185 350 OFFCURVE",
"181 352 OFFCURVE",
"176 352 CURVE SMOOTH",
"172 352 OFFCURVE",
"169 351 OFFCURVE",
"167 349 CURVE SMOOTH",
"165 347 LINE"
);
}
);
width = 192;
}
);
note = uniF107;
unicode = F107;
},
{
export = 0;
glyphname = uniF108;
lastChange = "2016-08-30 05:18:41 +0000";
layers = (
{
layerId = "7CC436F9-9F12-4208-AF2B-E4ABCB0FA991";
paths = (
{
closed = 1;
nodes = (
"3 209 OFFCURVE",
"0 201 OFFCURVE",
"0 192 CURVE SMOOTH",
"0 183 OFFCURVE",
"3 176 OFFCURVE",
"9 170 CURVE SMOOTH",
"109 64 LINE SMOOTH",
"115 58 OFFCURVE",
"122 55 OFFCURVE",
"131 55 CURVE SMOOTH",
"139 55 OFFCURVE",
"146 58 OFFCURVE",
"152 64 CURVE SMOOTH",
"158 70 OFFCURVE",
"161 78 OFFCURVE",
"161 87 CURVE SMOOTH",
"161 96 OFFCURVE",
"158 104 OFFCURVE",
"152 110 CURVE SMOOTH",
"104 160 LINE",
"321 160 LINE SMOOTH",
"330 160 OFFCURVE",
"337 163 OFFCURVE",
"343 170 CURVE",
"349 176 OFFCURVE",
"352 183 OFFCURVE",
"352 192 CURVE SMOOTH",
"352 201 OFFCURVE",
"349 208 OFFCURVE",
"343 215 CURVE",
"337 221 OFFCURVE",
"330 224 OFFCURVE",
"321 224 CURVE SMOOTH",
"104 224 LINE",
"153 274 LINE SMOOTH",
"159 280 OFFCURVE",
"162 288 OFFCURVE",
"162 297 CURVE SMOOTH",
"162 306 OFFCURVE",
"159 314 OFFCURVE",
"153 320 CURVE SMOOTH",
"147 326 OFFCURVE",
"140 329 OFFCURVE",
"131 329 CURVE SMOOTH",
"122 329 OFFCURVE",
"115 326 OFFCURVE",
"109 320 CURVE SMOOTH",
"9 215 LINE SMOOTH"
);
}
);
width = 352;
}
);
note = uniF108;
unicode = F108;
},
{
export = 0;
glyphname = uniF109;
lastChange = "2016-08-30 05:18:41 +0000";
layers = (
{
layerId = "7CC436F9-9F12-4208-AF2B-E4ABCB0FA991";
paths = (
{
closed = 1;
nodes = (
"192 272 LINE",
"0 272 LINE",
"0 112 LINE",
"192 112 LINE",
"192 0 LINE",
"384 192 LINE",
"192 384 LINE"
);
}
);
width = 384;
}
);
note = uniF109;
unicode = F109;
},
{
export = 0;
glyphname = uniF10A;
lastChange = "2016-08-30 05:18:41 +0000";
layers = (
{
layerId = "7CC436F9-9F12-4208-AF2B-E4ABCB0FA991";
paths = (
{
closed = 1;
nodes = (
"183 173 LINE",
"189 179 OFFCURVE",
"192 185 OFFCURVE",
"192 192 CURVE SMOOTH",
"192 199 OFFCURVE",
"189 205 OFFCURVE",
"183 211 CURVE",
"27 347 LINE",
"24 349 LINE",
"22 351 OFFCURVE",
"19 352 OFFCURVE",
"16 352 CURVE SMOOTH",
"11 352 OFFCURVE",
"8 350 OFFCURVE",
"5 347 CURVE SMOOTH",
"2 344 OFFCURVE",
"0 340 OFFCURVE",
"0 335 CURVE SMOOTH",
"0 49 LINE SMOOTH",
"0 44 OFFCURVE",
"2 40 OFFCURVE",
"5 37 CURVE SMOOTH",
"8 34 OFFCURVE",
"11 32 OFFCURVE",
"16 32 CURVE SMOOTH",
"20 32 OFFCURVE",
"23 33 OFFCURVE",
"25 35 CURVE SMOOTH",
"27 37 LINE"
);
}
);
width = 192;
}
);
note = uniF10A;
unicode = F10A;
},
{
export = 0;
glyphname = uniF10B;
lastChange = "2016-08-30 05:18:41 +0000";
layers = (
{
layerId = "7CC436F9-9F12-4208-AF2B-E4ABCB0FA991";
paths = (
{
closed = 1;
nodes = (
"237 326 OFFCURVE",
"230 329 OFFCURVE",
"221 329 CURVE SMOOTH",
"212 329 OFFCURVE",
"205 326 OFFCURVE",
"199 320 CURVE SMOOTH",
"193 314 OFFCURVE",
"190 306 OFFCURVE",
"190 297 CURVE SMOOTH",
"190 288 OFFCURVE",
"193 280 OFFCURVE",
"199 274 CURVE SMOOTH",
"248 224 LINE",
"31 224 LINE SMOOTH",
"22 224 OFFCURVE",
"15 221 OFFCURVE",
"9 215 CURVE",
"3 208 OFFCURVE",
"0 201 OFFCURVE",
"0 192 CURVE SMOOTH",
"0 183 OFFCURVE",
"3 176 OFFCURVE",
"9 170 CURVE",
"15 163 OFFCURVE",
"22 160 OFFCURVE",
"31 160 CURVE SMOOTH",
"248 160 LINE",
"200 110 LINE SMOOTH",
"194 104 OFFCURVE",
"191 96 OFFCURVE",
"191 87 CURVE SMOOTH",
"191 78 OFFCURVE",
"194 70 OFFCURVE",
"200 64 CURVE SMOOTH",
"206 58 OFFCURVE",
"213 55 OFFCURVE",
"222 55 CURVE SMOOTH",
"230 55 OFFCURVE",
"237 58 OFFCURVE",
"243 64 CURVE SMOOTH",
"343 170 LINE SMOOTH",
"349 176 OFFCURVE",
"352 183 OFFCURVE",
"352 192 CURVE SMOOTH",
"352 201 OFFCURVE",
"349 209 OFFCURVE",
"343 215 CURVE SMOOTH",
"243 320 LINE SMOOTH"
);
}
);
width = 352;
}
);
note = uniF10B;
unicode = F10B;
},
{
export = 0;
glyphname = uniF10C;
lastChange = "2016-08-30 05:18:41 +0000";
layers = (
{
layerId = "7CC436F9-9F12-4208-AF2B-E4ABCB0FA991";
paths = (
{
closed = 1;
nodes = (
"112 192 LINE",
"112 0 LINE",
"272 0 LINE",
"272 192 LINE",
"384 192 LINE",
"192 384 LINE",
"0 192 LINE"
);
}
);
width = 384;
}
);
note = uniF10C;
unicode = F10C;
},
{
glyphname = uniF10D;
lastChange = "2016-08-30 05:23:55 +0000";
layers = (
{
layerId = "7CC436F9-9F12-4208-AF2B-E4ABCB0FA991";
paths = (
{
closed = 1;
nodes = (
"179 279 LINE",
"173 285 OFFCURVE",
"167 288 OFFCURVE",
"160 288 CURVE SMOOTH",
"153 288 OFFCURVE",
"147 285 OFFCURVE",
"141 279 CURVE",
"5 123 LINE",
"3 120 LINE",
"1 118 OFFCURVE",
"0 115 OFFCURVE",
"0 112 CURVE SMOOTH",
"0 107 OFFCURVE",
"2 104 OFFCURVE",
"5 101 CURVE SMOOTH",
"8 98 OFFCURVE",
"12 96 OFFCURVE",
"17 96 CURVE SMOOTH",
"303 96 LINE SMOOTH",
"308 96 OFFCURVE",
"312 98 OFFCURVE",
"315 101 CURVE SMOOTH",
"318 104 OFFCURVE",
"320 107 OFFCURVE",
"320 112 CURVE SMOOTH",
"320 116 OFFCURVE",
"319 119 OFFCURVE",
"317 121 CURVE SMOOTH",
"315 123 LINE"
);
}
);
width = 320;
}
);
note = uniF10D;
unicode = F10D;
},
{
export = 0;
glyphname = uniF10E;
lastChange = "2016-08-30 05:18:41 +0000";
layers = (
{
layerId = "7CC436F9-9F12-4208-AF2B-E4ABCB0FA991";
paths = (
{
closed = 1;
nodes = (
"3 253 OFFCURVE",
"0 246 OFFCURVE",
"0 237 CURVE SMOOTH",
"0 228 OFFCURVE",
"3 221 OFFCURVE",
"9 215 CURVE SMOOTH",
"15 209 OFFCURVE",
"23 206 OFFCURVE",
"32 206 CURVE SMOOTH",
"41 206 OFFCURVE",
"49 209 OFFCURVE",
"55 215 CURVE SMOOTH",
"105 264 LINE",
"105 47 LINE SMOOTH",
"105 38 OFFCURVE",
"108 31 OFFCURVE",
"115 25 CURVE",
"121 19 OFFCURVE",
"128 16 OFFCURVE",
"137 16 CURVE SMOOTH",
"146 16 OFFCURVE",
"153 19 OFFCURVE",
"160 25 CURVE",
"166 31 OFFCURVE",
"169 38 OFFCURVE",
"169 47 CURVE SMOOTH",
"169 264 LINE",
"219 216 LINE SMOOTH",
"225 210 OFFCURVE",
"233 207 OFFCURVE",
"242 207 CURVE SMOOTH",
"251 207 OFFCURVE",
"259 210 OFFCURVE",
"265 216 CURVE SMOOTH",
"271 222 OFFCURVE",
"274 229 OFFCURVE",
"274 238 CURVE SMOOTH",
"274 246 OFFCURVE",
"271 253 OFFCURVE",
"265 259 CURVE SMOOTH",
"159 359 LINE SMOOTH",
"153 365 OFFCURVE",
"146 368 OFFCURVE",
"137 368 CURVE SMOOTH",
"128 368 OFFCURVE",
"120 365 OFFCURVE",
"114 359 CURVE SMOOTH",
"9 259 LINE SMOOTH"
);
}
);
width = 274;
}
);
note = uniF10E;
unicode = F10E;
},
{
export = 0;
glyphname = uniF10F;
lastChange = "2016-08-30 05:18:41 +0000";
layers = (
{
layerId = "7CC436F9-9F12-4208-AF2B-E4ABCB0FA991";
paths = (
{
closed = 1;
nodes = (
"366 57 OFFCURVE",
"344 43 OFFCURVE",
"323 34 CURVE SMOOTH",
"298 23 OFFCURVE",
"269 18 OFFCURVE",
"238 18 CURVE SMOOTH",
"212 18 OFFCURVE",
"188 22 OFFCURVE",
"166 30 CURVE SMOOTH",
"145 38 OFFCURVE",
"126 50 OFFCURVE",
"109 65 CURVE",
"94 80 OFFCURVE",
"81 98 OFFCURVE",
"72 119 CURVE SMOOTH",
"63 139 OFFCURVE",
"59 163 OFFCURVE",
"59 191 CURVE SMOOTH",
"59 214 OFFCURVE",
"63 237 OFFCURVE",
"72 260 CURVE",
"79 280 OFFCURVE",
"91 299 OFFCURVE",
"107 316 CURVE SMOOTH",
"122 333 OFFCURVE",
"140 345 OFFCURVE",
"161 354 CURVE SMOOTH",
"181 363 OFFCURVE",
"204 367 OFFCURVE",
"231 367 CURVE SMOOTH",
"254 367 OFFCURVE",
"276 364 OFFCURVE",
"296 358 CURVE SMOOTH",
"317 352 OFFCURVE",
"334 342 OFFCURVE",
"348 329 CURVE",
"363 314 OFFCURVE",
"375 299 OFFCURVE",
"382 282 CURVE SMOOTH",
"390 263 OFFCURVE",
"394 242 OFFCURVE",
"394 218 CURVE SMOOTH",
"394 191 OFFCURVE",
"389 168 OFFCURVE",
"378 150 CURVE SMOOTH",
"368 133 OFFCURVE",
"355 124 OFFCURVE",
"339 124 CURVE SMOOTH",
"332 124 OFFCURVE",
"327 126 OFFCURVE",
"324 131 CURVE SMOOTH",
"321 136 OFFCURVE",
"320 142 OFFCURVE",
"320 149 CURVE SMOOTH",
"320 152 OFFCURVE",
"321 159 OFFCURVE",
"322 168 CURVE",
"323 173 OFFCURVE",
"324 179 OFFCURVE",
"325 187 CURVE",
"349 300 LINE",
"295 300 LINE",
"290 276 LINE",
"289 276 LINE",
"286 285 OFFCURVE",
"279 293 OFFCURVE",
"268 300 CURVE",
"256 307 OFFCURVE",
"243 310 OFFCURVE",
"230 310 CURVE SMOOTH",
"213 310 OFFCURVE",
"196 306 OFFCURVE",
"181 298 CURVE SMOOTH",
"165 289 OFFCURVE",
"152 279 OFFCURVE",
"143 267 CURVE SMOOTH",
"133 254 OFFCURVE",
"125 240 OFFCURVE",
"119 223 CURVE SMOOTH",
"113 207 OFFCURVE",
"110 190 OFFCURVE",
"110 173 CURVE SMOOTH",
"110 144 OFFCURVE",
"118 121 OFFCURVE",
"133 102 CURVE SMOOTH",
"148 84 OFFCURVE",
"170 75 OFFCURVE",
"197 75 CURVE SMOOTH",
"215 75 OFFCURVE",
"230 79 OFFCURVE",
"243 88 CURVE SMOOTH",
"256 97 OFFCURVE",
"265 106 OFFCURVE",
"271 116 CURVE",
"274 116 LINE",
"274 105 OFFCURVE",
"279 95 OFFCURVE",
"289 87 CURVE SMOOTH",
"299 79 OFFCURVE",
"312 75 OFFCURVE",
"328 75 CURVE SMOOTH",
"343 75 OFFCURVE",
"358 78 OFFCURVE",
"373 85 CURVE SMOOTH",
"386 91 OFFCURVE",
"399 100 OFFCURVE",
"411 113 CURVE",
"422 124 OFFCURVE",
"431 140 OFFCURVE",
"438 159 CURVE",
"445 176 OFFCURVE",
"448 198 OFFCURVE",
"448 223 CURVE SMOOTH",
"448 256 OFFCURVE",
"442 284 OFFCURVE",
"430 308 CURVE SMOOTH",
"418 332 OFFCURVE",
"402 352 OFFCURVE",
"382 368 CURVE SMOOTH",
"362 384 OFFCURVE",
"339 396 OFFCURVE",
"313 404 CURVE SMOOTH",
"287 412 OFFCURVE",
"260 416 OFFCURVE",
"232 416 CURVE SMOOTH",
"201 416 OFFCURVE",
"171 410 OFFCURVE",
"142 399 CURVE",
"112 386 OFFCURVE",
"87 371 OFFCURVE",
"68 352 CURVE SMOOTH",
"47 332 OFFCURVE",
"30 308 OFFCURVE",
"18 281 CURVE SMOOTH",
"6 254 OFFCURVE",
"0 224 OFFCURVE",
"0 192 CURVE SMOOTH",
"0 161 OFFCURVE",
"6 131 OFFCURVE",
"17 102 CURVE SMOOTH",
"28 75 OFFCURVE",
"43 52 OFFCURVE",
"64 31 CURVE SMOOTH",
"84 11 OFFCURVE",
"108 -4 OFFCURVE",
"137 -15 CURVE SMOOTH",
"167 -26 OFFCURVE",
"199 -32 OFFCURVE",
"232 -32 CURVE SMOOTH",
"269 -32 OFFCURVE",
"304 -26 OFFCURVE",
"337 -14 CURVE SMOOTH",
"370 -2 OFFCURVE",
"398 16 OFFCURVE",
"422 41 CURVE",
"388 77 LINE"
);
},
{
closed = 1;
nodes = (
"239 260 OFFCURVE",
"246 258 OFFCURVE",
"251 255 CURVE SMOOTH",
"256 252 OFFCURVE",
"260 248 OFFCURVE",
"263 243 CURVE SMOOTH",
"267 236 OFFCURVE",
"269 231 OFFCURVE",
"270 226 CURVE",
"271 222 OFFCURVE",
"271 216 OFFCURVE",
"271 207 CURVE SMOOTH",
"271 199 OFFCURVE",
"270 190 OFFCURVE",
"268 180 CURVE",
"267 172 OFFCURVE",
"263 163 OFFCURVE",
"257 154 CURVE",
"251 144 OFFCURVE",
"245 137 OFFCURVE",
"238 133 CURVE SMOOTH",
"229 128 OFFCURVE",
"220 125 OFFCURVE",
"210 125 CURVE SMOOTH",
"203 125 OFFCURVE",
"196 127 OFFCURVE",
"191 130 CURVE SMOOTH",
"186 133 OFFCURVE",
"182 137 OFFCURVE",
"179 141 CURVE",
"176 146 OFFCURVE",
"174 151 OFFCURVE",
"173 156 CURVE",
"172 160 OFFCURVE",
"172 165 OFFCURVE",
"172 172 CURVE SMOOTH",
"172 183 OFFCURVE",
"173 193 OFFCURVE",
"176 202 CURVE",
"179 214 OFFCURVE",
"183 223 OFFCURVE",
"187 230 CURVE SMOOTH",
"191 237 OFFCURVE",
"197 245 OFFCURVE",
"206 252 CURVE SMOOTH",
"212 257 OFFCURVE",
"220 260 OFFCURVE",
"231 260 CURVE SMOOTH"
);
}
);
width = 448;
}
);
note = uniF10F;
unicode = F10F;
},
{
export = 0;
glyphname = uniF110;
lastChange = "2016-08-30 05:18:41 +0000";
layers = (
{
layerId = "7CC436F9-9F12-4208-AF2B-E4ABCB0FA991";
paths = (
{
closed = 1;
nodes = (
"352 292 LINE SMOOTH",
"352 326 OFFCURVE",
"340 355 OFFCURVE",
"316 380 CURVE",
"291 404 OFFCURVE",
"262 416 OFFCURVE",
"228 416 CURVE SMOOTH",
"220 416 LINE SMOOTH",
"186 416 OFFCURVE",
"157 404 OFFCURVE",
"133 380 CURVE SMOOTH",
"108 355 OFFCURVE",
"96 326 OFFCURVE",
"96 292 CURVE SMOOTH",
"96 288 LINE",
"32 288 LINE",
"0 -32 LINE",
"448 -32 LINE",
"416 288 LINE",
"352 288 LINE"
);
},
{
closed = 1;
nodes = (
"128 317 OFFCURVE",
"137 339 OFFCURVE",
"155 357 CURVE SMOOTH",
"173 375 OFFCURVE",
"195 384 OFFCURVE",
"220 384 CURVE SMOOTH",
"228 384 LINE SMOOTH",
"253 384 OFFCURVE",
"275 375 OFFCURVE",
"293 357 CURVE SMOOTH",
"311 339 OFFCURVE",
"320 317 OFFCURVE",
"320 292 CURVE SMOOTH",
"320 288 LINE",
"128 288 LINE",
"128 292 LINE SMOOTH"
);
},
{
closed = 1;
nodes = (
"96 256 LINE",
"96 220 LINE",
"85 213 OFFCURVE",
"80 204 OFFCURVE",
"80 192 CURVE SMOOTH",
"80 183 OFFCURVE",
"83 175 OFFCURVE",
"89 169 CURVE SMOOTH",
"95 163 OFFCURVE",
"103 160 OFFCURVE",
"112 160 CURVE SMOOTH",
"121 160 OFFCURVE",
"129 163 OFFCURVE",
"135 169 CURVE SMOOTH",
"141 175 OFFCURVE",
"144 183 OFFCURVE",
"144 192 CURVE SMOOTH",
"144 204 OFFCURVE",
"139 213 OFFCURVE",
"128 220 CURVE",
"128 256 LINE",
"320 256 LINE",
"320 220 LINE",
"309 213 OFFCURVE",
"304 204 OFFCURVE",
"304 192 CURVE SMOOTH",
"304 183 OFFCURVE",
"307 175 OFFCURVE",
"313 169 CURVE SMOOTH",
"319 163 OFFCURVE",
"327 160 OFFCURVE",
"336 160 CURVE SMOOTH",
"345 160 OFFCURVE",
"353 163 OFFCURVE",
"359 169 CURVE SMOOTH",
"365 175 OFFCURVE",
"368 183 OFFCURVE",
"368 192 CURVE SMOOTH",
"368 204 OFFCURVE",
"363 213 OFFCURVE",
"352 220 CURVE",
"352 256 LINE",
"387 256 LINE",
"412 0 LINE",
"36 0 LINE",
"61 256 LINE"
);
}
);
width = 448;
}
);
note = uniF110;
unicode = F110;
},
{
export = 0;
glyphname = uniF111;
lastChange = "2016-08-30 05:18:41 +0000";
layers = (
{
layerId = "7CC436F9-9F12-4208-AF2B-E4ABCB0FA991";
paths = (
{
closed = 1;
nodes = (
"398 64 OFFCURVE",
"401 67 OFFCURVE",
"401 74 CURVE SMOOTH",
"401 128 LINE",
"438 128 LINE SMOOTH",
"445 128 OFFCURVE",
"448 131 OFFCURVE",
"448 138 CURVE SMOOTH",
"448 246 LINE SMOOTH",
"448 253 OFFCURVE",
"445 256 OFFCURVE",
"438 256 CURVE SMOOTH",
"401 256 LINE",
"401 310 LINE SMOOTH",
"401 317 OFFCURVE",
"398 320 OFFCURVE",
"391 320 CURVE SMOOTH",
"10 320 LINE SMOOTH",
"3 320 OFFCURVE",
"0 317 OFFCURVE",
"0 310 CURVE SMOOTH",
"0 74 LINE SMOOTH",
"0 67 OFFCURVE",
"3 64 OFFCURVE",
"10 64 CURVE SMOOTH",
"391 64 LINE SMOOTH"
);
},
{
closed = 1;
nodes = (
"259 207 LINE",
"159 96 LINE",
"186 177 LINE",
"125 177 LINE",
"225 288 LINE",
"198 207 LINE"
);
}
);
width = 448;
}
);
note = uniF111;
unicode = F111;
},
{
export = 0;
glyphname = uniF112;
lastChange = "2016-08-30 05:18:41 +0000";
layers = (
{
layerId = "7CC436F9-9F12-4208-AF2B-E4ABCB0FA991";
paths = (
{
closed = 1;
nodes = (
"401 310 LINE SMOOTH",
"401 317 OFFCURVE",
"398 320 OFFCURVE",
"391 320 CURVE SMOOTH",
"10 320 LINE SMOOTH",
"3 320 OFFCURVE",
"0 317 OFFCURVE",
"0 310 CURVE SMOOTH",
"0 74 LINE SMOOTH",
"0 67 OFFCURVE",
"3 64 OFFCURVE",
"10 64 CURVE SMOOTH",
"391 64 LINE SMOOTH",
"398 64 OFFCURVE",
"401 67 OFFCURVE",
"401 74 CURVE SMOOTH",
"401 128 LINE",
"438 128 LINE SMOOTH",
"445 128 OFFCURVE",
"448 131 OFFCURVE",
"448 138 CURVE SMOOTH",
"448 246 LINE SMOOTH",
"448 253 OFFCURVE",
"445 256 OFFCURVE",
"438 256 CURVE SMOOTH",
"401 256 LINE"
);
},
{
closed = 1;
nodes = (
"369 160 LINE",
"369 128 LINE",
"369 96 LINE",
"32 96 LINE",
"32 288 LINE",
"369 288 LINE",
"369 256 LINE",
"369 224 LINE",
"401 224 LINE",
"416 224 LINE",
"416 160 LINE",
"401 160 LINE"
);
}
);
width = 448;
}
);
note = uniF112;
unicode = F112;
},
{
export = 0;
glyphname = uniF113;
lastChange = "2016-08-30 05:18:41 +0000";
layers = (
{
layerId = "7CC436F9-9F12-4208-AF2B-E4ABCB0FA991";
paths = (
{
closed = 1;
nodes = (
"401 310 LINE SMOOTH",
"401 317 OFFCURVE",
"398 320 OFFCURVE",
"391 320 CURVE SMOOTH",
"10 320 LINE SMOOTH",
"3 320 OFFCURVE",
"0 317 OFFCURVE",
"0 310 CURVE SMOOTH",
"0 74 LINE SMOOTH",
"0 67 OFFCURVE",
"3 64 OFFCURVE",
"10 64 CURVE SMOOTH",
"391 64 LINE SMOOTH",
"398 64 OFFCURVE",
"401 67 OFFCURVE",
"401 74 CURVE SMOOTH",
"401 128 LINE",
"438 128 LINE SMOOTH",
"445 128 OFFCURVE",
"448 131 OFFCURVE",
"448 138 CURVE SMOOTH",
"448 246 LINE SMOOTH",
"448 253 OFFCURVE",
"445 256 OFFCURVE",
"438 256 CURVE SMOOTH",
"401 256 LINE"
);
}
);
width = 448;
}
);
note = uniF113;
unicode = F113;
},
{
export = 0;
glyphname = uniF114;
lastChange = "2016-08-30 05:18:41 +0000";
layers = (
{
layerId = "7CC436F9-9F12-4208-AF2B-E4ABCB0FA991";
paths = (
{
closed = 1;
nodes = (
"401 310 LINE SMOOTH",
"401 317 OFFCURVE",
"398 320 OFFCURVE",
"391 320 CURVE SMOOTH",
"10 320 LINE SMOOTH",
"3 320 OFFCURVE",
"0 317 OFFCURVE",
"0 310 CURVE SMOOTH",
"0 74 LINE SMOOTH",
"0 67 OFFCURVE",
"3 64 OFFCURVE",
"10 64 CURVE SMOOTH",
"391 64 LINE SMOOTH",
"398 64 OFFCURVE",
"401 67 OFFCURVE",
"401 74 CURVE SMOOTH",
"401 128 LINE",
"438 128 LINE SMOOTH",
"445 128 OFFCURVE",
"448 131 OFFCURVE",
"448 138 CURVE SMOOTH",
"448 246 LINE SMOOTH",
"448 253 OFFCURVE",
"445 256 OFFCURVE",
"438 256 CURVE SMOOTH",
"401 256 LINE"
);
},
{
closed = 1;
nodes = (
"369 160 LINE",
"369 128 LINE",
"369 96 LINE",
"320 96 LINE",
"288 288 LINE",
"369 288 LINE",
"369 256 LINE",
"369 224 LINE",
"401 224 LINE",
"416 224 LINE",
"416 160 LINE",
"401 160 LINE"
);
}
);
width = 448;
}
);
note = uniF114;
unicode = F114;
},
{
export = 0;
glyphname = uniF115;
lastChange = "2016-08-30 05:18:41 +0000";
layers = (
{
layerId = "7CC436F9-9F12-4208-AF2B-E4ABCB0FA991";
paths = (
{
closed = 1;
nodes = (
"398 64 OFFCURVE",
"401 67 OFFCURVE",
"401 74 CURVE SMOOTH",
"401 128 LINE",
"438 128 LINE SMOOTH",
"445 128 OFFCURVE",
"448 131 OFFCURVE",
"448 138 CURVE SMOOTH",
"448 246 LINE SMOOTH",
"448 253 OFFCURVE",
"445 256 OFFCURVE",
"438 256 CURVE SMOOTH",
"401 256 LINE",
"401 310 LINE SMOOTH",
"401 317 OFFCURVE",
"398 320 OFFCURVE",
"391 320 CURVE SMOOTH",
"10 320 LINE SMOOTH",
"3 320 OFFCURVE",
"0 317 OFFCURVE",
"0 310 CURVE SMOOTH",
"0 74 LINE SMOOTH",
"0 67 OFFCURVE",
"3 64 OFFCURVE",
"10 64 CURVE SMOOTH",
"391 64 LINE SMOOTH"
);
},
{
closed = 1;
nodes = (
"369 224 LINE",
"401 224 LINE",
"416 224 LINE",
"416 160 LINE",
"401 160 LINE",
"369 160 LINE",
"369 128 LINE",
"369 96 LINE",
"192 96 LINE",
"160 288 LINE",
"369 288 LINE",
"369 256 LINE"
);
}
);
width = 448;
}
);
note = uniF115;
unicode = F115;
},
{
export = 0;
glyphname = uniF116;
lastChange = "2016-08-30 05:18:41 +0000";
layers = (
{
layerId = "7CC436F9-9F12-4208-AF2B-E4ABCB0FA991";
paths = (
{
closed = 1;
nodes = (
"3 295 OFFCURVE",
"-1 289 OFFCURVE",
"1 286 CURVE",
"2 285 OFFCURVE",
"32 257 OFFCURVE",
"91 200 CURVE",
"95 192 LINE",
"95 189 OFFCURVE",
"94 186 OFFCURVE",
"91 184 CURVE",
"1 98 LINE",
"-1 95 OFFCURVE",
"3 89 OFFCURVE",
"12 80 CURVE SMOOTH",
"23 69 OFFCURVE",
"29 65 OFFCURVE",
"31 68 CURVE",
"99 132 LINE",
"99 133 LINE",
"101 135 OFFCURVE",
"103 137 OFFCURVE",
"105 138 CURVE",
"106 139 OFFCURVE",
"108 138 OFFCURVE",
"109 136 CURVE",
"109 -20 LINE",
"109 -22 LINE SMOOTH",
"109 -29 OFFCURVE",
"113 -32 OFFCURVE",
"121 -32 CURVE SMOOTH",
"124 -32 OFFCURVE",
"127 -31 OFFCURVE",
"130 -28 CURVE SMOOTH",
"252 89 LINE SMOOTH",
"257 94 OFFCURVE",
"258 98 OFFCURVE",
"253 103 CURVE SMOOTH",
"169 184 LINE",
"165 192 LINE",
"165 195 OFFCURVE",
"166 197 OFFCURVE",
"169 200 CURVE SMOOTH",
"253 281 LINE SMOOTH",
"258 286 OFFCURVE",
"257 290 OFFCURVE",
"252 295 CURVE SMOOTH",
"249 298 OFFCURVE",
"208 337 OFFCURVE",
"130 412 CURVE SMOOTH",
"127 415 OFFCURVE",
"124 416 OFFCURVE",
"121 416 CURVE SMOOTH",
"113 416 OFFCURVE",
"109 413 OFFCURVE",
"109 406 CURVE SMOOTH",
"109 404 LINE",
"109 248 LINE",
"108 246 OFFCURVE",
"106 245 OFFCURVE",
"105 246 CURVE",
"103 247 OFFCURVE",
"101 248 OFFCURVE",
"99 251 CURVE",
"99 251 LINE",
"31 316 LINE",
"29 319 OFFCURVE",
"23 315 OFFCURVE",
"12 304 CURVE SMOOTH"
);
},
{
closed = 1;
nodes = (
"152 332 OFFCURVE",
"155 331 OFFCURVE",
"162 324 CURVE SMOOTH",
"192 294 LINE SMOOTH",
"194 292 OFFCURVE",
"195 290 OFFCURVE",
"195 287 CURVE SMOOTH",
"195 284 OFFCURVE",
"194 282 OFFCURVE",
"192 280 CURVE SMOOTH",
"162 250 LINE SMOOTH",
"160 248 OFFCURVE",
"158 247 OFFCURVE",
"157 246 CURVE",
"155 245 OFFCURVE",
"153 246 OFFCURVE",
"152 249 CURVE",
"152 328 LINE SMOOTH"
);
},
{
closed = 1;
nodes = (
"153 138 OFFCURVE",
"155 139 OFFCURVE",
"157 138 CURVE",
"158 137 OFFCURVE",
"160 136 OFFCURVE",
"162 134 CURVE SMOOTH",
"192 104 LINE SMOOTH",
"194 102 OFFCURVE",
"195 100 OFFCURVE",
"195 97 CURVE SMOOTH",
"195 94 OFFCURVE",
"194 92 OFFCURVE",
"192 90 CURVE SMOOTH",
"162 60 LINE SMOOTH",
"155 53 OFFCURVE",
"152 52 OFFCURVE",
"152 56 CURVE SMOOTH",
"152 135 LINE"
);
}
);
width = 256;
}
);
note = uniF116;
unicode = F116;
},
{
export = 0;
glyphname = uniF117;
lastChange = "2016-08-30 05:18:41 +0000";
layers = (
{
layerId = "7CC436F9-9F12-4208-AF2B-E4ABCB0FA991";
paths = (
{
closed = 1;
nodes = (
"80 343 OFFCURVE",
"83 335 OFFCURVE",
"89 329 CURVE SMOOTH",
"95 323 OFFCURVE",
"103 320 OFFCURVE",
"112 320 CURVE SMOOTH",
"121 320 OFFCURVE",
"129 323 OFFCURVE",
"135 329 CURVE SMOOTH",
"141 335 OFFCURVE",
"144 343 OFFCURVE",
"144 352 CURVE SMOOTH",
"144 384 LINE SMOOTH",
"144 393 OFFCURVE",
"141 401 OFFCURVE",
"135 407 CURVE SMOOTH",
"129 413 OFFCURVE",
"121 416 OFFCURVE",
"112 416 CURVE SMOOTH",
"103 416 OFFCURVE",
"95 413 OFFCURVE",
"89 407 CURVE SMOOTH",
"83 401 OFFCURVE",
"80 393 OFFCURVE",
"80 384 CURVE SMOOTH",
"80 352 LINE SMOOTH"
);
},
{
closed = 1;
nodes = (
"304 343 OFFCURVE",
"307 335 OFFCURVE",
"313 329 CURVE SMOOTH",
"319 323 OFFCURVE",
"327 320 OFFCURVE",
"336 320 CURVE SMOOTH",
"345 320 OFFCURVE",
"353 323 OFFCURVE",
"359 329 CURVE SMOOTH",
"365 335 OFFCURVE",
"368 343 OFFCURVE",
"368 352 CURVE SMOOTH",
"368 384 LINE SMOOTH",
"368 393 OFFCURVE",
"365 401 OFFCURVE",
"359 407 CURVE SMOOTH",
"353 413 OFFCURVE",
"345 416 OFFCURVE",
"336 416 CURVE SMOOTH",
"327 416 OFFCURVE",
"319 413 OFFCURVE",
"313 407 CURVE SMOOTH",
"307 401 OFFCURVE",
"304 393 OFFCURVE",
"304 384 CURVE SMOOTH",
"304 352 LINE SMOOTH"
);
},
{
closed = 1;
nodes = (
"384 343 LINE SMOOTH",
"384 332 OFFCURVE",
"379 323 OFFCURVE",
"370 316 CURVE SMOOTH",
"360 308 OFFCURVE",
"349 304 OFFCURVE",
"337 304 CURVE SMOOTH",
"324 304 OFFCURVE",
"313 308 OFFCURVE",
"303 316 CURVE",
"293 323 OFFCURVE",
"288 332 OFFCURVE",
"288 343 CURVE SMOOTH",
"288 384 LINE",
"160 384 LINE",
"160 343 LINE SMOOTH",
"160 332 OFFCURVE",
"155 323 OFFCURVE",
"146 316 CURVE SMOOTH",
"136 308 OFFCURVE",
"125 304 OFFCURVE",
"112 304 CURVE SMOOTH",
"99 304 OFFCURVE",
"88 308 OFFCURVE",
"79 316 CURVE",
"69 323 OFFCURVE",
"64 332 OFFCURVE",
"64 343 CURVE SMOOTH",
"64 384 LINE",
"8 384 LINE SMOOTH",
"3 384 OFFCURVE",
"0 381 OFFCURVE",
"0 376 CURVE SMOOTH",
"0 -24 LINE SMOOTH",
"0 -29 OFFCURVE",
"3 -32 OFFCURVE",
"8 -32 CURVE SMOOTH",
"440 -32 LINE SMOOTH",
"445 -32 OFFCURVE",
"448 -29 OFFCURVE",
"448 -24 CURVE SMOOTH",
"448 376 LINE SMOOTH",
"448 381 OFFCURVE",
"445 384 OFFCURVE",
"440 384 CURVE SMOOTH",
"384 384 LINE"
);
},
{
closed = 1;
nodes = (
"48 272 LINE",
"400 272 LINE",
"400 16 LINE",
"48 16 LINE"
);
}
);
width = 448;
}
);
note = uniF117;
unicode = F117;
},
{
export = 0;
glyphname = uniF118;
lastChange = "2016-08-30 05:18:41 +0000";
layers = (
{
layerId = "7CC436F9-9F12-4208-AF2B-E4ABCB0FA991";
paths = (
{
closed = 1;
nodes = (
"274 342 LINE",
"274 342 LINE",
"267 349 OFFCURVE",
"260 352 OFFCURVE",
"251 352 CURVE SMOOTH",
"167 352 LINE SMOOTH",
"156 352 OFFCURVE",
"148 348 OFFCURVE",
"142 341 CURVE",
"103 301 LINE",
"34 301 LINE SMOOTH",
"25 301 OFFCURVE",
"17 298 OFFCURVE",
"10 292 CURVE",
"3 285 OFFCURVE",
"0 277 OFFCURVE",
"0 268 CURVE SMOOTH",
"0 66 LINE SMOOTH",
"0 57 OFFCURVE",
"3 49 OFFCURVE",
"10 42 CURVE SMOOTH",
"17 35 OFFCURVE",
"25 32 OFFCURVE",
"34 32 CURVE SMOOTH",
"382 32 LINE SMOOTH",
"391 32 OFFCURVE",
"399 35 OFFCURVE",
"406 42 CURVE SMOOTH",
"413 49 OFFCURVE",
"416 57 OFFCURVE",
"416 66 CURVE SMOOTH",
"416 268 LINE SMOOTH",
"416 277 OFFCURVE",
"413 285 OFFCURVE",
"406 292 CURVE",
"399 298 OFFCURVE",
"391 301 OFFCURVE",
"382 301 CURVE SMOOTH",
"315 301 LINE"
);
},
{
closed = 1;
nodes = (
"125 128 OFFCURVE",
"116 150 OFFCURVE",
"116 175 CURVE SMOOTH",
"116 200 OFFCURVE",
"125 222 OFFCURVE",
"143 241 CURVE SMOOTH",
"161 259 OFFCURVE",
"183 268 OFFCURVE",
"208 268 CURVE SMOOTH",
"233 268 OFFCURVE",
"255 259 OFFCURVE",
"273 241 CURVE SMOOTH",
"291 222 OFFCURVE",
"300 200 OFFCURVE",
"300 175 CURVE SMOOTH",
"300 150 OFFCURVE",
"291 128 OFFCURVE",
"273 110 CURVE SMOOTH",
"255 91 OFFCURVE",
"233 82 OFFCURVE",
"208 82 CURVE SMOOTH",
"183 82 OFFCURVE",
"161 91 OFFCURVE",
"143 110 CURVE SMOOTH"
);
},
{
closed = 1;
nodes = (
"362 271 OFFCURVE",
"367 276 OFFCURVE",
"376 276 CURVE SMOOTH",
"385 276 OFFCURVE",
"390 271 OFFCURVE",
"390 262 CURVE SMOOTH",
"390 253 OFFCURVE",
"385 248 OFFCURVE",
"376 248 CURVE SMOOTH",
"367 248 OFFCURVE",
"362 253 OFFCURVE",
"362 262 CURVE SMOOTH"
);
},
{
closed = 1;
nodes = (
"145 211 OFFCURVE",
"138 194 OFFCURVE",
"138 175 CURVE SMOOTH",
"138 156 OFFCURVE",
"145 139 OFFCURVE",
"159 126 CURVE",
"172 112 OFFCURVE",
"189 105 OFFCURVE",
"208 105 CURVE SMOOTH",
"227 105 OFFCURVE",
"244 112 OFFCURVE",
"258 126 CURVE SMOOTH",
"271 139 OFFCURVE",
"278 156 OFFCURVE",
"278 175 CURVE SMOOTH",
"278 194 OFFCURVE",
"271 211 OFFCURVE",
"258 225 CURVE",
"244 238 OFFCURVE",
"227 245 OFFCURVE",
"208 245 CURVE SMOOTH",
"189 245 OFFCURVE",
"172 238 OFFCURVE",
"159 225 CURVE SMOOTH"
);
}
);
width = 416;
}
);
note = uniF118;
unicode = F118;
},
{
export = 0;
glyphname = uniF119;
lastChange = "2016-08-30 05:18:41 +0000";
layers = (
{
layerId = "7CC436F9-9F12-4208-AF2B-E4ABCB0FA991";
paths = (
{
closed = 1;
nodes = (
"20 352 OFFCURVE",
"13 349 OFFCURVE",
"8 344 CURVE SMOOTH",
"3 339 OFFCURVE",
"0 332 OFFCURVE",
"0 324 CURVE",
"0 324 LINE",
"0 60 LINE",
"0 60 LINE",
"0 52 OFFCURVE",
"3 45 OFFCURVE",
"8 40 CURVE SMOOTH",
"13 35 OFFCURVE",
"20 32 OFFCURVE",
"28 32 CURVE SMOOTH",
"420 32 LINE SMOOTH",
"428 32 OFFCURVE",
"435 35 OFFCURVE",
"440 40 CURVE SMOOTH",
"445 45 OFFCURVE",
"448 52 OFFCURVE",
"448 60 CURVE SMOOTH",
"448 324 LINE SMOOTH",
"448 332 OFFCURVE",
"445 339 OFFCURVE",
"440 344 CURVE SMOOTH",
"435 349 OFFCURVE",
"428 352 OFFCURVE",
"420 352 CURVE SMOOTH",
"28 352 LINE SMOOTH"
);
},
{
closed = 1;
nodes = (
"410 320 OFFCURVE",
"415 316 OFFCURVE",
"416 308 CURVE",
"416 288 LINE",
"32 288 LINE",
"32 308 LINE",
"33 316 OFFCURVE",
"38 320 OFFCURVE",
"45 320 CURVE SMOOTH",
"403 320 LINE SMOOTH"
);
},
{
closed = 1;
nodes = (
"38 64 OFFCURVE",
"33 68 OFFCURVE",
"32 76 CURVE",
"32 192 LINE",
"416 192 LINE",
"416 76 LINE",
"415 68 OFFCURVE",
"410 64 OFFCURVE",
"403 64 CURVE SMOOTH",
"45 64 LINE SMOOTH"
);
},
{
closed = 1;
nodes = (
"256 144 LINE",
"64 144 LINE",
"64 128 LINE",
"256 128 LINE"
);
},
{
closed = 1;
nodes = (
"160 112 LINE",
"64 112 LINE",
"64 96 LINE",
"160 96 LINE"
);
},
{
closed = 1;
nodes = (
"384 144 LINE",
"320 144 LINE",
"320 96 LINE",
"384 96 LINE"
);
}
);
width = 448;
}
);
note = uniF119;
unicode = F119;
},
{
export = 0;
glyphname = uniF11A;
lastChange = "2016-08-30 05:18:41 +0000";
layers = (
{
layerId = "7CC436F9-9F12-4208-AF2B-E4ABCB0FA991";
paths = (
{
closed = 1;
nodes = (
"238 48 OFFCURVE",
"245 46 OFFCURVE",
"250 43 CURVE SMOOTH",
"255 40 OFFCURVE",
"283 20 OFFCURVE",
"336 -16 CURVE",
"336 48 LINE",
"340 48 LINE SMOOTH",
"361 48 OFFCURVE",
"379 55 OFFCURVE",
"394 69 CURVE",
"409 82 OFFCURVE",
"416 99 OFFCURVE",
"416 119 CURVE SMOOTH",
"416 328 LINE SMOOTH",
"416 348 OFFCURVE",
"409 365 OFFCURVE",
"394 379 CURVE SMOOTH",
"379 393 OFFCURVE",
"361 400 OFFCURVE",
"340 400 CURVE SMOOTH",
"76 400 LINE SMOOTH",
"55 400 OFFCURVE",
"37 393 OFFCURVE",
"22 379 CURVE SMOOTH",
"7 365 OFFCURVE",
"0 348 OFFCURVE",
"0 328 CURVE SMOOTH",
"0 119 LINE SMOOTH",
"0 99 OFFCURVE",
"7 82 OFFCURVE",
"22 69 CURVE",
"37 55 OFFCURVE",
"55 48 OFFCURVE",
"76 48 CURVE SMOOTH",
"229 48 LINE SMOOTH"
);
},
{
closed = 1;
nodes = (
"333 241 OFFCURVE",
"336 233 OFFCURVE",
"336 224 CURVE SMOOTH",
"336 215 OFFCURVE",
"333 207 OFFCURVE",
"327 201 CURVE SMOOTH",
"321 195 OFFCURVE",
"313 192 OFFCURVE",
"304 192 CURVE SMOOTH",
"295 192 OFFCURVE",
"287 195 OFFCURVE",
"281 201 CURVE SMOOTH",
"275 207 OFFCURVE",
"272 215 OFFCURVE",
"272 224 CURVE SMOOTH",
"272 233 OFFCURVE",
"275 241 OFFCURVE",
"281 247 CURVE SMOOTH",
"287 253 OFFCURVE",
"295 256 OFFCURVE",
"304 256 CURVE SMOOTH",
"313 256 OFFCURVE",
"321 253 OFFCURVE",
"327 247 CURVE SMOOTH"
);
},
{
closed = 1;
nodes = (
"237 241 OFFCURVE",
"240 233 OFFCURVE",
"240 224 CURVE SMOOTH",
"240 215 OFFCURVE",
"237 207 OFFCURVE",
"231 201 CURVE SMOOTH",
"225 195 OFFCURVE",
"217 192 OFFCURVE",
"208 192 CURVE SMOOTH",
"199 192 OFFCURVE",
"191 195 OFFCURVE",
"185 201 CURVE SMOOTH",
"179 207 OFFCURVE",
"176 215 OFFCURVE",
"176 224 CURVE SMOOTH",
"176 233 OFFCURVE",
"179 241 OFFCURVE",
"185 247 CURVE SMOOTH",
"191 253 OFFCURVE",
"199 256 OFFCURVE",
"208 256 CURVE SMOOTH",
"217 256 OFFCURVE",
"225 253 OFFCURVE",
"231 247 CURVE SMOOTH"
);
},
{
closed = 1;
nodes = (
"141 241 OFFCURVE",
"144 233 OFFCURVE",
"144 224 CURVE SMOOTH",
"144 215 OFFCURVE",
"141 207 OFFCURVE",
"135 201 CURVE SMOOTH",
"129 195 OFFCURVE",
"121 192 OFFCURVE",
"112 192 CURVE SMOOTH",
"103 192 OFFCURVE",
"95 195 OFFCURVE",
"89 201 CURVE SMOOTH",
"83 207 OFFCURVE",
"80 215 OFFCURVE",
"80 224 CURVE SMOOTH",
"80 233 OFFCURVE",
"83 241 OFFCURVE",
"89 247 CURVE SMOOTH",
"95 253 OFFCURVE",
"103 256 OFFCURVE",
"112 256 CURVE SMOOTH",
"121 256 OFFCURVE",
"129 253 OFFCURVE",
"135 247 CURVE SMOOTH"
);
}
);
width = 416;
}
);
note = uniF11A;
unicode = F11A;
},
{
export = 0;
glyphname = uniF11B;
lastChange = "2016-08-30 05:18:41 +0000";
layers = (
{
layerId = "7CC436F9-9F12-4208-AF2B-E4ABCB0FA991";
paths = (
{
closed = 1;
nodes = (
"238 48 OFFCURVE",
"245 46 OFFCURVE",
"250 43 CURVE SMOOTH",
"255 40 OFFCURVE",
"283 20 OFFCURVE",
"336 -16 CURVE",
"336 48 LINE",
"340 48 LINE SMOOTH",
"361 48 OFFCURVE",
"379 55 OFFCURVE",
"394 69 CURVE",
"409 82 OFFCURVE",
"416 99 OFFCURVE",
"416 119 CURVE SMOOTH",
"416 328 LINE SMOOTH",
"416 348 OFFCURVE",
"409 365 OFFCURVE",
"394 379 CURVE SMOOTH",
"379 393 OFFCURVE",
"361 400 OFFCURVE",
"340 400 CURVE SMOOTH",
"76 400 LINE SMOOTH",
"55 400 OFFCURVE",
"37 393 OFFCURVE",
"22 379 CURVE SMOOTH",
"7 365 OFFCURVE",
"0 348 OFFCURVE",
"0 328 CURVE SMOOTH",
"0 119 LINE SMOOTH",
"0 99 OFFCURVE",
"7 82 OFFCURVE",
"22 69 CURVE",
"37 55 OFFCURVE",
"55 48 OFFCURVE",
"76 48 CURVE SMOOTH",
"229 48 LINE SMOOTH"
);
}
);
width = 416;
}
);
note = uniF11B;
unicode = F11B;
},
{
export = 0;
glyphname = uniF11C;
lastChange = "2016-08-30 05:18:41 +0000";
layers = (
{
layerId = "7CC436F9-9F12-4208-AF2B-E4ABCB0FA991";
paths = (
{
closed = 1;
nodes = (
"241 85 OFFCURVE",
"235 87 OFFCURVE",
"229 87 CURVE SMOOTH",
"112 87 LINE SMOOTH",
"95 87 OFFCURVE",
"80 93 OFFCURVE",
"67 104 CURVE SMOOTH",
"54 115 OFFCURVE",
"48 129 OFFCURVE",
"48 146 CURVE SMOOTH",
"48 247 LINE",
"46 247 LINE SMOOTH",
"33 247 OFFCURVE",
"23 243 OFFCURVE",
"14 234 CURVE SMOOTH",
"5 225 OFFCURVE",
"0 215 OFFCURVE",
"0 202 CURVE SMOOTH",
"0 73 LINE SMOOTH",
"0 61 OFFCURVE",
"5 51 OFFCURVE",
"14 44 CURVE",
"23 36 OFFCURVE",
"35 32 OFFCURVE",
"48 32 CURVE SMOOTH",
"64 32 LINE",
"64 -16 LINE",
"117 29 LINE",
"121 31 OFFCURVE",
"125 32 OFFCURVE",
"130 32 CURVE SMOOTH",
"220 32 LINE SMOOTH",
"233 32 OFFCURVE",
"244 35 OFFCURVE",
"254 41 CURVE",
"264 46 OFFCURVE",
"270 54 OFFCURVE",
"272 64 CURVE",
"246 82 LINE"
);
},
{
closed = 1;
nodes = (
"119 400 OFFCURVE",
"105 394 OFFCURVE",
"95 383 CURVE SMOOTH",
"85 372 OFFCURVE",
"80 357 OFFCURVE",
"80 340 CURVE SMOOTH",
"80 270 LINE",
"80 172 LINE SMOOTH",
"80 155 OFFCURVE",
"86 141 OFFCURVE",
"99 130 CURVE",
"111 118 OFFCURVE",
"126 112 OFFCURVE",
"143 112 CURVE SMOOTH",
"244 112 LINE SMOOTH",
"253 112 OFFCURVE",
"258 111 OFFCURVE",
"261 108 CURVE",
"336 48 LINE",
"336 112 LINE",
"353 112 LINE SMOOTH",
"370 112 OFFCURVE",
"385 118 OFFCURVE",
"398 130 CURVE SMOOTH",
"410 141 OFFCURVE",
"416 155 OFFCURVE",
"416 172 CURVE SMOOTH",
"416 340 LINE SMOOTH",
"416 357 OFFCURVE",
"410 371 OFFCURVE",
"398 383 CURVE",
"385 394 OFFCURVE",
"370 400 OFFCURVE",
"353 400 CURVE SMOOTH",
"136 400 LINE SMOOTH"
);
}
);
width = 416;
}
);
note = uniF11C;
unicode = F11C;
},
{
export = 0;
glyphname = uniF11D;
lastChange = "2016-08-30 05:18:41 +0000";
layers = (
{
layerId = "7CC436F9-9F12-4208-AF2B-E4ABCB0FA991";
paths = (
{
closed = 1;
nodes = (
"237 -1 OFFCURVE",
"264 4 OFFCURVE",
"289 14 CURVE",
"290 14 OFFCURVE",
"290 14 OFFCURVE",
"290 15 CURVE",
"290 15 OFFCURVE",
"290 15 OFFCURVE",
"291 15 CURVE",
"296 16 OFFCURVE",
"300 17 OFFCURVE",
"302 17 CURVE SMOOTH",
"307 17 OFFCURVE",
"311 16 OFFCURVE",
"314 15 CURVE SMOOTH",
"398 -16 LINE",
"376 72 LINE",
"376 77 OFFCURVE",
"377 82 OFFCURVE",
"380 87 CURVE",
"380 88 OFFCURVE",
"380 88 OFFCURVE",
"381 89 CURVE SMOOTH",
"382 90 OFFCURVE",
"382 90 OFFCURVE",
"383 91 CURVE",
"405 124 OFFCURVE",
"416 160 OFFCURVE",
"416 199 CURVE SMOOTH",
"416 254 OFFCURVE",
"396 302 OFFCURVE",
"355 341 CURVE SMOOTH",
"314 380 OFFCURVE",
"265 400 OFFCURVE",
"208 400 CURVE SMOOTH",
"151 400 OFFCURVE",
"102 380 OFFCURVE",
"61 341 CURVE SMOOTH",
"20 302 OFFCURVE",
"0 254 OFFCURVE",
"0 199 CURVE SMOOTH",
"0 144 OFFCURVE",
"20 97 OFFCURVE",
"61 58 CURVE SMOOTH",
"102 19 OFFCURVE",
"151 -1 OFFCURVE",
"208 -1 CURVE SMOOTH"
);
},
{
closed = 1;
nodes = (
"333 209 OFFCURVE",
"336 201 OFFCURVE",
"336 192 CURVE SMOOTH",
"336 183 OFFCURVE",
"333 175 OFFCURVE",
"327 169 CURVE SMOOTH",
"321 163 OFFCURVE",
"313 160 OFFCURVE",
"304 160 CURVE SMOOTH",
"295 160 OFFCURVE",
"287 163 OFFCURVE",
"281 169 CURVE SMOOTH",
"275 175 OFFCURVE",
"272 183 OFFCURVE",
"272 192 CURVE SMOOTH",
"272 201 OFFCURVE",
"275 209 OFFCURVE",
"281 215 CURVE SMOOTH",
"287 221 OFFCURVE",
"295 224 OFFCURVE",
"304 224 CURVE SMOOTH",
"313 224 OFFCURVE",
"321 221 OFFCURVE",
"327 215 CURVE SMOOTH"
);
},
{
closed = 1;
nodes = (
"237 209 OFFCURVE",
"240 201 OFFCURVE",
"240 192 CURVE SMOOTH",
"240 183 OFFCURVE",
"237 175 OFFCURVE",
"231 169 CURVE SMOOTH",
"225 163 OFFCURVE",
"217 160 OFFCURVE",
"208 160 CURVE SMOOTH",
"199 160 OFFCURVE",
"191 163 OFFCURVE",
"185 169 CURVE SMOOTH",
"179 175 OFFCURVE",
"176 183 OFFCURVE",
"176 192 CURVE SMOOTH",
"176 201 OFFCURVE",
"179 209 OFFCURVE",
"185 215 CURVE SMOOTH",
"191 221 OFFCURVE",
"199 224 OFFCURVE",
"208 224 CURVE SMOOTH",
"217 224 OFFCURVE",
"225 221 OFFCURVE",
"231 215 CURVE SMOOTH"
);
},
{
closed = 1;
nodes = (
"141 209 OFFCURVE",
"144 201 OFFCURVE",
"144 192 CURVE SMOOTH",
"144 183 OFFCURVE",
"141 175 OFFCURVE",
"135 169 CURVE SMOOTH",
"129 163 OFFCURVE",
"121 160 OFFCURVE",
"112 160 CURVE SMOOTH",
"103 160 OFFCURVE",
"95 163 OFFCURVE",
"89 169 CURVE SMOOTH",
"83 175 OFFCURVE",
"80 183 OFFCURVE",
"80 192 CURVE SMOOTH",
"80 201 OFFCURVE",
"83 209 OFFCURVE",
"89 215 CURVE SMOOTH",
"95 221 OFFCURVE",
"103 224 OFFCURVE",
"112 224 CURVE SMOOTH",
"121 224 OFFCURVE",
"129 221 OFFCURVE",
"135 215 CURVE SMOOTH"
);
}
);
width = 416;
}
);
note = uniF11D;
unicode = F11D;
},
{
export = 0;
glyphname = uniF11E;
lastChange = "2016-08-30 05:18:41 +0000";
layers = (
{
layerId = "7CC436F9-9F12-4208-AF2B-E4ABCB0FA991";
paths = (
{
closed = 1;
nodes = (
"237 -1 OFFCURVE",
"264 4 OFFCURVE",
"289 14 CURVE",
"290 14 OFFCURVE",
"290 14 OFFCURVE",
"290 15 CURVE",
"290 15 OFFCURVE",
"290 15 OFFCURVE",
"291 15 CURVE",
"296 16 OFFCURVE",
"300 17 OFFCURVE",
"302 17 CURVE SMOOTH",
"307 17 OFFCURVE",
"311 16 OFFCURVE",
"314 15 CURVE SMOOTH",
"398 -16 LINE",
"376 72 LINE",
"376 77 OFFCURVE",
"377 82 OFFCURVE",
"380 87 CURVE",
"380 88 OFFCURVE",
"380 88 OFFCURVE",
"381 89 CURVE SMOOTH",
"382 90 OFFCURVE",
"382 90 OFFCURVE",
"383 91 CURVE",
"405 124 OFFCURVE",
"416 160 OFFCURVE",
"416 199 CURVE SMOOTH",
"416 254 OFFCURVE",
"396 302 OFFCURVE",
"355 341 CURVE SMOOTH",
"314 380 OFFCURVE",
"265 400 OFFCURVE",
"208 400 CURVE SMOOTH",
"151 400 OFFCURVE",
"102 380 OFFCURVE",
"61 341 CURVE SMOOTH",
"20 302 OFFCURVE",
"0 254 OFFCURVE",
"0 199 CURVE SMOOTH",
"0 144 OFFCURVE",
"20 97 OFFCURVE",
"61 58 CURVE SMOOTH",
"102 19 OFFCURVE",
"151 -1 OFFCURVE",
"208 -1 CURVE SMOOTH"
);
}
);
width = 416;
}
);
note = uniF11E;
unicode = F11E;
},
{
export = 0;
glyphname = uniF11F;
lastChange = "2016-08-30 05:18:41 +0000";
layers = (
{
layerId = "7CC436F9-9F12-4208-AF2B-E4ABCB0FA991";
paths = (
{
closed = 1;
nodes = (
"27 54 OFFCURVE",
"28 50 OFFCURVE",
"28 47 CURVE",
"16 -16 LINE",
"72 6 LINE",
"76 7 OFFCURVE",
"79 8 OFFCURVE",
"81 8 CURVE SMOOTH",
"84 8 OFFCURVE",
"86 7 OFFCURVE",
"89 6 CURVE",
"90 6 LINE",
"111 -2 OFFCURVE",
"130 -6 OFFCURVE",
"148 -6 CURVE SMOOTH",
"195 -6 OFFCURVE",
"233 12 OFFCURVE",
"263 47 CURVE",
"249 43 OFFCURVE",
"234 41 OFFCURVE",
"219 41 CURVE SMOOTH",
"171 41 OFFCURVE",
"130 58 OFFCURVE",
"96 91 CURVE SMOOTH",
"62 124 OFFCURVE",
"45 163 OFFCURVE",
"45 209 CURVE SMOOTH",
"45 217 OFFCURVE",
"46 228 OFFCURVE",
"49 243 CURVE",
"16 215 OFFCURVE",
"0 180 OFFCURVE",
"0 137 CURVE SMOOTH",
"0 109 OFFCURVE",
"8 83 OFFCURVE",
"24 60 CURVE",
"24 58 LINE",
"24 58 OFFCURVE",
"24 58 OFFCURVE",
"25 57 CURVE"
);
},
{
closed = 1;
nodes = (
"201 400 OFFCURVE",
"164 387 OFFCURVE",
"132 362 CURVE SMOOTH",
"100 337 OFFCURVE",
"80 305 OFFCURVE",
"72 267 CURVE SMOOTH",
"70 256 OFFCURVE",
"69 244 OFFCURVE",
"69 232 CURVE SMOOTH",
"69 186 OFFCURVE",
"86 147 OFFCURVE",
"120 114 CURVE SMOOTH",
"153 81 OFFCURVE",
"194 65 OFFCURVE",
"242 65 CURVE SMOOTH",
"257 65 OFFCURVE",
"272 67 OFFCURVE",
"286 71 CURVE SMOOTH",
"297 74 OFFCURVE",
"305 76 OFFCURVE",
"310 78 CURVE",
"312 79 LINE",
"316 80 OFFCURVE",
"319 81 OFFCURVE",
"321 81 CURVE SMOOTH",
"324 81 OFFCURVE",
"327 80 OFFCURVE",
"331 79 CURVE",
"400 53 LINE",
"383 127 LINE",
"383 131 OFFCURVE",
"384 135 OFFCURVE",
"386 139 CURVE",
"386 140 OFFCURVE",
"386 140 OFFCURVE",
"387 141 CURVE SMOOTH",
"388 142 LINE",
"407 171 OFFCURVE",
"416 201 OFFCURVE",
"416 232 CURVE SMOOTH",
"416 278 OFFCURVE",
"399 318 OFFCURVE",
"365 351 CURVE SMOOTH",
"331 384 OFFCURVE",
"290 400 OFFCURVE",
"242 400 CURVE SMOOTH"
);
}
);
width = 416;
}
);
note = uniF11F;
unicode = F11F;
},
{
export = 0;
glyphname = uniF120;
lastChange = "2016-08-30 05:18:41 +0000";
layers = (
{
layerId = "7CC436F9-9F12-4208-AF2B-E4ABCB0FA991";
paths = (
{
closed = 1;
nodes = (
"22 307 OFFCURVE",
"0 254 OFFCURVE",
"0 192 CURVE SMOOTH",
"0 130 OFFCURVE",
"22 77 OFFCURVE",
"66 34 CURVE SMOOTH",
"109 -10 OFFCURVE",
"162 -32 OFFCURVE",
"224 -32 CURVE SMOOTH",
"286 -32 OFFCURVE",
"339 -10 OFFCURVE",
"383 34 CURVE SMOOTH",
"426 77 OFFCURVE",
"448 130 OFFCURVE",
"448 192 CURVE SMOOTH",
"448 254 OFFCURVE",
"426 307 OFFCURVE",
"383 351 CURVE SMOOTH",
"339 394 OFFCURVE",
"286 416 OFFCURVE",
"224 416 CURVE SMOOTH",
"162 416 OFFCURVE",
"109 394 OFFCURVE",
"66 351 CURVE SMOOTH"
);
},
{
closed = 1;
nodes = (
"198 86 OFFCURVE",
"196 85 OFFCURVE",
"195 85 CURVE SMOOTH",
"194 85 OFFCURVE",
"192 86 OFFCURVE",
"190 88 CURVE SMOOTH",
"189 89 OFFCURVE",
"163 114 OFFCURVE",
"111 164 CURVE",
"109 165 LINE",
"108 166 OFFCURVE",
"108 167 OFFCURVE",
"108 168 CURVE SMOOTH",
"108 170 OFFCURVE",
"108 171 OFFCURVE",
"109 172 CURVE SMOOTH",
"110 173 LINE",
"135 198 LINE SMOOTH",
"137 200 OFFCURVE",
"138 201 OFFCURVE",
"139 201 CURVE SMOOTH",
"141 201 OFFCURVE",
"143 200 OFFCURVE",
"145 198 CURVE SMOOTH",
"146 197 OFFCURVE",
"161 183 OFFCURVE",
"190 155 CURVE",
"301 298 LINE",
"302 299 OFFCURVE",
"303 299 OFFCURVE",
"304 299 CURVE SMOOTH",
"306 299 OFFCURVE",
"307 299 OFFCURVE",
"308 298 CURVE",
"339 274 LINE",
"340 273 OFFCURVE",
"340 272 OFFCURVE",
"340 270 CURVE SMOOTH",
"340 269 OFFCURVE",
"340 268 OFFCURVE",
"339 267 CURVE",
"200 88 LINE"
);
}
);
width = 448;
}
);
note = uniF120;
unicode = F120;
},
{
export = 0;
glyphname = uniF121;
lastChange = "2016-08-30 05:18:41 +0000";
layers = (
{
layerId = "7CC436F9-9F12-4208-AF2B-E4ABCB0FA991";
paths = (
{
closed = 1;
nodes = (
"416 328 OFFCURVE",
"418 339 OFFCURVE",
"416 350 CURVE SMOOTH",
"414 361 OFFCURVE",
"409 369 OFFCURVE",
"400 376 CURVE SMOOTH",
"391 383 OFFCURVE",
"382 385 OFFCURVE",
"372 383 CURVE SMOOTH",
"361 381 OFFCURVE",
"353 376 OFFCURVE",
"346 367 CURVE",
"166 104 LINE",
"67 211 LINE",
"60 220 OFFCURVE",
"51 224 OFFCURVE",
"40 225 CURVE",
"29 225 OFFCURVE",
"20 221 OFFCURVE",
"12 213 CURVE SMOOTH",
"4 205 OFFCURVE",
"0 195 OFFCURVE",
"0 184 CURVE SMOOTH",
"0 173 OFFCURVE",
"4 163 OFFCURVE",
"11 155 CURVE SMOOTH",
"42 121 LINE SMOOTH",
"62 98 OFFCURVE",
"83 75 OFFCURVE",
"106 51 CURVE SMOOTH",
"129 26 OFFCURVE",
"143 12 OFFCURVE",
"148 8 CURVE SMOOTH",
"157 1 OFFCURVE",
"166 -1 OFFCURVE",
"177 1 CURVE SMOOTH",
"187 3 OFFCURVE",
"195 8 OFFCURVE",
"202 17 CURVE",
"409 319 LINE"
);
}
);
width = 416;
}
);
note = uniF121;
unicode = F121;
},
{
export = 0;
glyphname = uniF122;
lastChange = "2016-08-30 05:18:41 +0000";
layers = (
{
layerId = "7CC436F9-9F12-4208-AF2B-E4ABCB0FA991";
paths = (
{
closed = 1;
nodes = (
"356 383 OFFCURVE",
"354 384 OFFCURVE",
"352 384 CURVE SMOOTH",
"349 384 OFFCURVE",
"347 383 OFFCURVE",
"346 382 CURVE",
"146 125 LINE",
"66 203 LINE SMOOTH",
"62 207 OFFCURVE",
"59 209 OFFCURVE",
"56 209 CURVE SMOOTH",
"55 209 OFFCURVE",
"52 207 OFFCURVE",
"48 203 CURVE SMOOTH",
"37 192 OFFCURVE",
"23 177 OFFCURVE",
"4 157 CURVE SMOOTH",
"2 155 LINE",
"1 152 OFFCURVE",
"0 151 OFFCURVE",
"0 150 CURVE SMOOTH",
"0 149 OFFCURVE",
"1 147 OFFCURVE",
"2 144 CURVE",
"5 141 LINE",
"146 5 LINE SMOOTH",
"149 2 OFFCURVE",
"153 0 OFFCURVE",
"156 0 CURVE SMOOTH",
"158 0 OFFCURVE",
"161 2 OFFCURVE",
"165 6 CURVE",
"414 326 LINE",
"415 329 OFFCURVE",
"416 331 OFFCURVE",
"416 332 CURVE SMOOTH",
"416 333 OFFCURVE",
"415 335 OFFCURVE",
"414 338 CURVE",
"359 382 LINE"
);
}
);
width = 416;
}
);
note = uniF122;
unicode = F122;
},
{
export = 0;
glyphname = uniF123;
lastChange = "2016-08-30 05:18:41 +0000";
layers = (
{
layerId = "7CC436F9-9F12-4208-AF2B-E4ABCB0FA991";
paths = (
{
closed = 1;
nodes = (
"45 322 OFFCURVE",
"39 322 OFFCURVE",
"34 317 CURVE SMOOTH",
"3 287 LINE SMOOTH",
"-2 282 OFFCURVE",
"-2 276 OFFCURVE",
"3 271 CURVE SMOOTH",
"216 67 LINE SMOOTH",
"218 65 OFFCURVE",
"221 64 OFFCURVE",
"224 64 CURVE SMOOTH",
"227 64 OFFCURVE",
"230 65 OFFCURVE",
"232 67 CURVE SMOOTH",
"445 271 LINE SMOOTH",
"450 276 OFFCURVE",
"450 282 OFFCURVE",
"445 287 CURVE SMOOTH",
"414 317 LINE SMOOTH",
"409 322 OFFCURVE",
"403 322 OFFCURVE",
"398 317 CURVE SMOOTH",
"224 150 LINE",
"224 150 LINE",
"50 317 LINE SMOOTH"
);
}
);
width = 448;
}
);
note = uniF123;
unicode = F123;
},
{
export = 0;
glyphname = uniF124;
lastChange = "2016-08-30 05:18:41 +0000";
layers = (
{
layerId = "7CC436F9-9F12-4208-AF2B-E4ABCB0FA991";
paths = (
{
closed = 1;
nodes = (
"253 366 LINE SMOOTH",
"258 371 OFFCURVE",
"258 377 OFFCURVE",
"253 382 CURVE SMOOTH",
"223 412 LINE",
"217 417 OFFCURVE",
"212 418 OFFCURVE",
"207 413 CURVE SMOOTH",
"3 200 LINE SMOOTH",
"1 198 OFFCURVE",
"0 195 OFFCURVE",
"0 192 CURVE SMOOTH",
"0 189 OFFCURVE",
"1 186 OFFCURVE",
"3 184 CURVE SMOOTH",
"207 -29 LINE SMOOTH",
"212 -34 OFFCURVE",
"218 -34 OFFCURVE",
"223 -29 CURVE SMOOTH",
"253 2 LINE SMOOTH",
"258 7 OFFCURVE",
"258 13 OFFCURVE",
"253 18 CURVE SMOOTH",
"86 192 LINE"
);
}
);
width = 256;
}
);
note = uniF124;
unicode = F124;
},
{
export = 0;
glyphname = uniF125;
lastChange = "2016-08-30 05:18:41 +0000";
layers = (
{
layerId = "7CC436F9-9F12-4208-AF2B-E4ABCB0FA991";
paths = (
{
closed = 1;
nodes = (
"-2 13 OFFCURVE",
"-2 7 OFFCURVE",
"3 2 CURVE SMOOTH",
"33 -29 LINE SMOOTH",
"38 -34 OFFCURVE",
"44 -34 OFFCURVE",
"49 -29 CURVE SMOOTH",
"253 184 LINE SMOOTH",
"255 186 OFFCURVE",
"256 189 OFFCURVE",
"256 192 CURVE SMOOTH",
"256 195 OFFCURVE",
"255 198 OFFCURVE",
"253 200 CURVE SMOOTH",
"49 413 LINE SMOOTH",
"44 418 OFFCURVE",
"39 417 OFFCURVE",
"33 412 CURVE",
"3 382 LINE SMOOTH",
"-2 377 OFFCURVE",
"-2 371 OFFCURVE",
"3 366 CURVE SMOOTH",
"170 192 LINE",
"170 192 LINE",
"3 18 LINE SMOOTH"
);
}
);
width = 256;
}
);
note = uniF125;
unicode = F125;
},
{
export = 0;
glyphname = uniF126;
lastChange = "2016-08-30 05:18:41 +0000";
layers = (
{
layerId = "7CC436F9-9F12-4208-AF2B-E4ABCB0FA991";
paths = (
{
closed = 1;
nodes = (
"398 67 LINE SMOOTH",
"403 62 OFFCURVE",
"409 62 OFFCURVE",
"414 67 CURVE SMOOTH",
"445 97 LINE SMOOTH",
"450 102 OFFCURVE",
"450 108 OFFCURVE",
"445 113 CURVE SMOOTH",
"232 317 LINE SMOOTH",
"230 319 OFFCURVE",
"227 320 OFFCURVE",
"224 320 CURVE SMOOTH",
"221 320 OFFCURVE",
"218 319 OFFCURVE",
"216 317 CURVE SMOOTH",
"3 113 LINE SMOOTH",
"-2 108 OFFCURVE",
"-2 102 OFFCURVE",
"3 97 CURVE SMOOTH",
"34 67 LINE SMOOTH",
"39 62 OFFCURVE",
"45 62 OFFCURVE",
"50 67 CURVE SMOOTH",
"224 234 LINE"
);
}
);
width = 448;
}
);
note = uniF126;
unicode = F126;
},
{
export = 0;
glyphname = uniF127;
lastChange = "2016-08-30 05:18:41 +0000";
layers = (
{
layerId = "7CC436F9-9F12-4208-AF2B-E4ABCB0FA991";
paths = (
{
closed = 1;
nodes = (
"270 310 OFFCURVE",
"261 323 OFFCURVE",
"245 328 CURVE",
"243 328 LINE",
"229 331 OFFCURVE",
"222 338 OFFCURVE",
"222 349 CURVE SMOOTH",
"222 370 LINE SMOOTH",
"222 383 OFFCURVE",
"218 394 OFFCURVE",
"209 403 CURVE SMOOTH",
"200 412 OFFCURVE",
"189 416 OFFCURVE",
"176 416 CURVE SMOOTH",
"163 416 OFFCURVE",
"153 412 OFFCURVE",
"144 403 CURVE SMOOTH",
"135 394 OFFCURVE",
"130 383 OFFCURVE",
"130 370 CURVE SMOOTH",
"130 349 LINE SMOOTH",
"130 339 OFFCURVE",
"123 332 OFFCURVE",
"109 329 CURVE",
"108 328 LINE",
"91 323 OFFCURVE",
"82 310 OFFCURVE",
"80 288 CURVE",
"272 288 LINE"
);
},
{
closed = 1;
nodes = (
"185 384 OFFCURVE",
"190 379 OFFCURVE",
"190 370 CURVE SMOOTH",
"190 361 OFFCURVE",
"185 356 OFFCURVE",
"176 356 CURVE SMOOTH",
"167 356 OFFCURVE",
"163 361 OFFCURVE",
"163 370 CURVE SMOOTH",
"163 379 OFFCURVE",
"167 384 OFFCURVE",
"176 384 CURVE SMOOTH"
);
},
{
closed = 1;
nodes = (
"251 371 LINE SMOOTH",
"251 366 OFFCURVE",
"253 361 OFFCURVE",
"257 358 CURVE",
"261 354 OFFCURVE",
"266 352 OFFCURVE",
"271 352 CURVE SMOOTH",
"308 352 LINE SMOOTH",
"316 352 OFFCURVE",
"320 348 OFFCURVE",
"320 339 CURVE SMOOTH",
"320 12 LINE SMOOTH",
"320 4 OFFCURVE",
"316 0 OFFCURVE",
"309 0 CURVE SMOOTH",
"44 0 LINE SMOOTH",
"37 0 OFFCURVE",
"33 4 OFFCURVE",
"33 12 CURVE SMOOTH",
"33 339 LINE SMOOTH",
"33 348 OFFCURVE",
"37 352 OFFCURVE",
"45 352 CURVE SMOOTH",
"82 352 LINE SMOOTH",
"87 352 OFFCURVE",
"92 354 OFFCURVE",
"96 358 CURVE SMOOTH",
"99 361 OFFCURVE",
"101 366 OFFCURVE",
"101 371 CURVE SMOOTH",
"101 384 LINE",
"28 384 LINE SMOOTH",
"21 384 OFFCURVE",
"14 381 OFFCURVE",
"9 376 CURVE",
"3 371 OFFCURVE",
"0 364 OFFCURVE",
"0 356 CURVE SMOOTH",
"0 -4 LINE SMOOTH",
"0 -12 OFFCURVE",
"3 -19 OFFCURVE",
"9 -24 CURVE",
"14 -29 OFFCURVE",
"21 -32 OFFCURVE",
"28 -32 CURVE SMOOTH",
"176 -32 LINE",
"325 -32 LINE SMOOTH",
"332 -32 OFFCURVE",
"339 -29 OFFCURVE",
"344 -24 CURVE SMOOTH",
"349 -19 OFFCURVE",
"352 -12 OFFCURVE",
"352 -4 CURVE SMOOTH",
"352 356 LINE SMOOTH",
"352 364 OFFCURVE",
"349 371 OFFCURVE",
"344 376 CURVE SMOOTH",
"339 381 OFFCURVE",
"332 384 OFFCURVE",
"325 384 CURVE SMOOTH",
"251 384 LINE"
);
},
{
closed = 1;
nodes = (
"176 256 LINE",
"64 256 LINE",
"64 224 LINE",
"176 224 LINE"
);
},
{
closed = 1;
nodes = (
"224 64 LINE",
"64 64 LINE",
"64 32 LINE",
"224 32 LINE"
);
},
{
closed = 1;
nodes = (
"193 128 LINE",
"64 128 LINE",
"64 96 LINE",
"193 96 LINE"
);
},
{
closed = 1;
nodes = (
"272 192 LINE",
"64 192 LINE",
"64 160 LINE",
"272 160 LINE"
);
}
);
width = 352;
}
);
note = uniF127;
unicode = F127;
},
{
export = 0;
glyphname = uniF128;
lastChange = "2016-08-30 05:18:41 +0000";
layers = (
{
layerId = "7CC436F9-9F12-4208-AF2B-E4ABCB0FA991";
paths = (
{
closed = 1;
nodes = (
"22 306 OFFCURVE",
"0 253 OFFCURVE",
"0 191 CURVE SMOOTH",
"0 129 OFFCURVE",
"22 76 OFFCURVE",
"66 33 CURVE SMOOTH",
"109 -11 OFFCURVE",
"162 -33 OFFCURVE",
"224 -33 CURVE SMOOTH",
"286 -33 OFFCURVE",
"339 -11 OFFCURVE",
"383 33 CURVE SMOOTH",
"426 76 OFFCURVE",
"448 129 OFFCURVE",
"448 191 CURVE SMOOTH",
"448 253 OFFCURVE",
"426 306 OFFCURVE",
"383 350 CURVE SMOOTH",
"339 393 OFFCURVE",
"286 415 OFFCURVE",
"224 415 CURVE SMOOTH",
"162 415 OFFCURVE",
"109 393 OFFCURVE",
"66 350 CURVE SMOOTH"
);
},
{
closed = 1;
nodes = (
"334 114 OFFCURVE",
"335 112 OFFCURVE",
"335 110 CURVE SMOOTH",
"335 107 OFFCURVE",
"334 105 OFFCURVE",
"332 104 CURVE",
"311 83 LINE SMOOTH",
"309 81 OFFCURVE",
"307 80 OFFCURVE",
"305 80 CURVE SMOOTH",
"304 80 OFFCURVE",
"302 81 OFFCURVE",
"300 83 CURVE SMOOTH",
"224 158 LINE",
"149 82 LINE SMOOTH",
"148 81 OFFCURVE",
"146 80 OFFCURVE",
"143 80 CURVE SMOOTH",
"140 80 OFFCURVE",
"138 81 OFFCURVE",
"137 82 CURVE SMOOTH",
"116 104 LINE SMOOTH",
"115 105 OFFCURVE",
"114 107 OFFCURVE",
"114 110 CURVE SMOOTH",
"114 113 OFFCURVE",
"115 114 OFFCURVE",
"116 115 CURVE SMOOTH",
"192 191 LINE",
"116 266 LINE SMOOTH",
"112 270 OFFCURVE",
"112 274 OFFCURVE",
"116 278 CURVE SMOOTH",
"137 299 LINE SMOOTH",
"139 301 OFFCURVE",
"141 302 OFFCURVE",
"143 302 CURVE SMOOTH",
"144 302 OFFCURVE",
"146 301 OFFCURVE",
"148 299 CURVE SMOOTH",
"224 225 LINE",
"300 299 LINE SMOOTH",
"302 301 OFFCURVE",
"304 302 OFFCURVE",
"305 302 CURVE SMOOTH",
"307 302 OFFCURVE",
"309 301 OFFCURVE",
"311 299 CURVE SMOOTH",
"333 278 LINE SMOOTH",
"337 274 OFFCURVE",
"337 270 OFFCURVE",
"333 266 CURVE SMOOTH",
"257 191 LINE",
"332 116 LINE SMOOTH"
);
}
);
width = 448;
}
);
note = uniF128;
unicode = F128;
},
{
export = 0;
glyphname = uniF129;
lastChange = "2016-08-30 05:18:41 +0000";
layers = (
{
layerId = "7CC436F9-9F12-4208-AF2B-E4ABCB0FA991";
paths = (
{
closed = 1;
nodes = (
"374 323 LINE SMOOTH",
"381 330 OFFCURVE",
"384 339 OFFCURVE",
"384 349 CURVE SMOOTH",
"384 359 OFFCURVE",
"381 367 OFFCURVE",
"374 374 CURVE SMOOTH",
"367 381 OFFCURVE",
"359 384 OFFCURVE",
"349 384 CURVE SMOOTH",
"339 384 OFFCURVE",
"330 381 OFFCURVE",
"323 374 CURVE SMOOTH",
"192 243 LINE",
"61 374 LINE SMOOTH",
"54 381 OFFCURVE",
"45 384 OFFCURVE",
"36 384 CURVE SMOOTH",
"27 384 OFFCURVE",
"18 381 OFFCURVE",
"11 374 CURVE SMOOTH",
"4 367 OFFCURVE",
"0 359 OFFCURVE",
"0 349 CURVE SMOOTH",
"0 339 OFFCURVE",
"4 330 OFFCURVE",
"11 323 CURVE SMOOTH",
"141 192 LINE",
"11 61 LINE SMOOTH",
"4 54 OFFCURVE",
"0 45 OFFCURVE",
"0 35 CURVE SMOOTH",
"0 25 OFFCURVE",
"4 17 OFFCURVE",
"11 10 CURVE SMOOTH",
"18 3 OFFCURVE",
"27 0 OFFCURVE",
"36 0 CURVE SMOOTH",
"45 0 OFFCURVE",
"54 3 OFFCURVE",
"61 10 CURVE SMOOTH",
"192 141 LINE",
"323 10 LINE SMOOTH",
"330 3 OFFCURVE",
"339 0 OFFCURVE",
"349 0 CURVE SMOOTH",
"359 0 OFFCURVE",
"367 3 OFFCURVE",
"374 10 CURVE SMOOTH",
"381 17 OFFCURVE",
"384 25 OFFCURVE",
"384 35 CURVE SMOOTH",
"384 45 OFFCURVE",
"381 54 OFFCURVE",
"374 61 CURVE SMOOTH",
"243 192 LINE"
);
}
);
width = 384;
}
);
note = uniF129;
unicode = F129;
},
{
export = 0;
glyphname = uniF12A;
lastChange = "2016-08-30 05:18:41 +0000";
layers = (
{
layerId = "7CC436F9-9F12-4208-AF2B-E4ABCB0FA991";
paths = (
{
closed = 1;
nodes = (
"380 323 LINE",
"387 329 OFFCURVE",
"387 335 OFFCURVE",
"380 342 CURVE SMOOTH",
"343 380 LINE SMOOTH",
"340 383 OFFCURVE",
"337 384 OFFCURVE",
"333 384 CURVE SMOOTH",
"330 384 OFFCURVE",
"327 383 OFFCURVE",
"323 380 CURVE",
"192 250 LINE",
"61 380 LINE SMOOTH",
"58 383 OFFCURVE",
"55 384 OFFCURVE",
"51 384 CURVE SMOOTH",
"48 384 OFFCURVE",
"45 383 OFFCURVE",
"41 380 CURVE",
"4 342 LINE SMOOTH",
"-3 335 OFFCURVE",
"-3 329 OFFCURVE",
"4 322 CURVE SMOOTH",
"136 192 LINE",
"4 61 LINE SMOOTH",
"1 58 OFFCURVE",
"0 55 OFFCURVE",
"0 51 CURVE SMOOTH",
"0 47 OFFCURVE",
"1 44 OFFCURVE",
"4 41 CURVE SMOOTH",
"42 4 LINE SMOOTH",
"45 1 OFFCURVE",
"48 0 OFFCURVE",
"52 0 CURVE SMOOTH",
"55 0 OFFCURVE",
"58 1 OFFCURVE",
"61 4 CURVE SMOOTH",
"192 135 LINE",
"323 4 LINE SMOOTH",
"326 1 OFFCURVE",
"329 0 OFFCURVE",
"333 0 CURVE SMOOTH",
"336 0 OFFCURVE",
"339 1 OFFCURVE",
"342 4 CURVE SMOOTH",
"380 41 LINE SMOOTH",
"383 44 OFFCURVE",
"384 47 OFFCURVE",
"384 51 CURVE SMOOTH",
"384 55 OFFCURVE",
"383 58 OFFCURVE",
"380 61 CURVE SMOOTH",
"248 193 LINE"
);
}
);
width = 384;
}
);
note = uniF12A;
unicode = F12A;
},
{
export = 0;
glyphname = uniF12B;
lastChange = "2016-08-30 05:18:41 +0000";
layers = (
{
layerId = "7CC436F9-9F12-4208-AF2B-E4ABCB0FA991";
paths = (
{
closed = 1;
nodes = (
"366 251 OFFCURVE",
"355 279 OFFCURVE",
"333 302 CURVE SMOOTH",
"310 325 OFFCURVE",
"283 336 OFFCURVE",
"251 336 CURVE SMOOTH",
"228 336 OFFCURVE",
"208 330 OFFCURVE",
"189 318 CURVE",
"170 305 OFFCURVE",
"155 289 OFFCURVE",
"146 269 CURVE",
"137 274 OFFCURVE",
"128 276 OFFCURVE",
"120 276 CURVE SMOOTH",
"105 276 OFFCURVE",
"93 271 OFFCURVE",
"82 262 CURVE",
"71 252 OFFCURVE",
"64 240 OFFCURVE",
"61 225 CURVE",
"43 219 OFFCURVE",
"28 208 OFFCURVE",
"17 193 CURVE SMOOTH",
"6 177 OFFCURVE",
"0 159 OFFCURVE",
"0 139 CURVE SMOOTH",
"0 114 OFFCURVE",
"9 93 OFFCURVE",
"27 75 CURVE SMOOTH",
"44 57 OFFCURVE",
"65 48 OFFCURVE",
"90 48 CURVE SMOOTH",
"366 48 LINE SMOOTH",
"389 48 OFFCURVE",
"408 56 OFFCURVE",
"424 73 CURVE SMOOTH",
"440 89 OFFCURVE",
"448 108 OFFCURVE",
"448 131 CURVE SMOOTH",
"448 154 OFFCURVE",
"440 174 OFFCURVE",
"424 191 CURVE SMOOTH",
"408 207 OFFCURVE",
"389 215 OFFCURVE",
"366 215 CURVE",
"366 218 LINE SMOOTH"
);
}
);
width = 448;
}
);
note = uniF12B;
unicode = F12B;
},
{
export = 0;
glyphname = uniF12C;
lastChange = "2016-08-30 05:18:41 +0000";
layers = (
{
layerId = "7CC436F9-9F12-4208-AF2B-E4ABCB0FA991";
paths = (
{
closed = 1;
nodes = (
"340 388 OFFCURVE",
"332 388 OFFCURVE",
"323 379 CURVE SMOOTH",
"292 347 LINE",
"347 292 LINE",
"379 323 LINE SMOOTH",
"388 332 OFFCURVE",
"388 340 OFFCURVE",
"379 348 CURVE",
"348 379 LINE"
);
},
{
closed = 1;
nodes = (
"96 96 LINE",
"160 110 LINE",
"337 283 LINE",
"282 338 LINE",
"110 160 LINE"
);
},
{
closed = 1;
nodes = (
"320 35 OFFCURVE",
"317 32 OFFCURVE",
"311 32 CURVE SMOOTH",
"42 32 LINE SMOOTH",
"35 32 OFFCURVE",
"32 35 OFFCURVE",
"32 42 CURVE SMOOTH",
"32 310 LINE SMOOTH",
"32 317 OFFCURVE",
"36 320 OFFCURVE",
"43 320 CURVE SMOOTH",
"192 320 LINE",
"224 352 LINE",
"23 352 LINE SMOOTH",
"16 352 OFFCURVE",
"11 350 OFFCURVE",
"7 346 CURVE SMOOTH",
"2 341 OFFCURVE",
"0 336 OFFCURVE",
"0 329 CURVE SMOOTH",
"0 23 LINE SMOOTH",
"0 16 OFFCURVE",
"2 11 OFFCURVE",
"7 7 CURVE",
"11 2 OFFCURVE",
"16 0 OFFCURVE",
"23 0 CURVE SMOOTH",
"329 0 LINE SMOOTH",
"336 0 OFFCURVE",
"341 2 OFFCURVE",
"346 7 CURVE SMOOTH",
"350 11 OFFCURVE",
"352 16 OFFCURVE",
"352 23 CURVE SMOOTH",
"352 224 LINE",
"320 192 LINE",
"320 42 LINE SMOOTH"
);
}
);
width = 384;
}
);
note = uniF12C;
unicode = F12C;
},
{
export = 0;
glyphname = uniF12D;
lastChange = "2016-08-30 05:18:41 +0000";
layers = (
{
layerId = "7CC436F9-9F12-4208-AF2B-E4ABCB0FA991";
paths = (
{
closed = 1;
nodes = (
"137 242 OFFCURVE",
"127 219 OFFCURVE",
"127 192 CURVE SMOOTH",
"127 165 OFFCURVE",
"137 143 OFFCURVE",
"156 124 CURVE SMOOTH",
"175 105 OFFCURVE",
"197 95 OFFCURVE",
"224 95 CURVE SMOOTH",
"251 95 OFFCURVE",
"274 105 OFFCURVE",
"293 124 CURVE SMOOTH",
"312 143 OFFCURVE",
"321 165 OFFCURVE",
"321 192 CURVE SMOOTH",
"321 219 OFFCURVE",
"312 242 OFFCURVE",
"293 261 CURVE SMOOTH",
"274 280 OFFCURVE",
"251 289 OFFCURVE",
"224 289 CURVE SMOOTH",
"197 289 OFFCURVE",
"175 280 OFFCURVE",
"156 261 CURVE SMOOTH"
);
},
{
closed = 1;
nodes = (
"184 170 OFFCURVE",
"180 180 OFFCURVE",
"180 192 CURVE SMOOTH",
"180 204 OFFCURVE",
"184 214 OFFCURVE",
"193 223 CURVE SMOOTH",
"202 232 OFFCURVE",
"212 236 OFFCURVE",
"224 236 CURVE SMOOTH",
"236 236 OFFCURVE",
"246 232 OFFCURVE",
"255 223 CURVE SMOOTH",
"264 214 OFFCURVE",
"268 204 OFFCURVE",
"268 192 CURVE SMOOTH",
"268 180 OFFCURVE",
"264 170 OFFCURVE",
"255 161 CURVE SMOOTH",
"246 152 OFFCURVE",
"236 148 OFFCURVE",
"224 148 CURVE SMOOTH",
"212 148 OFFCURVE",
"202 152 OFFCURVE",
"193 161 CURVE SMOOTH"
);
},
{
closed = 1;
nodes = (
"22 307 OFFCURVE",
"0 254 OFFCURVE",
"0 192 CURVE SMOOTH",
"0 130 OFFCURVE",
"22 77 OFFCURVE",
"66 34 CURVE SMOOTH",
"109 -10 OFFCURVE",
"162 -32 OFFCURVE",
"224 -32 CURVE SMOOTH",
"286 -32 OFFCURVE",
"339 -10 OFFCURVE",
"383 34 CURVE SMOOTH",
"426 77 OFFCURVE",
"448 130 OFFCURVE",
"448 192 CURVE SMOOTH",
"448 254 OFFCURVE",
"426 307 OFFCURVE",
"383 351 CURVE SMOOTH",
"339 394 OFFCURVE",
"286 416 OFFCURVE",
"224 416 CURVE SMOOTH",
"162 416 OFFCURVE",
"109 394 OFFCURVE",
"66 351 CURVE SMOOTH"
);
},
{
closed = 1;
nodes = (
"113 129 OFFCURVE",
"101 158 OFFCURVE",
"101 192 CURVE SMOOTH",
"101 226 OFFCURVE",
"113 255 OFFCURVE",
"137 279 CURVE SMOOTH",
"161 303 OFFCURVE",
"190 315 OFFCURVE",
"224 315 CURVE SMOOTH",
"258 315 OFFCURVE",
"287 303 OFFCURVE",
"311 279 CURVE SMOOTH",
"335 255 OFFCURVE",
"347 226 OFFCURVE",
"347 192 CURVE SMOOTH",
"347 158 OFFCURVE",
"335 129 OFFCURVE",
"311 105 CURVE SMOOTH",
"287 81 OFFCURVE",
"258 69 OFFCURVE",
"224 69 CURVE SMOOTH",
"190 69 OFFCURVE",
"161 81 OFFCURVE",
"137 105 CURVE SMOOTH"
);
}
);
width = 448;
}
);
note = uniF12D;
unicode = F12D;
},
{
export = 0;
glyphname = uniF12E;
lastChange = "2016-08-30 05:18:41 +0000";
layers = (
{
layerId = "7CC436F9-9F12-4208-AF2B-E4ABCB0FA991";
paths = (
{
closed = 1;
nodes = (
"199 377 LINE",
"197 379 OFFCURVE",
"195 381 OFFCURVE",
"192 382 CURVE",
"190 383 OFFCURVE",
"187 384 OFFCURVE",
"183 384 CURVE SMOOTH",
"23 384 LINE SMOOTH",
"17 384 OFFCURVE",
"12 382 OFFCURVE",
"7 377 CURVE SMOOTH",
"2 372 OFFCURVE",
"0 367 OFFCURVE",
"0 360 CURVE SMOOTH",
"0 24 LINE SMOOTH",
"0 17 OFFCURVE",
"2 12 OFFCURVE",
"7 7 CURVE SMOOTH",
"12 2 OFFCURVE",
"17 0 OFFCURVE",
"23 0 CURVE SMOOTH",
"266 0 LINE SMOOTH",
"272 0 OFFCURVE",
"277 2 OFFCURVE",
"282 7 CURVE",
"286 12 OFFCURVE",
"288 17 OFFCURVE",
"288 24 CURVE SMOOTH",
"288 269 LINE SMOOTH",
"288 272 OFFCURVE",
"287 275 OFFCURVE",
"286 279 CURVE",
"283 285 LINE"
);
},
{
closed = 1;
nodes = (
"48 271 OFFCURVE",
"49 272 OFFCURVE",
"51 272 CURVE SMOOTH",
"122 272 LINE SMOOTH",
"124 272 OFFCURVE",
"125 271 OFFCURVE",
"125 269 CURVE SMOOTH",
"125 259 LINE SMOOTH",
"125 257 OFFCURVE",
"124 256 OFFCURVE",
"122 256 CURVE SMOOTH",
"51 256 LINE SMOOTH",
"49 256 OFFCURVE",
"48 257 OFFCURVE",
"48 259 CURVE SMOOTH",
"48 269 LINE SMOOTH"
);
},
{
closed = 1;
nodes = (
"48 143 OFFCURVE",
"49 144 OFFCURVE",
"51 144 CURVE SMOOTH",
"174 144 LINE SMOOTH",
"175 144 OFFCURVE",
"176 143 OFFCURVE",
"176 141 CURVE SMOOTH",
"176 131 LINE SMOOTH",
"176 129 OFFCURVE",
"175 128 OFFCURVE",
"174 128 CURVE SMOOTH",
"51 128 LINE SMOOTH",
"49 128 OFFCURVE",
"48 129 OFFCURVE",
"48 131 CURVE SMOOTH",
"48 141 LINE SMOOTH"
);
},
{
closed = 1;
nodes = (
"208 65 OFFCURVE",
"207 64 OFFCURVE",
"206 64 CURVE SMOOTH",
"51 64 LINE SMOOTH",
"49 64 OFFCURVE",
"48 65 OFFCURVE",
"48 67 CURVE SMOOTH",
"48 77 LINE SMOOTH",
"48 79 OFFCURVE",
"49 80 OFFCURVE",
"51 80 CURVE SMOOTH",
"206 80 LINE SMOOTH",
"207 80 OFFCURVE",
"208 79 OFFCURVE",
"208 77 CURVE SMOOTH",
"208 67 LINE SMOOTH"
);
},
{
closed = 1;
nodes = (
"240 193 OFFCURVE",
"239 192 OFFCURVE",
"238 192 CURVE SMOOTH",
"51 192 LINE SMOOTH",
"49 192 OFFCURVE",
"48 193 OFFCURVE",
"48 195 CURVE SMOOTH",
"48 205 LINE SMOOTH",
"48 207 OFFCURVE",
"49 208 OFFCURVE",
"51 208 CURVE SMOOTH",
"238 208 LINE SMOOTH",
"239 208 OFFCURVE",
"240 207 OFFCURVE",
"240 205 CURVE SMOOTH",
"240 195 LINE SMOOTH"
);
},
{
closed = 1;
nodes = (
"186 270 OFFCURVE",
"182 274 OFFCURVE",
"182 282 CURVE SMOOTH",
"182 348 LINE",
"253 270 LINE",
"193 270 LINE SMOOTH"
);
}
);
width = 288;
}
);
note = uniF12E;
unicode = F12E;
},
{
export = 0;
glyphname = uniF12F;
lastChange = "2016-08-30 05:18:41 +0000";
layers = (
{
layerId = "7CC436F9-9F12-4208-AF2B-E4ABCB0FA991";
paths = (
{
closed = 1;
nodes = (
"286 282 OFFCURVE",
"285 284 OFFCURVE",
"283 286 CURVE",
"200 378 LINE",
"199 379 OFFCURVE",
"197 380 OFFCURVE",
"193 382 CURVE SMOOTH",
"191 383 OFFCURVE",
"188 384 OFFCURVE",
"184 384 CURVE SMOOTH",
"24 384 LINE SMOOTH",
"18 384 OFFCURVE",
"13 382 OFFCURVE",
"8 377 CURVE SMOOTH",
"3 372 OFFCURVE",
"0 367 OFFCURVE",
"0 361 CURVE SMOOTH",
"0 26 LINE SMOOTH",
"0 19 OFFCURVE",
"3 13 OFFCURVE",
"8 8 CURVE SMOOTH",
"13 3 OFFCURVE",
"18 0 OFFCURVE",
"24 0 CURVE SMOOTH",
"267 0 LINE SMOOTH",
"273 0 OFFCURVE",
"278 3 OFFCURVE",
"282 8 CURVE SMOOTH",
"286 13 OFFCURVE",
"288 19 OFFCURVE",
"288 26 CURVE SMOOTH",
"288 270 LINE SMOOTH",
"288 274 OFFCURVE",
"288 277 OFFCURVE",
"287 279 CURVE"
);
},
{
closed = 1;
nodes = (
"193 274 LINE",
"193 337 LINE",
"251 274 LINE"
);
},
{
closed = 1;
nodes = (
"161 352 LINE",
"161 270 LINE SMOOTH",
"161 263 OFFCURVE",
"164 256 OFFCURVE",
"170 251 CURVE",
"175 245 OFFCURVE",
"182 242 OFFCURVE",
"189 242 CURVE SMOOTH",
"256 242 LINE",
"256 32 LINE",
"32 32 LINE",
"32 352 LINE"
);
}
);
width = 288;
}
);
note = uniF12F;
unicode = F12F;
},
{
export = 0;
glyphname = uniF130;
lastChange = "2016-08-30 05:18:41 +0000";
layers = (
{
layerId = "7CC436F9-9F12-4208-AF2B-E4ABCB0FA991";
paths = (
{
closed = 1;
nodes = (
"512 304 LINE",
"0 304 LINE",
"0 272 LINE",
"512 272 LINE"
);
},
{
closed = 1;
nodes = (
"512 208 LINE",
"0 208 LINE",
"0 176 LINE",
"512 176 LINE"
);
},
{
closed = 1;
nodes = (
"512 112 LINE",
"0 112 LINE",
"0 80 LINE",
"512 80 LINE"
);
}
);
width = 512;
}
);
note = uniF130;
unicode = F130;
},
{
export = 0;
glyphname = uniF131;
lastChange = "2016-08-30 05:18:41 +0000";
layers = (
{
layerId = "7CC436F9-9F12-4208-AF2B-E4ABCB0FA991";
paths = (
{
closed = 1;
nodes = (
"314 128 OFFCURVE",
"320 133 OFFCURVE",
"320 144 CURVE SMOOTH",
"320 147 OFFCURVE",
"319 150 OFFCURVE",
"317 153 CURVE",
"179 343 LINE",
"173 349 OFFCURVE",
"167 352 OFFCURVE",
"160 352 CURVE SMOOTH",
"153 352 OFFCURVE",
"147 349 OFFCURVE",
"141 343 CURVE",
"3 152 LINE",
"1 149 OFFCURVE",
"0 147 OFFCURVE",
"0 144 CURVE SMOOTH",
"0 133 OFFCURVE",
"6 128 OFFCURVE",
"17 128 CURVE SMOOTH",
"303 128 LINE SMOOTH"
);
},
{
closed = 1;
nodes = (
"4 96 OFFCURVE",
"0 92 OFFCURVE",
"0 84 CURVE SMOOTH",
"0 44 LINE SMOOTH",
"0 36 OFFCURVE",
"4 32 OFFCURVE",
"12 32 CURVE SMOOTH",
"308 32 LINE SMOOTH",
"316 32 OFFCURVE",
"320 36 OFFCURVE",
"320 44 CURVE SMOOTH",
"320 84 LINE SMOOTH",
"320 92 OFFCURVE",
"316 96 OFFCURVE",
"308 96 CURVE SMOOTH",
"12 96 LINE SMOOTH"
);
}
);
width = 320;
}
);
note = uniF131;
unicode = F131;
},
{
export = 0;
glyphname = uniF132;
lastChange = "2016-08-30 05:18:41 +0000";
layers = (
{
layerId = "7CC436F9-9F12-4208-AF2B-E4ABCB0FA991";
paths = (
{
closed = 1;
nodes = (
"129 239 OFFCURVE",
"185 208 OFFCURVE",
"188 207 CURVE",
"193 204 OFFCURVE",
"200 203 OFFCURVE",
"209 203 CURVE SMOOTH",
"218 203 OFFCURVE",
"225 204 OFFCURVE",
"230 207 CURVE",
"233 208 OFFCURVE",
"289 239 OFFCURVE",
"399 299 CURVE",
"406 302 OFFCURVE",
"410 306 OFFCURVE",
"412 310 CURVE",
"413 314 OFFCURVE",
"413 317 OFFCURVE",
"412 318 CURVE",
"410 319 OFFCURVE",
"406 320 OFFCURVE",
"400 320 CURVE SMOOTH",
"209 320 LINE",
"18 320 LINE SMOOTH",
"12 320 OFFCURVE",
"8 319 OFFCURVE",
"7 318 CURVE",
"5 317 OFFCURVE",
"5 314 OFFCURVE",
"6 310 CURVE",
"8 306 OFFCURVE",
"12 302 OFFCURVE",
"19 299 CURVE"
);
},
{
closed = 1;
nodes = (
"406 294 OFFCURVE",
"398 288 OFFCURVE",
"383 279 CURVE",
"368 269 OFFCURVE",
"350 257 OFFCURVE",
"329 242 CURVE SMOOTH",
"308 227 OFFCURVE",
"290 216 OFFCURVE",
"277 207 CURVE",
"359 114 LINE",
"361 111 OFFCURVE",
"362 110 OFFCURVE",
"361 109 CURVE SMOOTH",
"360 108 OFFCURVE",
"359 108 OFFCURVE",
"358 109 CURVE",
"357 109 OFFCURVE",
"356 109 OFFCURVE",
"355 110 CURVE",
"257 193 LINE",
"243 184 OFFCURVE",
"234 178 OFFCURVE",
"230 176 CURVE",
"225 173 OFFCURVE",
"218 172 OFFCURVE",
"209 172 CURVE SMOOTH",
"200 172 OFFCURVE",
"193 173 OFFCURVE",
"188 176 CURVE",
"184 178 OFFCURVE",
"175 184 OFFCURVE",
"161 193 CURVE",
"63 110 LINE",
"62 109 OFFCURVE",
"61 109 OFFCURVE",
"60 109 CURVE",
"59 108 OFFCURVE",
"58 108 OFFCURVE",
"57 109 CURVE SMOOTH",
"56 110 OFFCURVE",
"56 112 OFFCURVE",
"58 114 CURVE",
"141 207 LINE",
"128 216 OFFCURVE",
"110 227 OFFCURVE",
"89 242 CURVE SMOOTH",
"67 257 OFFCURVE",
"49 269 OFFCURVE",
"34 279 CURVE",
"19 288 OFFCURVE",
"11 294 OFFCURVE",
"9 295 CURVE SMOOTH",
"3 298 OFFCURVE",
"0 296 OFFCURVE",
"0 290 CURVE SMOOTH",
"0 85 LINE SMOOTH",
"0 80 OFFCURVE",
"3 76 OFFCURVE",
"8 71 CURVE SMOOTH",
"13 66 OFFCURVE",
"19 64 OFFCURVE",
"24 64 CURVE SMOOTH",
"209 64 LINE",
"394 64 LINE SMOOTH",
"399 64 OFFCURVE",
"404 66 OFFCURVE",
"409 71 CURVE SMOOTH",
"414 76 OFFCURVE",
"416 80 OFFCURVE",
"416 85 CURVE SMOOTH",
"416 290 LINE SMOOTH",
"416 293 OFFCURVE",
"416 295 OFFCURVE",
"416 296 CURVE",
"415 296 OFFCURVE",
"413 296 OFFCURVE",
"408 295 CURVE"
);
}
);
width = 416;
}
);
note = uniF132;
unicode = F132;
},
{
glyphname = uniF133;
lastChange = "2016-08-30 05:24:16 +0000";
layers = (
{
layerId = "7CC436F9-9F12-4208-AF2B-E4ABCB0FA991";
paths = (
{
closed = 1;
nodes = (
"185 320 OFFCURVE",
"149 310 OFFCURVE",
"116 289 CURVE SMOOTH",
"82 268 OFFCURVE",
"43 235 OFFCURVE",
"0 192 CURVE",
"23 169 OFFCURVE",
"40 152 OFFCURVE",
"51 142 CURVE",
"62 131 OFFCURVE",
"78 119 OFFCURVE",
"98 104 CURVE SMOOTH",
"118 89 OFFCURVE",
"138 79 OFFCURVE",
"158 73 CURVE SMOOTH",
"178 67 OFFCURVE",
"200 64 OFFCURVE",
"224 64 CURVE SMOOTH",
"243 64 OFFCURVE",
"263 67 OFFCURVE",
"283 74 CURVE SMOOTH",
"302 81 OFFCURVE",
"318 87 OFFCURVE",
"330 93 CURVE SMOOTH",
"342 99 OFFCURVE",
"358 110 OFFCURVE",
"377 126 CURVE SMOOTH",
"396 142 OFFCURVE",
"409 152 OFFCURVE",
"414 157 CURVE SMOOTH",
"419 162 OFFCURVE",
"430 173 OFFCURVE",
"448 191 CURVE",
"372 277 OFFCURVE",
"297 320 OFFCURVE",
"224 320 CURVE SMOOTH"
);
},
{
closed = 1;
nodes = (
"143 146 OFFCURVE",
"134 167 OFFCURVE",
"134 192 CURVE SMOOTH",
"134 217 OFFCURVE",
"143 238 OFFCURVE",
"161 256 CURVE SMOOTH",
"178 274 OFFCURVE",
"199 283 OFFCURVE",
"224 283 CURVE SMOOTH",
"249 283 OFFCURVE",
"270 274 OFFCURVE",
"288 256 CURVE SMOOTH",
"305 238 OFFCURVE",
"314 217 OFFCURVE",
"314 192 CURVE SMOOTH",
"314 167 OFFCURVE",
"305 146 OFFCURVE",
"288 128 CURVE SMOOTH",
"270 110 OFFCURVE",
"249 101 OFFCURVE",
"224 101 CURVE SMOOTH",
"199 101 OFFCURVE",
"178 110 OFFCURVE",
"161 128 CURVE SMOOTH"
);
},
{
closed = 1;
nodes = (
"224 231 OFFCURVE",
"227 238 OFFCURVE",
"232 245 CURVE",
"224 245 LINE SMOOTH",
"209 245 OFFCURVE",
"197 240 OFFCURVE",
"187 230 CURVE",
"177 219 OFFCURVE",
"172 207 OFFCURVE",
"172 192 CURVE SMOOTH",
"172 177 OFFCURVE",
"177 165 OFFCURVE",
"187 155 CURVE",
"197 144 OFFCURVE",
"209 139 OFFCURVE",
"224 139 CURVE SMOOTH",
"239 139 OFFCURVE",
"251 144 OFFCURVE",
"261 155 CURVE",
"271 165 OFFCURVE",
"276 177 OFFCURVE",
"276 192 CURVE SMOOTH",
"276 199 LINE",
"269 194 OFFCURVE",
"263 192 OFFCURVE",
"256 192 CURVE SMOOTH",
"247 192 OFFCURVE",
"239 195 OFFCURVE",
"233 201 CURVE SMOOTH",
"227 207 OFFCURVE",
"224 215 OFFCURVE",
"224 224 CURVE SMOOTH"
);
}
);
width = 448;
}
);
note = uniF133;
unicode = F133;
},
{
export = 0;
glyphname = uniF134;
lastChange = "2016-08-30 05:18:41 +0000";
layers = (
{
layerId = "7CC436F9-9F12-4208-AF2B-E4ABCB0FA991";
paths = (
{
closed = 1;
nodes = (
"61 319 OFFCURVE",
"56 318 OFFCURVE",
"53 316 CURVE SMOOTH",
"50 314 OFFCURVE",
"48 308 OFFCURVE",
"48 299 CURVE SMOOTH",
"48 271 LINE",
"336 271 LINE",
"336 299 LINE SMOOTH",
"336 306 OFFCURVE",
"335 311 OFFCURVE",
"334 314 CURVE",
"332 317 OFFCURVE",
"330 318 OFFCURVE",
"328 319 CURVE",
"325 319 OFFCURVE",
"322 319 OFFCURVE",
"317 319 CURVE SMOOTH",
"68 319 LINE SMOOTH"
);
},
{
closed = 1;
nodes = (
"111 352 OFFCURVE",
"107 352 OFFCURVE",
"105 351 CURVE",
"102 350 OFFCURVE",
"100 349 OFFCURVE",
"99 346 CURVE",
"97 343 OFFCURVE",
"96 339 OFFCURVE",
"96 333 CURVE",
"288 333 LINE",
"288 342 OFFCURVE",
"287 347 OFFCURVE",
"284 349 CURVE SMOOTH",
"281 351 OFFCURVE",
"276 352 OFFCURVE",
"269 352 CURVE SMOOTH",
"116 352 LINE SMOOTH"
);
},
{
closed = 1;
nodes = (
"352 256 LINE",
"31 256 LINE",
"31 288 LINE",
"16 278 LINE SMOOTH",
"9 273 OFFCURVE",
"4 269 OFFCURVE",
"2 264 CURVE SMOOTH",
"0 259 OFFCURVE",
"0 251 OFFCURVE",
"1 238 CURVE SMOOTH",
"18 53 LINE",
"21 39 OFFCURVE",
"29 32 OFFCURVE",
"42 32 CURVE SMOOTH",
"342 32 LINE SMOOTH",
"355 32 OFFCURVE",
"363 39 OFFCURVE",
"366 53 CURVE",
"383 237 LINE SMOOTH",
"385 257 OFFCURVE",
"380 271 OFFCURVE",
"368 278 CURVE SMOOTH",
"352 288 LINE"
);
}
);
width = 384;
}
);
note = uniF134;
unicode = F134;
},
{
export = 0;
glyphname = uniF135;
lastChange = "2016-08-30 05:18:41 +0000";
layers = (
{
layerId = "7CC436F9-9F12-4208-AF2B-E4ABCB0FA991";
paths = (
{
closed = 1;
nodes = (
"398 308 LINE",
"409 311 OFFCURVE",
"413 317 OFFCURVE",
"410 326 CURVE",
"401 372 LINE",
"398 383 OFFCURVE",
"392 387 OFFCURVE",
"383 384 CURVE",
"13 310 LINE",
"2 307 OFFCURVE",
"-2 301 OFFCURVE",
"0 292 CURVE SMOOTH",
"9 247 LINE",
"10 244 OFFCURVE",
"11 241 OFFCURVE",
"13 240 CURVE",
"4 239 OFFCURVE",
"0 234 OFFCURVE",
"0 225 CURVE SMOOTH",
"0 15 LINE SMOOTH",
"0 11 OFFCURVE",
"2 8 OFFCURVE",
"5 5 CURVE SMOOTH",
"8 2 OFFCURVE",
"11 0 OFFCURVE",
"16 0 CURVE SMOOTH",
"400 0 LINE SMOOTH",
"405 0 OFFCURVE",
"409 2 OFFCURVE",
"412 5 CURVE SMOOTH",
"415 8 OFFCURVE",
"416 11 OFFCURVE",
"416 15 CURVE SMOOTH",
"416 225 LINE SMOOTH",
"416 229 OFFCURVE",
"415 233 OFFCURVE",
"412 236 CURVE SMOOTH",
"409 239 OFFCURVE",
"405 240 OFFCURVE",
"400 240 CURVE SMOOTH",
"56 240 LINE"
);
},
{
closed = 1;
nodes = (
"156 46 LINE",
"175 104 LINE",
"124 140 LINE",
"187 140 LINE",
"206 198 LINE",
"226 140 LINE",
"288 140 LINE",
"237 104 LINE",
"257 46 LINE",
"206 82 LINE"
);
}
);
width = 416;
}
);
note = uniF135;
unicode = F135;
},
{
export = 0;
glyphname = uniF136;
lastChange = "2016-08-30 05:18:41 +0000";
layers = (
{
layerId = "7CC436F9-9F12-4208-AF2B-E4ABCB0FA991";
paths = (
{
closed = 1;
nodes = (
"123 -9 OFFCURVE",
"135 -14 OFFCURVE",
"151 -19 CURVE",
"152 -20 OFFCURVE",
"153 -20 OFFCURVE",
"154 -20 CURVE SMOOTH",
"155 -20 OFFCURVE",
"155 -20 OFFCURVE",
"156 -21 CURVE",
"178 -28 OFFCURVE",
"201 -32 OFFCURVE",
"224 -32 CURVE SMOOTH",
"286 -32 OFFCURVE",
"339 -10 OFFCURVE",
"383 34 CURVE SMOOTH",
"426 77 OFFCURVE",
"448 130 OFFCURVE",
"448 192 CURVE SMOOTH",
"448 233 OFFCURVE",
"438 272 OFFCURVE",
"417 307 CURVE SMOOTH",
"396 342 OFFCURVE",
"367 369 OFFCURVE",
"332 388 CURVE SMOOTH",
"321 394 OFFCURVE",
"310 399 OFFCURVE",
"297 403 CURVE",
"296 404 OFFCURVE",
"296 404 OFFCURVE",
"295 404 CURVE SMOOTH",
"294 404 OFFCURVE",
"293 404 OFFCURVE",
"292 405 CURVE",
"270 412 OFFCURVE",
"247 416 OFFCURVE",
"224 416 CURVE SMOOTH",
"162 416 OFFCURVE",
"109 394 OFFCURVE",
"66 351 CURVE SMOOTH",
"22 307 OFFCURVE",
"0 254 OFFCURVE",
"0 192 CURVE SMOOTH",
"0 151 OFFCURVE",
"11 113 OFFCURVE",
"32 78 CURVE SMOOTH",
"53 43 OFFCURVE",
"80 15 OFFCURVE",
"115 -4 CURVE",
"116 -5 LINE"
);
},
{
closed = 1;
nodes = (
"177 278 LINE",
"124 330 LINE",
"154 351 OFFCURVE",
"187 362 OFFCURVE",
"224 362 CURVE SMOOTH",
"236 362 OFFCURVE",
"245 361 OFFCURVE",
"251 360 CURVE",
"264 357 OFFCURVE",
"274 355 OFFCURVE",
"280 353 CURVE",
"281 352 OFFCURVE",
"282 352 OFFCURVE",
"283 352 CURVE SMOOTH",
"284 352 OFFCURVE",
"284 352 OFFCURVE",
"285 351 CURVE",
"289 350 OFFCURVE",
"295 347 OFFCURVE",
"303 343 CURVE SMOOTH",
"330 329 OFFCURVE",
"352 309 OFFCURVE",
"369 282 CURVE SMOOTH",
"386 255 OFFCURVE",
"394 225 OFFCURVE",
"394 192 CURVE SMOOTH",
"394 156 OFFCURVE",
"383 123 OFFCURVE",
"362 93 CURVE",
"307 147 LINE",
"271 107 LINE",
"323 54 LINE",
"293 33 OFFCURVE",
"260 22 OFFCURVE",
"224 22 CURVE SMOOTH",
"212 22 OFFCURVE",
"203 23 OFFCURVE",
"197 24 CURVE",
"184 27 OFFCURVE",
"174 29 OFFCURVE",
"168 31 CURVE",
"167 32 OFFCURVE",
"167 32 OFFCURVE",
"166 32 CURVE SMOOTH",
"165 32 OFFCURVE",
"164 32 OFFCURVE",
"163 33 CURVE",
"161 34 OFFCURVE",
"155 37 OFFCURVE",
"144 42 CURVE",
"117 57 OFFCURVE",
"95 77 OFFCURVE",
"79 104 CURVE SMOOTH",
"62 131 OFFCURVE",
"54 160 OFFCURVE",
"54 192 CURVE SMOOTH",
"54 228 OFFCURVE",
"65 261 OFFCURVE",
"86 291 CURVE",
"141 237 LINE"
);
},
{
closed = 1;
nodes = (
"232 213 LINE",
"270 326 LINE",
"131 171 LINE",
"216 171 LINE",
"178 58 LINE",
"317 213 LINE"
);
}
);
width = 448;
}
);
note = uniF136;
unicode = F136;
},
{
export = 0;
glyphname = uniF137;
lastChange = "2016-08-30 05:18:41 +0000";
layers = (
{
layerId = "7CC436F9-9F12-4208-AF2B-E4ABCB0FA991";
paths = (
{
closed = 1;
nodes = (
"96 -32 LINE",
"320 224 LINE",
"173 224 LINE",
"224 416 LINE",
"0 160 LINE",
"147 160 LINE"
);
}
);
width = 320;
}
);
note = uniF137;
unicode = F137;
},
{
export = 0;
glyphname = uniF139;
lastChange = "2016-08-30 05:18:41 +0000";
layers = (
{
layerId = "7CC436F9-9F12-4208-AF2B-E4ABCB0FA991";
paths = (
{
closed = 1;
nodes = (
"5 256 OFFCURVE",
"-1 249 OFFCURVE",
"0 236 CURVE SMOOTH",
"13 52 LINE",
"14 45 OFFCURVE",
"15 40 OFFCURVE",
"18 37 CURVE SMOOTH",
"21 34 OFFCURVE",
"26 32 OFFCURVE",
"34 32 CURVE SMOOTH",
"351 32 LINE SMOOTH",
"356 32 OFFCURVE",
"361 33 OFFCURVE",
"364 35 CURVE SMOOTH",
"367 37 OFFCURVE",
"369 39 OFFCURVE",
"370 42 CURVE",
"371 44 OFFCURVE",
"371 47 OFFCURVE",
"372 52 CURVE",
"384 238 LINE",
"385 245 OFFCURVE",
"384 249 OFFCURVE",
"382 252 CURVE",
"379 255 OFFCURVE",
"374 256 OFFCURVE",
"366 256 CURVE SMOOTH",
"18 256 LINE SMOOTH"
);
},
{
closed = 1;
nodes = (
"362 315 OFFCURVE",
"357 320 OFFCURVE",
"347 320 CURVE SMOOTH",
"204 320 LINE SMOOTH",
"192 320 OFFCURVE",
"184 321 OFFCURVE",
"180 322 CURVE SMOOTH",
"176 323 OFFCURVE",
"170 328 OFFCURVE",
"163 337 CURVE",
"156 345 OFFCURVE",
"151 350 OFFCURVE",
"149 351 CURVE SMOOTH",
"147 352 OFFCURVE",
"139 352 OFFCURVE",
"126 352 CURVE SMOOTH",
"51 352 LINE SMOOTH",
"44 352 OFFCURVE",
"39 352 OFFCURVE",
"37 352 CURVE",
"34 351 OFFCURVE",
"32 350 OFFCURVE",
"30 348 CURVE",
"28 345 OFFCURVE",
"27 341 OFFCURVE",
"26 335 CURVE",
"22 301 OFFCURVE",
"20 280 OFFCURVE",
"20 272 CURVE",
"364 272 LINE",
"362 305 LINE"
);
}
);
width = 384;
}
);
note = uniF139;
unicode = F139;
},
{
export = 0;
glyphname = uniF13A;
lastChange = "2016-08-30 05:18:41 +0000";
layers = (
{
layerId = "7CC436F9-9F12-4208-AF2B-E4ABCB0FA991";
paths = (
{
closed = 1;
nodes = (
"384 192 LINE",
"224 336 LINE",
"224 256 LINE",
"189 256 OFFCURVE",
"158 249 OFFCURVE",
"130 234 CURVE SMOOTH",
"101 219 OFFCURVE",
"80 202 OFFCURVE",
"65 184 CURVE SMOOTH",
"50 165 OFFCURVE",
"37 144 OFFCURVE",
"26 121 CURVE SMOOTH",
"15 97 OFFCURVE",
"8 80 OFFCURVE",
"6 71 CURVE",
"3 61 OFFCURVE",
"1 53 OFFCURVE",
"0 48 CURVE",
"25 91 OFFCURVE",
"54 118 OFFCURVE",
"87 131 CURVE SMOOTH",
"120 144 OFFCURVE",
"165 150 OFFCURVE",
"224 150 CURVE",
"224 58 LINE"
);
}
);
width = 384;
}
);
note = uniF13A;
unicode = F13A;
},
{
export = 0;
glyphname = uniF13D;
lastChange = "2016-08-30 05:18:41 +0000";
layers = (
{
layerId = "7CC436F9-9F12-4208-AF2B-E4ABCB0FA991";
paths = (
{
closed = 1;
nodes = (
"359 151 OFFCURVE",
"347 169 OFFCURVE",
"347 192 CURVE SMOOTH",
"347 215 OFFCURVE",
"359 233 OFFCURVE",
"384 248 CURVE",
"381 259 OFFCURVE",
"375 271 OFFCURVE",
"368 286 CURVE",
"345 281 OFFCURVE",
"325 287 OFFCURVE",
"306 306 CURVE SMOOTH",
"290 322 OFFCURVE",
"285 343 OFFCURVE",
"291 368 CURVE",
"277 375 OFFCURVE",
"264 380 OFFCURVE",
"252 384 CURVE",
"237 359 OFFCURVE",
"217 347 OFFCURVE",
"192 347 CURVE SMOOTH",
"167 347 OFFCURVE",
"147 359 OFFCURVE",
"132 384 CURVE",
"120 380 OFFCURVE",
"107 375 OFFCURVE",
"93 368 CURVE",
"99 343 OFFCURVE",
"94 322 OFFCURVE",
"78 306 CURVE SMOOTH",
"59 287 OFFCURVE",
"39 281 OFFCURVE",
"16 286 CURVE",
"10 275 OFFCURVE",
"5 263 OFFCURVE",
"0 248 CURVE",
"25 233 OFFCURVE",
"37 215 OFFCURVE",
"37 192 CURVE SMOOTH",
"37 167 OFFCURVE",
"25 147 OFFCURVE",
"0 132 CURVE",
"4 120 OFFCURVE",
"9 107 OFFCURVE",
"16 93 CURVE",
"41 99 OFFCURVE",
"62 94 OFFCURVE",
"78 78 CURVE SMOOTH",
"94 62 OFFCURVE",
"99 41 OFFCURVE",
"93 16 CURVE",
"107 9 OFFCURVE",
"120 4 OFFCURVE",
"132 0 CURVE",
"147 25 OFFCURVE",
"167 37 OFFCURVE",
"192 37 CURVE SMOOTH",
"217 37 OFFCURVE",
"237 25 OFFCURVE",
"252 0 CURVE",
"263 3 OFFCURVE",
"275 9 OFFCURVE",
"290 16 CURVE",
"284 41 OFFCURVE",
"289 61 OFFCURVE",
"306 78 CURVE SMOOTH",
"325 97 OFFCURVE",
"345 103 OFFCURVE",
"368 98 CURVE",
"375 113 OFFCURVE",
"381 125 OFFCURVE",
"384 136 CURVE"
);
},
{
closed = 1;
nodes = (
"104 142 OFFCURVE",
"94 165 OFFCURVE",
"94 192 CURVE SMOOTH",
"94 219 OFFCURVE",
"104 242 OFFCURVE",
"123 261 CURVE SMOOTH",
"142 280 OFFCURVE",
"165 290 OFFCURVE",
"192 290 CURVE SMOOTH",
"219 290 OFFCURVE",
"242 280 OFFCURVE",
"261 261 CURVE SMOOTH",
"280 242 OFFCURVE",
"290 219 OFFCURVE",
"290 192 CURVE SMOOTH",
"290 165 OFFCURVE",
"280 142 OFFCURVE",
"261 123 CURVE SMOOTH",
"242 104 OFFCURVE",
"219 94 OFFCURVE",
"192 94 CURVE SMOOTH",
"165 94 OFFCURVE",
"142 104 OFFCURVE",
"123 123 CURVE SMOOTH"
);
}
);
width = 384;
}
);
note = uniF13D;
unicode = F13D;
},
{
export = 0;
glyphname = uniF13E;
lastChange = "2016-08-30 05:18:41 +0000";
layers = (
{
layerId = "7CC436F9-9F12-4208-AF2B-E4ABCB0FA991";
paths = (
{
closed = 1;
nodes = (
"341 230 LINE",
"338 244 OFFCURVE",
"332 258 OFFCURVE",
"325 271 CURVE",
"355 301 LINE",
"301 355 LINE",
"272 326 LINE",
"261 333 OFFCURVE",
"247 338 OFFCURVE",
"230 343 CURVE",
"230 384 LINE",
"154 384 LINE",
"154 343 LINE",
"137 338 OFFCURVE",
"123 333 OFFCURVE",
"112 326 CURVE",
"83 355 LINE",
"29 301 LINE",
"59 271 LINE",
"54 262 OFFCURVE",
"48 248 OFFCURVE",
"43 230 CURVE",
"0 230 LINE",
"0 154 LINE",
"44 154 LINE",
"48 141 OFFCURVE",
"54 128 OFFCURVE",
"61 115 CURVE",
"29 83 LINE",
"83 29 LINE",
"116 61 LINE",
"124 56 OFFCURVE",
"137 51 OFFCURVE",
"154 46 CURVE",
"154 0 LINE",
"230 0 LINE",
"230 46 LINE",
"246 51 OFFCURVE",
"259 56 OFFCURVE",
"268 61 CURVE",
"301 29 LINE",
"355 83 LINE",
"323 115 LINE",
"330 128 OFFCURVE",
"336 141 OFFCURVE",
"340 154 CURVE",
"384 154 LINE",
"384 230 LINE"
);
},
{
closed = 1;
nodes = (
"143 165 OFFCURVE",
"138 177 OFFCURVE",
"138 192 CURVE SMOOTH",
"138 207 OFFCURVE",
"143 219 OFFCURVE",
"154 230 CURVE SMOOTH",
"165 241 OFFCURVE",
"177 246 OFFCURVE",
"192 246 CURVE SMOOTH",
"207 246 OFFCURVE",
"219 241 OFFCURVE",
"230 230 CURVE SMOOTH",
"241 219 OFFCURVE",
"246 207 OFFCURVE",
"246 192 CURVE SMOOTH",
"246 177 OFFCURVE",
"241 165 OFFCURVE",
"230 154 CURVE SMOOTH",
"219 143 OFFCURVE",
"207 138 OFFCURVE",
"192 138 CURVE SMOOTH",
"177 138 OFFCURVE",
"165 143 OFFCURVE",
"154 154 CURVE SMOOTH"
);
}
);
width = 384;
}
);
note = uniF13E;
unicode = F13E;
},
{
export = 0;
glyphname = uniF13F;
lastChange = "2016-08-30 05:18:41 +0000";
layers = (
{
layerId = "7CC436F9-9F12-4208-AF2B-E4ABCB0FA991";
paths = (
{
closed = 1;
nodes = (
"64 350 OFFCURVE",
"62 352 OFFCURVE",
"57 352 CURVE SMOOTH",
"7 352 LINE SMOOTH",
"2 352 OFFCURVE",
"0 350 OFFCURVE",
"0 345 CURVE SMOOTH",
"0 295 LINE SMOOTH",
"0 290 OFFCURVE",
"2 288 OFFCURVE",
"7 288 CURVE SMOOTH",
"57 288 LINE SMOOTH",
"62 288 OFFCURVE",
"64 290 OFFCURVE",
"64 295 CURVE SMOOTH",
"64 345 LINE SMOOTH"
);
},
{
closed = 1;
nodes = (
"192 350 OFFCURVE",
"190 352 OFFCURVE",
"185 352 CURVE SMOOTH",
"135 352 LINE SMOOTH",
"130 352 OFFCURVE",
"128 350 OFFCURVE",
"128 345 CURVE SMOOTH",
"128 295 LINE SMOOTH",
"128 290 OFFCURVE",
"130 288 OFFCURVE",
"135 288 CURVE SMOOTH",
"185 288 LINE SMOOTH",
"190 288 OFFCURVE",
"192 290 OFFCURVE",
"192 295 CURVE SMOOTH",
"192 345 LINE SMOOTH"
);
},
{
closed = 1;
nodes = (
"320 350 OFFCURVE",
"318 352 OFFCURVE",
"313 352 CURVE SMOOTH",
"263 352 LINE SMOOTH",
"258 352 OFFCURVE",
"256 350 OFFCURVE",
"256 345 CURVE SMOOTH",
"256 295 LINE SMOOTH",
"256 290 OFFCURVE",
"258 288 OFFCURVE",
"263 288 CURVE SMOOTH",
"313 288 LINE SMOOTH",
"318 288 OFFCURVE",
"320 290 OFFCURVE",
"320 295 CURVE SMOOTH",
"320 345 LINE SMOOTH"
);
},
{
closed = 1;
nodes = (
"64 222 OFFCURVE",
"62 224 OFFCURVE",
"57 224 CURVE SMOOTH",
"7 224 LINE SMOOTH",
"2 224 OFFCURVE",
"0 222 OFFCURVE",
"0 217 CURVE SMOOTH",
"0 167 LINE SMOOTH",
"0 162 OFFCURVE",
"2 160 OFFCURVE",
"7 160 CURVE SMOOTH",
"57 160 LINE SMOOTH",
"62 160 OFFCURVE",
"64 162 OFFCURVE",
"64 167 CURVE SMOOTH",
"64 217 LINE SMOOTH"
);
},
{
closed = 1;
nodes = (
"192 222 OFFCURVE",
"190 224 OFFCURVE",
"185 224 CURVE SMOOTH",
"135 224 LINE SMOOTH",
"130 224 OFFCURVE",
"128 222 OFFCURVE",
"128 217 CURVE SMOOTH",
"128 167 LINE SMOOTH",
"128 162 OFFCURVE",
"130 160 OFFCURVE",
"135 160 CURVE SMOOTH",
"185 160 LINE SMOOTH",
"190 160 OFFCURVE",
"192 162 OFFCURVE",
"192 167 CURVE SMOOTH",
"192 217 LINE SMOOTH"
);
},
{
closed = 1;
nodes = (
"320 222 OFFCURVE",
"318 224 OFFCURVE",
"313 224 CURVE SMOOTH",
"263 224 LINE SMOOTH",
"258 224 OFFCURVE",
"256 222 OFFCURVE",
"256 217 CURVE SMOOTH",
"256 167 LINE SMOOTH",
"256 162 OFFCURVE",
"258 160 OFFCURVE",
"263 160 CURVE SMOOTH",
"313 160 LINE SMOOTH",
"318 160 OFFCURVE",
"320 162 OFFCURVE",
"320 167 CURVE SMOOTH",
"320 217 LINE SMOOTH"
);
},
{
closed = 1;
nodes = (
"64 94 OFFCURVE",
"62 96 OFFCURVE",
"57 96 CURVE SMOOTH",
"7 96 LINE SMOOTH",
"2 96 OFFCURVE",
"0 94 OFFCURVE",
"0 89 CURVE SMOOTH",
"0 39 LINE SMOOTH",
"0 34 OFFCURVE",
"2 32 OFFCURVE",
"7 32 CURVE SMOOTH",
"57 32 LINE SMOOTH",
"62 32 OFFCURVE",
"64 34 OFFCURVE",
"64 39 CURVE SMOOTH",
"64 89 LINE SMOOTH"
);
},
{
closed = 1;
nodes = (
"192 94 OFFCURVE",
"190 96 OFFCURVE",
"185 96 CURVE SMOOTH",
"135 96 LINE SMOOTH",
"130 96 OFFCURVE",
"128 94 OFFCURVE",
"128 89 CURVE SMOOTH",
"128 39 LINE SMOOTH",
"128 34 OFFCURVE",
"130 32 OFFCURVE",
"135 32 CURVE SMOOTH",
"185 32 LINE SMOOTH",
"190 32 OFFCURVE",
"192 34 OFFCURVE",
"192 39 CURVE SMOOTH",
"192 89 LINE SMOOTH"
);
},
{
closed = 1;
nodes = (
"320 94 OFFCURVE",
"318 96 OFFCURVE",
"313 96 CURVE SMOOTH",
"263 96 LINE SMOOTH",
"258 96 OFFCURVE",
"256 94 OFFCURVE",
"256 89 CURVE SMOOTH",
"256 39 LINE SMOOTH",
"256 34 OFFCURVE",
"258 32 OFFCURVE",
"263 32 CURVE SMOOTH",
"313 32 LINE SMOOTH",
"318 32 OFFCURVE",
"320 34 OFFCURVE",
"320 39 CURVE SMOOTH",
"320 89 LINE SMOOTH"
);
}
);
width = 320;
}
);
note = uniF13F;
unicode = F13F;
},
{
export = 0;
glyphname = uniF140;
lastChange = "2016-08-30 05:18:41 +0000";
layers = (
{
layerId = "7CC436F9-9F12-4208-AF2B-E4ABCB0FA991";
paths = (
{
closed = 1;
nodes = (
"380 269 OFFCURVE",
"362 318 OFFCURVE",
"327 355 CURVE SMOOTH",
"316 366 OFFCURVE",
"308 373 OFFCURVE",
"302 378 CURVE SMOOTH",
"293 385 OFFCURVE",
"283 391 OFFCURVE",
"274 396 CURVE SMOOTH",
"249 409 OFFCURVE",
"221 416 OFFCURVE",
"192 416 CURVE SMOOTH",
"163 416 OFFCURVE",
"135 409 OFFCURVE",
"110 396 CURVE",
"99 391 OFFCURVE",
"90 385 OFFCURVE",
"81 378 CURVE",
"78 376 OFFCURVE",
"70 368 OFFCURVE",
"57 355 CURVE SMOOTH",
"22 318 OFFCURVE",
"4 269 OFFCURVE",
"1 210 CURVE SMOOTH",
"0 184 OFFCURVE",
"0 155 OFFCURVE",
"3 122 CURVE SMOOTH",
"6 89 OFFCURVE",
"9 64 OFFCURVE",
"14 48 CURVE SMOOTH",
"23 16 OFFCURVE",
"33 -5 OFFCURVE",
"44 -16 CURVE SMOOTH",
"55 -27 OFFCURVE",
"69 -32 OFFCURVE",
"86 -32 CURVE SMOOTH",
"102 -32 OFFCURVE",
"116 -26 OFFCURVE",
"127 -14 CURVE",
"138 -3 OFFCURVE",
"144 11 OFFCURVE",
"144 27 CURVE SMOOTH",
"144 133 LINE SMOOTH",
"144 149 OFFCURVE",
"139 163 OFFCURVE",
"129 175 CURVE",
"118 186 OFFCURVE",
"106 192 OFFCURVE",
"91 192 CURVE SMOOTH",
"72 192 OFFCURVE",
"58 184 OFFCURVE",
"47 168 CURVE",
"44 170 LINE",
"42 171 OFFCURVE",
"40 174 OFFCURVE",
"38 178 CURVE",
"36 181 OFFCURVE",
"35 185 OFFCURVE",
"34 190 CURVE",
"31 211 OFFCURVE",
"33 233 OFFCURVE",
"39 254 CURVE SMOOTH",
"42 265 OFFCURVE",
"48 274 OFFCURVE",
"57 279 CURVE SMOOTH",
"66 284 OFFCURVE",
"72 288 OFFCURVE",
"75 292 CURVE SMOOTH",
"78 296 OFFCURVE",
"80 299 OFFCURVE",
"83 302 CURVE SMOOTH",
"93 312 LINE SMOOTH",
"95 314 OFFCURVE",
"97 315 OFFCURVE",
"98 316 CURVE",
"113 328 OFFCURVE",
"124 336 OFFCURVE",
"131 339 CURVE",
"149 348 OFFCURVE",
"169 352 OFFCURVE",
"192 352 CURVE SMOOTH",
"214 352 OFFCURVE",
"234 348 OFFCURVE",
"252 339 CURVE",
"261 335 OFFCURVE",
"273 327 OFFCURVE",
"286 316 CURVE",
"287 315 OFFCURVE",
"289 314 OFFCURVE",
"291 312 CURVE SMOOTH",
"301 302 LINE SMOOTH",
"304 299 OFFCURVE",
"306 296 OFFCURVE",
"309 292 CURVE SMOOTH",
"312 288 OFFCURVE",
"318 284 OFFCURVE",
"327 279 CURVE SMOOTH",
"336 274 OFFCURVE",
"342 265 OFFCURVE",
"345 254 CURVE SMOOTH",
"351 233 OFFCURVE",
"353 212 OFFCURVE",
"350 190 CURVE",
"349 180 OFFCURVE",
"344 173 OFFCURVE",
"337 168 CURVE",
"326 184 OFFCURVE",
"312 192 OFFCURVE",
"293 192 CURVE SMOOTH",
"278 192 OFFCURVE",
"266 186 OFFCURVE",
"256 175 CURVE",
"245 164 OFFCURVE",
"240 150 OFFCURVE",
"240 133 CURVE SMOOTH",
"240 27 LINE SMOOTH",
"240 11 OFFCURVE",
"246 -3 OFFCURVE",
"257 -14 CURVE",
"268 -26 OFFCURVE",
"282 -32 OFFCURVE",
"298 -32 CURVE SMOOTH",
"315 -32 OFFCURVE",
"329 -27 OFFCURVE",
"340 -16 CURVE SMOOTH",
"351 -5 OFFCURVE",
"361 16 OFFCURVE",
"370 48 CURVE SMOOTH",
"375 64 OFFCURVE",
"378 89 OFFCURVE",
"381 122 CURVE SMOOTH",
"384 155 OFFCURVE",
"384 184 OFFCURVE",
"383 210 CURVE SMOOTH"
);
}
);
width = 384;
}
);
note = uniF140;
unicode = F140;
},
{
export = 0;
glyphname = uniF141;
lastChange = "2016-08-30 05:18:41 +0000";
layers = (
{
layerId = "7CC436F9-9F12-4208-AF2B-E4ABCB0FA991";
paths = (
{
closed = 1;
nodes = (
"362 373 OFFCURVE",
"338 384 OFFCURVE",
"309 384 CURVE SMOOTH",
"280 384 OFFCURVE",
"256 373 OFFCURVE",
"236 352 CURVE SMOOTH",
"208 324 LINE",
"181 352 LINE SMOOTH",
"161 373 OFFCURVE",
"137 384 OFFCURVE",
"108 384 CURVE SMOOTH",
"79 384 OFFCURVE",
"54 373 OFFCURVE",
"34 352 CURVE SMOOTH",
"11 329 OFFCURVE",
"0 300 OFFCURVE",
"0 267 CURVE SMOOTH",
"0 233 OFFCURVE",
"11 204 OFFCURVE",
"34 181 CURVE SMOOTH",
"208 0 LINE",
"382 181 LINE SMOOTH",
"405 204 OFFCURVE",
"416 233 OFFCURVE",
"416 267 CURVE SMOOTH",
"416 300 OFFCURVE",
"405 329 OFFCURVE",
"382 352 CURVE SMOOTH"
);
}
);
width = 416;
}
);
note = uniF141;
unicode = F141;
},
{
export = 0;
glyphname = uniF142;
lastChange = "2016-08-30 05:18:41 +0000";
layers = (
{
layerId = "7CC436F9-9F12-4208-AF2B-E4ABCB0FA991";
paths = (
{
closed = 1;
nodes = (
"22 307 OFFCURVE",
"0 254 OFFCURVE",
"0 192 CURVE SMOOTH",
"0 130 OFFCURVE",
"22 77 OFFCURVE",
"66 34 CURVE SMOOTH",
"109 -10 OFFCURVE",
"162 -32 OFFCURVE",
"224 -32 CURVE SMOOTH",
"286 -32 OFFCURVE",
"339 -10 OFFCURVE",
"383 34 CURVE SMOOTH",
"426 77 OFFCURVE",
"448 130 OFFCURVE",
"448 192 CURVE SMOOTH",
"448 254 OFFCURVE",
"426 307 OFFCURVE",
"383 351 CURVE SMOOTH",
"339 394 OFFCURVE",
"286 416 OFFCURVE",
"224 416 CURVE SMOOTH",
"162 416 OFFCURVE",
"109 394 OFFCURVE",
"66 351 CURVE SMOOTH"
);
},
{
closed = 1;
nodes = (
"244 80 OFFCURVE",
"241 74 OFFCURVE",
"235 69 CURVE SMOOTH",
"229 64 OFFCURVE",
"222 61 OFFCURVE",
"213 61 CURVE SMOOTH",
"205 61 OFFCURVE",
"198 64 OFFCURVE",
"193 70 CURVE",
"188 75 OFFCURVE",
"185 82 OFFCURVE",
"185 91 CURVE SMOOTH",
"185 100 OFFCURVE",
"188 107 OFFCURVE",
"194 112 CURVE SMOOTH",
"200 117 OFFCURVE",
"207 120 OFFCURVE",
"215 120 CURVE SMOOTH",
"224 120 OFFCURVE",
"231 117 OFFCURVE",
"237 111 CURVE",
"242 105 OFFCURVE",
"245 98 OFFCURVE",
"244 89 CURVE"
);
},
{
closed = 1;
nodes = (
"289 211 OFFCURVE",
"281 203 OFFCURVE",
"268 194 CURVE SMOOTH",
"254 185 LINE",
"248 180 OFFCURVE",
"244 174 OFFCURVE",
"242 168 CURVE",
"241 163 OFFCURVE",
"240 156 OFFCURVE",
"240 149 CURVE SMOOTH",
"240 146 OFFCURVE",
"238 145 OFFCURVE",
"235 145 CURVE SMOOTH",
"196 145 LINE SMOOTH",
"193 145 OFFCURVE",
"192 146 OFFCURVE",
"192 149 CURVE",
"193 168 OFFCURVE",
"197 181 OFFCURVE",
"202 190 CURVE SMOOTH",
"208 200 OFFCURVE",
"220 210 OFFCURVE",
"237 220 CURVE",
"242 224 OFFCURVE",
"246 227 OFFCURVE",
"247 230 CURVE",
"252 238 OFFCURVE",
"255 245 OFFCURVE",
"255 250 CURVE SMOOTH",
"255 258 OFFCURVE",
"252 266 OFFCURVE",
"247 273 CURVE SMOOTH",
"242 280 OFFCURVE",
"233 284 OFFCURVE",
"222 284 CURVE SMOOTH",
"211 284 OFFCURVE",
"202 279 OFFCURVE",
"196 269 CURVE",
"193 265 OFFCURVE",
"192 256 OFFCURVE",
"192 242 CURVE",
"143 242 LINE",
"143 275 OFFCURVE",
"152 297 OFFCURVE",
"171 310 CURVE SMOOTH",
"184 319 OFFCURVE",
"199 323 OFFCURVE",
"218 323 CURVE SMOOTH",
"243 323 OFFCURVE",
"264 317 OFFCURVE",
"280 305 CURVE SMOOTH",
"297 292 OFFCURVE",
"305 275 OFFCURVE",
"305 253 CURVE SMOOTH",
"305 240 OFFCURVE",
"301 228 OFFCURVE",
"293 217 CURVE"
);
}
);
width = 448;
}
);
note = uniF142;
unicode = F142;
},
{
export = 0;
glyphname = uniF143;
lastChange = "2016-08-30 05:18:41 +0000";
layers = (
{
layerId = "7CC436F9-9F12-4208-AF2B-E4ABCB0FA991";
paths = (
{
closed = 1;
nodes = (
"192 390 OFFCURVE",
"160 399 OFFCURVE",
"119 399 CURVE SMOOTH",
"88 399 OFFCURVE",
"63 392 OFFCURVE",
"44 379 CURVE SMOOTH",
"15 360 OFFCURVE",
"0 324 OFFCURVE",
"0 271 CURVE",
"77 271 LINE",
"77 292 OFFCURVE",
"79 307 OFFCURVE",
"84 314 CURVE",
"94 330 OFFCURVE",
"107 338 OFFCURVE",
"124 338 CURVE SMOOTH",
"141 338 OFFCURVE",
"155 332 OFFCURVE",
"165 320 CURVE SMOOTH",
"172 311 OFFCURVE",
"176 299 OFFCURVE",
"176 284 CURVE SMOOTH",
"176 274 OFFCURVE",
"172 263 OFFCURVE",
"164 252 CURVE SMOOTH",
"161 248 OFFCURVE",
"156 243 OFFCURVE",
"149 237 CURVE",
"138 230 LINE",
"131 225 OFFCURVE",
"122 219 OFFCURVE",
"113 211 CURVE SMOOTH",
"104 203 OFFCURVE",
"97 196 OFFCURVE",
"92 189 CURVE SMOOTH",
"83 176 OFFCURVE",
"78 154 OFFCURVE",
"77 123 CURVE SMOOTH",
"77 120 OFFCURVE",
"79 118 OFFCURVE",
"84 118 CURVE SMOOTH",
"146 118 LINE SMOOTH",
"151 118 OFFCURVE",
"153 120 OFFCURVE",
"153 124 CURVE SMOOTH",
"153 137 OFFCURVE",
"154 147 OFFCURVE",
"156 153 CURVE",
"159 164 OFFCURVE",
"166 173 OFFCURVE",
"176 181 CURVE",
"197 195 LINE",
"218 212 OFFCURVE",
"231 224 OFFCURVE",
"237 231 CURVE",
"250 248 OFFCURVE",
"256 267 OFFCURVE",
"256 288 CURVE SMOOTH",
"256 323 OFFCURVE",
"243 351 OFFCURVE",
"217 371 CURVE SMOOTH"
);
},
{
closed = 1;
nodes = (
"101 79 OFFCURVE",
"90 75 OFFCURVE",
"81 66 CURVE SMOOTH",
"72 57 OFFCURVE",
"67 46 OFFCURVE",
"66 32 CURVE SMOOTH",
"65 18 OFFCURVE",
"69 7 OFFCURVE",
"78 -1 CURVE",
"87 -10 OFFCURVE",
"98 -14 OFFCURVE",
"111 -15 CURVE SMOOTH",
"124 -16 OFFCURVE",
"136 -12 OFFCURVE",
"145 -3 CURVE",
"154 5 OFFCURVE",
"159 16 OFFCURVE",
"160 30 CURVE SMOOTH",
"161 44 OFFCURVE",
"157 55 OFFCURVE",
"148 64 CURVE SMOOTH",
"139 73 OFFCURVE",
"128 77 OFFCURVE",
"114 78 CURVE SMOOTH"
);
}
);
width = 256;
}
);
note = uniF143;
unicode = F143;
},
{
export = 0;
glyphname = uniF144;
lastChange = "2016-08-30 05:18:41 +0000";
layers = (
{
layerId = "7CC436F9-9F12-4208-AF2B-E4ABCB0FA991";
paths = (
{
closed = 1;
nodes = (
"0 160 LINE",
"48 160 LINE",
"48 0 LINE",
"144 0 LINE",
"144 128 LINE",
"240 128 LINE",
"240 0 LINE",
"336 0 LINE",
"336 160 LINE",
"384 160 LINE",
"192 384 LINE"
);
}
);
width = 384;
}
);
note = uniF144;
unicode = F144;
},
{
export = 0;
glyphname = uniF147;
lastChange = "2016-08-30 05:18:41 +0000";
layers = (
{
layerId = "7CC436F9-9F12-4208-AF2B-E4ABCB0FA991";
paths = (
{
closed = 1;
nodes = (
"379 247 OFFCURVE",
"384 259 OFFCURVE",
"384 272 CURVE SMOOTH",
"384 285 OFFCURVE",
"379 297 OFFCURVE",
"370 306 CURVE SMOOTH",
"361 315 OFFCURVE",
"349 320 OFFCURVE",
"336 320 CURVE SMOOTH",
"323 320 OFFCURVE",
"311 315 OFFCURVE",
"302 306 CURVE SMOOTH",
"293 297 OFFCURVE",
"288 285 OFFCURVE",
"288 272 CURVE SMOOTH",
"288 259 OFFCURVE",
"293 247 OFFCURVE",
"302 238 CURVE SMOOTH",
"311 229 OFFCURVE",
"323 224 OFFCURVE",
"336 224 CURVE SMOOTH",
"349 224 OFFCURVE",
"361 229 OFFCURVE",
"370 238 CURVE SMOOTH"
);
},
{
closed = 1;
nodes = (
"20 384 OFFCURVE",
"13 381 OFFCURVE",
"8 376 CURVE SMOOTH",
"3 371 OFFCURVE",
"0 364 OFFCURVE",
"0 356 CURVE SMOOTH",
"0 28 LINE SMOOTH",
"0 20 OFFCURVE",
"3 13 OFFCURVE",
"8 8 CURVE SMOOTH",
"13 3 OFFCURVE",
"20 0 OFFCURVE",
"28 0 CURVE SMOOTH",
"420 0 LINE SMOOTH",
"428 0 OFFCURVE",
"435 3 OFFCURVE",
"440 8 CURVE SMOOTH",
"445 13 OFFCURVE",
"448 20 OFFCURVE",
"448 28 CURVE SMOOTH",
"448 356 LINE SMOOTH",
"448 364 OFFCURVE",
"445 371 OFFCURVE",
"440 376 CURVE SMOOTH",
"435 381 OFFCURVE",
"428 384 OFFCURVE",
"420 384 CURVE SMOOTH",
"28 384 LINE SMOOTH"
);
},
{
closed = 1;
nodes = (
"314 190 OFFCURVE",
"309 192 OFFCURVE",
"304 192 CURVE SMOOTH",
"300 192 OFFCURVE",
"296 190 OFFCURVE",
"291 187 CURVE",
"273 171 LINE",
"268 168 OFFCURVE",
"264 166 OFFCURVE",
"261 166 CURVE SMOOTH",
"258 166 OFFCURVE",
"254 167 OFFCURVE",
"250 170 CURVE",
"246 174 LINE",
"192 233 LINE",
"188 238 OFFCURVE",
"182 240 OFFCURVE",
"175 240 CURVE SMOOTH",
"169 240 OFFCURVE",
"163 237 OFFCURVE",
"158 232 CURVE",
"32 80 LINE",
"32 340 LINE",
"33 348 OFFCURVE",
"38 352 OFFCURVE",
"45 352 CURVE SMOOTH",
"403 352 LINE SMOOTH",
"412 352 OFFCURVE",
"416 348 OFFCURVE",
"416 340 CURVE SMOOTH",
"416 80 LINE",
"317 186 LINE"
);
}
);
width = 448;
}
);
note = uniF147;
unicode = F147;
},
{
export = 0;
glyphname = uniF148;
lastChange = "2016-08-30 05:18:41 +0000";
layers = (
{
layerId = "7CC436F9-9F12-4208-AF2B-E4ABCB0FA991";
paths = (
{
closed = 1;
nodes = (
"338 366 LINE",
"337 371 OFFCURVE",
"335 376 OFFCURVE",
"331 380 CURVE",
"326 383 OFFCURVE",
"321 385 OFFCURVE",
"315 384 CURVE",
"19 360 LINE",
"13 359 OFFCURVE",
"8 357 OFFCURVE",
"5 353 CURVE SMOOTH",
"1 348 OFFCURVE",
"-1 343 OFFCURVE",
"0 338 CURVE",
"21 102 LINE",
"22 97 OFFCURVE",
"24 92 OFFCURVE",
"29 89 CURVE",
"33 85 OFFCURVE",
"38 83 OFFCURVE",
"44 84 CURVE",
"59 85 LINE",
"57 39 LINE",
"56 32 OFFCURVE",
"58 27 OFFCURVE",
"63 23 CURVE",
"67 19 OFFCURVE",
"72 17 OFFCURVE",
"79 16 CURVE",
"409 0 LINE",
"416 -1 OFFCURVE",
"421 1 OFFCURVE",
"426 5 CURVE SMOOTH",
"431 9 OFFCURVE",
"433 14 OFFCURVE",
"434 21 CURVE",
"448 284 LINE",
"449 290 OFFCURVE",
"447 295 OFFCURVE",
"443 300 CURVE",
"438 305 OFFCURVE",
"433 307 OFFCURVE",
"426 308 CURVE",
"343 312 LINE"
);
},
{
closed = 1;
nodes = (
"46 143 LINE",
"30 321 LINE",
"30 322 LINE SMOOTH",
"30 328 OFFCURVE",
"33 331 OFFCURVE",
"40 331 CURVE",
"301 353 LINE",
"306 353 OFFCURVE",
"310 350 OFFCURVE",
"311 345 CURVE",
"311 344 LINE",
"312 344 LINE",
"314 313 LINE",
"95 324 LINE",
"88 324 OFFCURVE",
"83 322 OFFCURVE",
"79 318 CURVE SMOOTH",
"74 313 OFFCURVE",
"72 308 OFFCURVE",
"71 302 CURVE",
"64 168 LINE"
);
},
{
closed = 1;
nodes = (
"331 154 LINE",
"329 157 OFFCURVE",
"325 159 OFFCURVE",
"320 159 CURVE SMOOTH",
"316 159 OFFCURVE",
"312 158 OFFCURVE",
"309 155 CURVE",
"292 143 LINE",
"288 141 OFFCURVE",
"285 140 OFFCURVE",
"283 140 CURVE SMOOTH",
"279 140 OFFCURVE",
"276 141 OFFCURVE",
"273 144 CURVE SMOOTH",
"270 147 LINE",
"227 196 LINE",
"224 201 OFFCURVE",
"219 203 OFFCURVE",
"213 203 CURVE SMOOTH",
"208 203 OFFCURVE",
"203 201 OFFCURVE",
"199 197 CURVE SMOOTH",
"97 88 LINE",
"91 81 LINE",
"91 88 LINE",
"98 216 LINE",
"101 279 LINE",
"101 280 LINE",
"102 286 OFFCURVE",
"106 289 OFFCURVE",
"113 289 CURVE",
"317 280 LINE",
"346 278 LINE",
"404 275 LINE",
"411 275 OFFCURVE",
"415 272 OFFCURVE",
"415 265 CURVE SMOOTH",
"415 264 LINE",
"405 66 LINE",
"358 121 LINE"
);
},
{
closed = 1;
nodes = (
"350 186 OFFCURVE",
"359 190 OFFCURVE",
"366 197 CURVE SMOOTH",
"373 204 OFFCURVE",
"376 212 OFFCURVE",
"376 221 CURVE SMOOTH",
"376 230 OFFCURVE",
"373 239 OFFCURVE",
"366 246 CURVE SMOOTH",
"359 253 OFFCURVE",
"351 256 OFFCURVE",
"341 256 CURVE SMOOTH",
"332 256 OFFCURVE",
"324 253 OFFCURVE",
"317 246 CURVE SMOOTH",
"310 239 OFFCURVE",
"306 231 OFFCURVE",
"306 221 CURVE SMOOTH",
"306 211 OFFCURVE",
"309 203 OFFCURVE",
"316 196 CURVE SMOOTH",
"323 189 OFFCURVE",
"331 186 OFFCURVE",
"341 186 CURVE SMOOTH"
);
}
);
width = 448;
}
);
note = uniF148;
unicode = F148;
},
{
export = 0;
glyphname = uniF149;
lastChange = "2016-08-30 05:18:41 +0000";
layers = (
{
layerId = "7CC436F9-9F12-4208-AF2B-E4ABCB0FA991";
paths = (
{
closed = 1;
nodes = (
"447 257 OFFCURVE",
"424 310 OFFCURVE",
"380 353 CURVE SMOOTH",
"336 396 OFFCURVE",
"283 417 OFFCURVE",
"221 416 CURVE SMOOTH",
"159 415 OFFCURVE",
"107 392 OFFCURVE",
"64 348 CURVE SMOOTH",
"21 304 OFFCURVE",
"-1 251 OFFCURVE",
"0 189 CURVE SMOOTH",
"1 127 OFFCURVE",
"24 75 OFFCURVE",
"68 32 CURVE SMOOTH",
"112 -11 OFFCURVE",
"165 -33 OFFCURVE",
"227 -32 CURVE SMOOTH",
"289 -31 OFFCURVE",
"342 -8 OFFCURVE",
"385 36 CURVE SMOOTH",
"428 80 OFFCURVE",
"449 133 OFFCURVE",
"448 195 CURVE SMOOTH"
);
},
{
closed = 1;
nodes = (
"253 321 OFFCURVE",
"256 313 OFFCURVE",
"256 304 CURVE SMOOTH",
"256 295 OFFCURVE",
"253 287 OFFCURVE",
"247 281 CURVE SMOOTH",
"241 275 OFFCURVE",
"233 272 OFFCURVE",
"224 272 CURVE SMOOTH",
"215 272 OFFCURVE",
"207 275 OFFCURVE",
"201 281 CURVE SMOOTH",
"195 287 OFFCURVE",
"192 295 OFFCURVE",
"192 304 CURVE SMOOTH",
"192 313 OFFCURVE",
"195 321 OFFCURVE",
"201 327 CURVE SMOOTH",
"207 333 OFFCURVE",
"215 336 OFFCURVE",
"224 336 CURVE SMOOTH",
"233 336 OFFCURVE",
"241 333 OFFCURVE",
"247 327 CURVE SMOOTH"
);
},
{
closed = 1;
nodes = (
"180 64 LINE",
"202 64 LINE",
"202 224 LINE",
"180 224 LINE",
"180 236 LINE",
"246 236 LINE",
"246 64 LINE",
"268 64 LINE",
"268 53 LINE",
"180 53 LINE"
);
}
);
width = 448;
}
);
note = uniF149;
unicode = F149;
},
{
export = 0;
glyphname = uniF14A;
lastChange = "2016-08-30 05:18:41 +0000";
layers = (
{
layerId = "7CC436F9-9F12-4208-AF2B-E4ABCB0FA991";
paths = (
{
closed = 1;
nodes = (
"0 256 LINE",
"0 240 LINE",
"32 240 LINE",
"32 0 LINE",
"0 0 LINE",
"0 -16 LINE",
"128 -16 LINE",
"128 0 LINE",
"96 0 LINE",
"96 256 LINE"
);
},
{
closed = 1;
nodes = (
"107 327 OFFCURVE",
"112 339 OFFCURVE",
"112 352 CURVE SMOOTH",
"112 365 OFFCURVE",
"107 377 OFFCURVE",
"98 386 CURVE SMOOTH",
"89 395 OFFCURVE",
"77 400 OFFCURVE",
"64 400 CURVE SMOOTH",
"51 400 OFFCURVE",
"39 395 OFFCURVE",
"30 386 CURVE SMOOTH",
"21 377 OFFCURVE",
"16 365 OFFCURVE",
"16 352 CURVE SMOOTH",
"16 339 OFFCURVE",
"21 327 OFFCURVE",
"30 318 CURVE SMOOTH",
"39 309 OFFCURVE",
"51 304 OFFCURVE",
"64 304 CURVE SMOOTH",
"77 304 OFFCURVE",
"89 309 OFFCURVE",
"98 318 CURVE SMOOTH"
);
}
);
width = 128;
}
);
note = uniF14A;
unicode = F14A;
},
{
export = 0;
glyphname = uniF14B;
lastChange = "2016-08-30 05:18:41 +0000";
layers = (
{
layerId = "7CC436F9-9F12-4208-AF2B-E4ABCB0FA991";
paths = (
{
closed = 1;
nodes = (
"379 320 OFFCURVE",
"381 326 OFFCURVE",
"381 333 CURVE SMOOTH",
"381 342 OFFCURVE",
"378 349 OFFCURVE",
"372 356 CURVE",
"365 362 OFFCURVE",
"358 365 OFFCURVE",
"349 365 CURVE SMOOTH",
"342 365 OFFCURVE",
"336 363 OFFCURVE",
"331 360 CURVE",
"295 387 OFFCURVE",
"254 400 OFFCURVE",
"208 400 CURVE SMOOTH",
"151 400 OFFCURVE",
"102 380 OFFCURVE",
"61 339 CURVE SMOOTH",
"20 298 OFFCURVE",
"0 249 OFFCURVE",
"0 192 CURVE SMOOTH",
"0 135 OFFCURVE",
"20 86 OFFCURVE",
"61 45 CURVE SMOOTH",
"102 4 OFFCURVE",
"151 -16 OFFCURVE",
"208 -16 CURVE SMOOTH",
"265 -16 OFFCURVE",
"314 4 OFFCURVE",
"355 45 CURVE SMOOTH",
"396 86 OFFCURVE",
"416 135 OFFCURVE",
"416 192 CURVE SMOOTH",
"416 238 OFFCURVE",
"403 279 OFFCURVE",
"376 315 CURVE"
);
},
{
closed = 1;
nodes = (
"375 94 OFFCURVE",
"361 73 OFFCURVE",
"344 56 CURVE SMOOTH",
"327 39 OFFCURVE",
"306 25 OFFCURVE",
"283 15 CURVE SMOOTH",
"259 5 OFFCURVE",
"234 0 OFFCURVE",
"208 0 CURVE SMOOTH",
"182 0 OFFCURVE",
"157 5 OFFCURVE",
"133 15 CURVE SMOOTH",
"110 25 OFFCURVE",
"89 39 OFFCURVE",
"72 56 CURVE SMOOTH",
"55 73 OFFCURVE",
"41 94 OFFCURVE",
"31 117 CURVE SMOOTH",
"21 141 OFFCURVE",
"16 166 OFFCURVE",
"16 192 CURVE SMOOTH",
"16 218 OFFCURVE",
"21 243 OFFCURVE",
"31 267 CURVE SMOOTH",
"41 290 OFFCURVE",
"55 311 OFFCURVE",
"72 328 CURVE SMOOTH",
"89 345 OFFCURVE",
"110 359 OFFCURVE",
"133 369 CURVE SMOOTH",
"157 379 OFFCURVE",
"182 384 OFFCURVE",
"208 384 CURVE SMOOTH",
"234 384 OFFCURVE",
"259 379 OFFCURVE",
"283 369 CURVE",
"297 362 OFFCURVE",
"310 355 OFFCURVE",
"321 348 CURVE",
"318 343 OFFCURVE",
"317 338 OFFCURVE",
"317 333 CURVE SMOOTH",
"317 324 OFFCURVE",
"320 317 OFFCURVE",
"327 311 CURVE",
"333 304 OFFCURVE",
"340 301 OFFCURVE",
"349 301 CURVE SMOOTH",
"354 301 OFFCURVE",
"359 302 OFFCURVE",
"364 305 CURVE",
"371 294 OFFCURVE",
"378 281 OFFCURVE",
"385 267 CURVE",
"395 243 OFFCURVE",
"400 218 OFFCURVE",
"400 192 CURVE SMOOTH",
"400 166 OFFCURVE",
"395 141 OFFCURVE",
"385 117 CURVE SMOOTH"
);
},
{
closed = 1;
nodes = (
"272 96 OFFCURVE",
"304 128 OFFCURVE",
"304 192 CURVE SMOOTH",
"304 256 OFFCURVE",
"272 288 OFFCURVE",
"208 288 CURVE SMOOTH",
"144 288 OFFCURVE",
"112 256 OFFCURVE",
"112 192 CURVE SMOOTH",
"112 128 OFFCURVE",
"144 96 OFFCURVE",
"208 96 CURVE SMOOTH"
);
}
);
width = 416;
}
);
note = uniF14B;
unicode = F14B;
},
{
export = 0;
glyphname = uniF1F9;
lastChange = "2016-08-30 05:18:41 +0000";
layers = (
{
layerId = "7CC436F9-9F12-4208-AF2B-E4ABCB0FA991";
paths = (
{
closed = 1;
nodes = (
"0 3 OFFCURVE",
"3 0 OFFCURVE",
"9 0 CURVE SMOOTH",
"279 0 LINE SMOOTH",
"285 0 OFFCURVE",
"288 3 OFFCURVE",
"288 9 CURVE SMOOTH",
"288 375 LINE SMOOTH",
"288 381 OFFCURVE",
"285 384 OFFCURVE",
"279 384 CURVE SMOOTH",
"9 384 LINE SMOOTH",
"3 384 OFFCURVE",
"0 381 OFFCURVE",
"0 375 CURVE SMOOTH",
"0 9 LINE SMOOTH"
);
},
{
closed = 1;
nodes = (
"158 15 OFFCURVE",
"153 10 OFFCURVE",
"144 10 CURVE SMOOTH",
"135 10 OFFCURVE",
"130 15 OFFCURVE",
"130 24 CURVE SMOOTH",
"130 33 OFFCURVE",
"135 38 OFFCURVE",
"144 38 CURVE SMOOTH",
"147 38 OFFCURVE",
"151 37 OFFCURVE",
"154 34 CURVE SMOOTH",
"157 31 OFFCURVE",
"158 28 OFFCURVE",
"158 24 CURVE SMOOTH"
);
},
{
closed = 1;
nodes = (
"32 334 OFFCURVE",
"34 336 OFFCURVE",
"38 336 CURVE SMOOTH",
"249 336 LINE SMOOTH",
"254 336 OFFCURVE",
"256 334 OFFCURVE",
"256 329 CURVE SMOOTH",
"256 54 LINE SMOOTH",
"256 50 OFFCURVE",
"254 48 OFFCURVE",
"249 48 CURVE SMOOTH",
"38 48 LINE SMOOTH",
"34 48 OFFCURVE",
"32 50 OFFCURVE",
"32 54 CURVE SMOOTH",
"32 329 LINE SMOOTH"
);
}
);
width = 288;
}
);
note = uniF1F9;
unicode = F1F9;
},
{
export = 0;
glyphname = uniF1FA;
lastChange = "2016-08-30 05:18:41 +0000";
layers = (
{
layerId = "7CC436F9-9F12-4208-AF2B-E4ABCB0FA991";
paths = (
{
closed = 1;
nodes = (
"17 384 OFFCURVE",
"12 382 OFFCURVE",
"7 377 CURVE SMOOTH",
"2 372 OFFCURVE",
"0 367 OFFCURVE",
"0 360 CURVE SMOOTH",
"0 24 LINE SMOOTH",
"0 17 OFFCURVE",
"2 12 OFFCURVE",
"7 7 CURVE SMOOTH",
"12 2 OFFCURVE",
"17 0 OFFCURVE",
"24 0 CURVE SMOOTH",
"168 0 LINE SMOOTH",
"175 0 OFFCURVE",
"180 2 OFFCURVE",
"185 7 CURVE SMOOTH",
"190 12 OFFCURVE",
"192 17 OFFCURVE",
"192 24 CURVE SMOOTH",
"192 360 LINE SMOOTH",
"192 367 OFFCURVE",
"190 372 OFFCURVE",
"185 377 CURVE SMOOTH",
"180 382 OFFCURVE",
"175 384 OFFCURVE",
"168 384 CURVE SMOOTH",
"24 384 LINE SMOOTH"
);
},
{
closed = 1;
nodes = (
"81 344 OFFCURVE",
"80 345 OFFCURVE",
"80 348 CURVE SMOOTH",
"80 351 OFFCURVE",
"81 352 OFFCURVE",
"84 352 CURVE SMOOTH",
"108 352 LINE SMOOTH",
"111 352 OFFCURVE",
"112 351 OFFCURVE",
"112 348 CURVE SMOOTH",
"112 345 OFFCURVE",
"111 344 OFFCURVE",
"108 344 CURVE SMOOTH",
"84 344 LINE SMOOTH"
);
},
{
closed = 1;
nodes = (
"72 345 OFFCURVE",
"71 344 OFFCURVE",
"68 344 CURVE SMOOTH",
"65 344 OFFCURVE",
"64 345 OFFCURVE",
"64 348 CURVE SMOOTH",
"64 351 OFFCURVE",
"65 352 OFFCURVE",
"68 352 CURVE SMOOTH",
"71 352 OFFCURVE",
"72 351 OFFCURVE",
"72 348 CURVE SMOOTH"
);
},
{
closed = 1;
nodes = (
"80 43 OFFCURVE",
"85 48 OFFCURVE",
"96 48 CURVE SMOOTH",
"107 48 OFFCURVE",
"112 43 OFFCURVE",
"112 32 CURVE SMOOTH",
"112 21 OFFCURVE",
"107 16 OFFCURVE",
"96 16 CURVE SMOOTH",
"85 16 OFFCURVE",
"80 21 OFFCURVE",
"80 32 CURVE SMOOTH"
);
},
{
closed = 1;
nodes = (
"16 320 LINE",
"176 320 LINE",
"176 64 LINE",
"16 64 LINE"
);
}
);
width = 192;
}
);
note = uniF1FA;
unicode = F1FA;
},
{
export = 0;
glyphname = uniF1FB;
lastChange = "2016-08-30 05:18:41 +0000";
layers = (
{
layerId = "7CC436F9-9F12-4208-AF2B-E4ABCB0FA991";
paths = (
{
closed = 1;
nodes = (
"83 121 OFFCURVE",
"80 114 OFFCURVE",
"80 105 CURVE SMOOTH",
"80 96 OFFCURVE",
"83 89 OFFCURVE",
"89 83 CURVE",
"95 76 OFFCURVE",
"103 73 OFFCURVE",
"112 73 CURVE SMOOTH",
"121 73 OFFCURVE",
"129 76 OFFCURVE",
"135 83 CURVE",
"141 89 OFFCURVE",
"144 96 OFFCURVE",
"144 105 CURVE SMOOTH",
"144 114 OFFCURVE",
"141 121 OFFCURVE",
"135 128 CURVE",
"129 134 OFFCURVE",
"121 137 OFFCURVE",
"112 137 CURVE SMOOTH",
"103 137 OFFCURVE",
"95 134 OFFCURVE",
"89 128 CURVE"
);
},
{
closed = 1;
nodes = (
"21 384 OFFCURVE",
"14 381 OFFCURVE",
"9 376 CURVE",
"3 371 OFFCURVE",
"0 364 OFFCURVE",
"0 356 CURVE SMOOTH",
"0 28 LINE SMOOTH",
"0 20 OFFCURVE",
"3 13 OFFCURVE",
"9 8 CURVE",
"14 3 OFFCURVE",
"21 0 OFFCURVE",
"28 0 CURVE SMOOTH",
"196 0 LINE SMOOTH",
"203 0 OFFCURVE",
"210 3 OFFCURVE",
"216 8 CURVE",
"221 13 OFFCURVE",
"224 20 OFFCURVE",
"224 28 CURVE SMOOTH",
"224 356 LINE SMOOTH",
"224 364 OFFCURVE",
"221 371 OFFCURVE",
"216 376 CURVE",
"210 381 OFFCURVE",
"203 384 OFFCURVE",
"196 384 CURVE SMOOTH",
"28 384 LINE SMOOTH"
);
},
{
closed = 1;
nodes = (
"47 67 OFFCURVE",
"40 84 OFFCURVE",
"40 104 CURVE SMOOTH",
"40 124 OFFCURVE",
"47 141 OFFCURVE",
"61 155 CURVE SMOOTH",
"75 169 OFFCURVE",
"92 176 OFFCURVE",
"112 176 CURVE SMOOTH",
"132 176 OFFCURVE",
"149 169 OFFCURVE",
"163 155 CURVE SMOOTH",
"177 141 OFFCURVE",
"184 124 OFFCURVE",
"184 104 CURVE SMOOTH",
"184 84 OFFCURVE",
"177 67 OFFCURVE",
"163 53 CURVE SMOOTH",
"149 39 OFFCURVE",
"132 32 OFFCURVE",
"112 32 CURVE SMOOTH",
"92 32 OFFCURVE",
"75 39 OFFCURVE",
"61 53 CURVE SMOOTH"
);
},
{
closed = 1;
nodes = (
"191 212 OFFCURVE",
"186 208 OFFCURVE",
"177 208 CURVE SMOOTH",
"46 208 LINE SMOOTH",
"37 208 OFFCURVE",
"32 213 OFFCURVE",
"32 223 CURVE SMOOTH",
"32 337 LINE SMOOTH",
"32 346 OFFCURVE",
"36 351 OFFCURVE",
"44 352 CURVE",
"180 352 LINE",
"187 351 OFFCURVE",
"191 346 OFFCURVE",
"192 339 CURVE",
"192 221 LINE"
);
}
);
width = 224;
}
);
note = uniF1FB;
unicode = F1FB;
},
{
export = 0;
glyphname = uniF1FC;
lastChange = "2016-08-30 05:18:41 +0000";
layers = (
{
layerId = "7CC436F9-9F12-4208-AF2B-E4ABCB0FA991";
paths = (
{
closed = 1;
nodes = (
"480 349 OFFCURVE",
"477 352 OFFCURVE",
"470 352 CURVE SMOOTH",
"42 352 LINE SMOOTH",
"35 352 OFFCURVE",
"32 349 OFFCURVE",
"32 342 CURVE SMOOTH",
"32 80 LINE",
"480 80 LINE",
"480 342 LINE SMOOTH"
);
},
{
closed = 1;
nodes = (
"64 320 LINE",
"448 320 LINE",
"448 112 LINE",
"64 112 LINE"
);
},
{
closed = 1;
nodes = (
"37 48 OFFCURVE",
"72 41 OFFCURVE",
"105 38 CURVE SMOOTH",
"138 34 OFFCURVE",
"189 32 OFFCURVE",
"256 32 CURVE SMOOTH",
"323 32 OFFCURVE",
"374 34 OFFCURVE",
"407 38 CURVE SMOOTH",
"440 41 OFFCURVE",
"475 48 OFFCURVE",
"512 59 CURVE",
"512 64 LINE",
"0 64 LINE",
"0 59 LINE"
);
}
);
width = 512;
}
);
note = uniF1FC;
unicode = F1FC;
},
{
export = 0;
glyphname = uniF1FD;
lastChange = "2016-08-30 05:18:41 +0000";
layers = (
{
layerId = "7CC436F9-9F12-4208-AF2B-E4ABCB0FA991";
paths = (
{
closed = 1;
nodes = (
"377 74 OFFCURVE",
"358 80 OFFCURVE",
"355 85 CURVE",
"360 118 OFFCURVE",
"356 152 OFFCURVE",
"341 189 CURVE SMOOTH",
"326 226 OFFCURVE",
"305 255 OFFCURVE",
"278 277 CURVE SMOOTH",
"259 293 OFFCURVE",
"232 304 OFFCURVE",
"199 309 CURVE SMOOTH",
"165 314 OFFCURVE",
"131 322 OFFCURVE",
"97 331 CURVE SMOOTH",
"62 340 OFFCURVE",
"33 357 OFFCURVE",
"8 383 CURVE SMOOTH",
"6 385 OFFCURVE",
"4 385 OFFCURVE",
"3 382 CURVE",
"-4 369 OFFCURVE",
"-2 333 OFFCURVE",
"7 276 CURVE SMOOTH",
"25 170 OFFCURVE",
"59 95 OFFCURVE",
"108 50 CURVE SMOOTH",
"132 29 OFFCURVE",
"159 14 OFFCURVE",
"189 7 CURVE SMOOTH",
"218 0 OFFCURVE",
"242 -3 OFFCURVE",
"260 0 CURVE SMOOTH",
"278 3 OFFCURVE",
"293 7 OFFCURVE",
"305 12 CURVE",
"320 19 OFFCURVE",
"333 29 OFFCURVE",
"344 42 CURVE",
"372 33 OFFCURVE",
"393 29 OFFCURVE",
"407 30 CURVE",
"412 29 OFFCURVE",
"416 32 OFFCURVE",
"419 38 CURVE SMOOTH",
"422 44 OFFCURVE",
"423 51 OFFCURVE",
"422 58 CURVE SMOOTH",
"421 65 OFFCURVE",
"417 68 OFFCURVE",
"412 69 CURVE"
);
},
{
closed = 1;
nodes = (
"290 72 OFFCURVE",
"264 84 OFFCURVE",
"238 100 CURVE SMOOTH",
"211 116 OFFCURVE",
"189 132 OFFCURVE",
"172 147 CURVE SMOOTH",
"154 162 OFFCURVE",
"137 179 OFFCURVE",
"120 197 CURVE SMOOTH",
"103 214 OFFCURVE",
"91 226 OFFCURVE",
"86 233 CURVE SMOOTH",
"81 240 OFFCURVE",
"77 245 OFFCURVE",
"74 249 CURVE",
"84 238 LINE SMOOTH",
"91 230 OFFCURVE",
"102 220 OFFCURVE",
"117 208 CURVE",
"132 195 OFFCURVE",
"149 182 OFFCURVE",
"168 168 CURVE SMOOTH",
"187 154 OFFCURVE",
"210 140 OFFCURVE",
"239 126 CURVE",
"267 111 OFFCURVE",
"296 99 OFFCURVE",
"326 89 CURVE",
"326 80 OFFCURVE",
"323 72 OFFCURVE",
"316 65 CURVE"
);
}
);
width = 422;
}
);
note = uniF1FD;
unicode = F1FD;
},
{
export = 0;
glyphname = uniF1FE;
lastChange = "2016-08-30 05:18:41 +0000";
layers = (
{
layerId = "7CC436F9-9F12-4208-AF2B-E4ABCB0FA991";
paths = (
{
closed = 1;
nodes = (
"262 283 LINE",
"267 280 OFFCURVE",
"272 274 OFFCURVE",
"277 266 CURVE SMOOTH",
"282 258 OFFCURVE",
"286 249 OFFCURVE",
"288 240 CURVE",
"304 240 LINE SMOOTH",
"313 240 OFFCURVE",
"321 237 OFFCURVE",
"327 231 CURVE SMOOTH",
"333 225 OFFCURVE",
"336 217 OFFCURVE",
"336 208 CURVE SMOOTH",
"336 176 LINE SMOOTH",
"336 167 OFFCURVE",
"333 159 OFFCURVE",
"327 153 CURVE SMOOTH",
"321 147 OFFCURVE",
"313 144 OFFCURVE",
"304 144 CURVE SMOOTH",
"192 144 LINE SMOOTH",
"183 144 OFFCURVE",
"175 147 OFFCURVE",
"169 153 CURVE SMOOTH",
"163 159 OFFCURVE",
"160 167 OFFCURVE",
"160 176 CURVE SMOOTH",
"160 208 LINE",
"112 208 LINE",
"112 176 LINE SMOOTH",
"112 166 OFFCURVE",
"114 155 OFFCURVE",
"119 144 CURVE SMOOTH",
"134 112 OFFCURVE",
"158 96 OFFCURVE",
"192 96 CURVE SMOOTH",
"304 96 LINE SMOOTH",
"326 96 OFFCURVE",
"345 104 OFFCURVE",
"361 120 CURVE SMOOTH",
"376 135 OFFCURVE",
"384 154 OFFCURVE",
"384 176 CURVE SMOOTH",
"384 208 LINE SMOOTH",
"384 230 OFFCURVE",
"376 249 OFFCURVE",
"361 265 CURVE",
"345 280 OFFCURVE",
"326 288 OFFCURVE",
"304 288 CURVE SMOOTH",
"256 288 LINE"
);
},
{
closed = 1;
nodes = (
"260 254 OFFCURVE",
"250 266 OFFCURVE",
"237 275 CURVE SMOOTH",
"223 284 OFFCURVE",
"208 288 OFFCURVE",
"192 288 CURVE SMOOTH",
"80 288 LINE SMOOTH",
"58 288 OFFCURVE",
"39 280 OFFCURVE",
"24 265 CURVE SMOOTH",
"8 249 OFFCURVE",
"0 230 OFFCURVE",
"0 208 CURVE SMOOTH",
"0 176 LINE SMOOTH",
"0 154 OFFCURVE",
"8 135 OFFCURVE",
"24 120 CURVE",
"39 104 OFFCURVE",
"58 96 OFFCURVE",
"80 96 CURVE SMOOTH",
"128 96 LINE",
"122 101 LINE",
"117 104 OFFCURVE",
"112 110 OFFCURVE",
"107 118 CURVE SMOOTH",
"102 126 OFFCURVE",
"98 135 OFFCURVE",
"96 144 CURVE",
"80 144 LINE SMOOTH",
"71 144 OFFCURVE",
"63 147 OFFCURVE",
"57 153 CURVE SMOOTH",
"51 159 OFFCURVE",
"48 167 OFFCURVE",
"48 176 CURVE SMOOTH",
"48 208 LINE SMOOTH",
"48 217 OFFCURVE",
"51 225 OFFCURVE",
"57 231 CURVE SMOOTH",
"63 237 OFFCURVE",
"71 240 OFFCURVE",
"80 240 CURVE SMOOTH",
"192 240 LINE SMOOTH",
"201 240 OFFCURVE",
"209 237 OFFCURVE",
"215 231 CURVE SMOOTH",
"221 225 OFFCURVE",
"224 217 OFFCURVE",
"224 208 CURVE SMOOTH",
"224 176 LINE",
"272 176 LINE",
"272 208 LINE SMOOTH",
"272 219 OFFCURVE",
"270 230 OFFCURVE",
"266 240 CURVE SMOOTH"
);
}
);
width = 384;
}
);
note = uniF1FE;
unicode = F1FE;
},
{
export = 0;
glyphname = uniF1FF;
lastChange = "2016-08-30 05:18:41 +0000";
layers = (
{
layerId = "7CC436F9-9F12-4208-AF2B-E4ABCB0FA991";
paths = (
{
closed = 1;
nodes = (
"239 297 OFFCURVE",
"227 326 OFFCURVE",
"204 349 CURVE SMOOTH",
"180 372 OFFCURVE",
"152 384 OFFCURVE",
"119 384 CURVE SMOOTH",
"86 384 OFFCURVE",
"58 372 OFFCURVE",
"35 349 CURVE SMOOTH",
"12 326 OFFCURVE",
"0 297 OFFCURVE",
"0 264 CURVE SMOOTH",
"0 243 OFFCURVE",
"4 219 OFFCURVE",
"13 192 CURVE SMOOTH",
"22 165 OFFCURVE",
"31 142 OFFCURVE",
"42 122 CURVE",
"52 101 OFFCURVE",
"64 81 OFFCURVE",
"78 60 CURVE SMOOTH",
"91 39 OFFCURVE",
"101 24 OFFCURVE",
"106 17 CURVE SMOOTH",
"111 10 OFFCURVE",
"116 4 OFFCURVE",
"119 0 CURVE",
"149 40 LINE SMOOTH",
"169 67 OFFCURVE",
"189 103 OFFCURVE",
"209 147 CURVE SMOOTH",
"229 191 OFFCURVE",
"239 230 OFFCURVE",
"239 264 CURVE SMOOTH"
);
},
{
closed = 1;
nodes = (
"69 234 OFFCURVE",
"63 247 OFFCURVE",
"63 262 CURVE SMOOTH",
"63 277 OFFCURVE",
"69 291 OFFCURVE",
"80 302 CURVE SMOOTH",
"91 313 OFFCURVE",
"104 319 OFFCURVE",
"119 319 CURVE SMOOTH",
"134 319 OFFCURVE",
"148 313 OFFCURVE",
"159 302 CURVE SMOOTH",
"170 291 OFFCURVE",
"176 277 OFFCURVE",
"176 262 CURVE SMOOTH",
"176 247 OFFCURVE",
"170 234 OFFCURVE",
"159 223 CURVE SMOOTH",
"148 212 OFFCURVE",
"134 206 OFFCURVE",
"119 206 CURVE SMOOTH",
"104 206 OFFCURVE",
"91 212 OFFCURVE",
"80 223 CURVE SMOOTH"
);
}
);
width = 239;
}
);
note = uniF1FF;
unicode = F1FF;
},
{
export = 0;
glyphname = uniF200;
lastChange = "2016-08-30 05:18:41 +0000";
layers = (
{
layerId = "7CC436F9-9F12-4208-AF2B-E4ABCB0FA991";
paths = (
{
closed = 1;
nodes = (
"368 -32 OFFCURVE",
"373 -30 OFFCURVE",
"378 -25 CURVE SMOOTH",
"382 -21 OFFCURVE",
"384 -16 OFFCURVE",
"384 -10 CURVE SMOOTH",
"384 202 LINE SMOOTH",
"384 208 OFFCURVE",
"382 213 OFFCURVE",
"378 218 CURVE",
"373 222 OFFCURVE",
"368 224 OFFCURVE",
"362 224 CURVE SMOOTH",
"340 224 LINE",
"340 255 LINE SMOOTH",
"340 301 OFFCURVE",
"326 339 OFFCURVE",
"297 370 CURVE SMOOTH",
"268 401 OFFCURVE",
"233 416 OFFCURVE",
"192 416 CURVE SMOOTH",
"192 416 LINE SMOOTH",
"151 416 OFFCURVE",
"116 401 OFFCURVE",
"87 370 CURVE SMOOTH",
"58 339 OFFCURVE",
"44 301 OFFCURVE",
"44 255 CURVE SMOOTH",
"44 224 LINE",
"25 224 LINE",
"22 224 LINE SMOOTH",
"16 224 OFFCURVE",
"11 222 OFFCURVE",
"7 218 CURVE SMOOTH",
"2 213 OFFCURVE",
"0 208 OFFCURVE",
"0 202 CURVE SMOOTH",
"0 -10 LINE SMOOTH",
"0 -16 OFFCURVE",
"2 -21 OFFCURVE",
"7 -25 CURVE",
"11 -30 OFFCURVE",
"16 -32 OFFCURVE",
"22 -32 CURVE SMOOTH",
"362 -32 LINE SMOOTH"
);
},
{
closed = 1;
nodes = (
"97 288 OFFCURVE",
"106 315 OFFCURVE",
"125 335 CURVE",
"125 336 LINE",
"143 355 OFFCURVE",
"165 365 OFFCURVE",
"192 365 CURVE",
"192 365 LINE",
"219 365 OFFCURVE",
"241 355 OFFCURVE",
"259 336 CURVE",
"259 335 LINE",
"278 315 OFFCURVE",
"287 288 OFFCURVE",
"287 255 CURVE SMOOTH",
"287 224 LINE",
"269 224 LINE",
"114 224 LINE",
"97 224 LINE",
"97 255 LINE SMOOTH"
);
}
);
width = 384;
}
);
note = uniF200;
unicode = F200;
},
{
export = 0;
glyphname = uniF201;
lastChange = "2016-08-30 05:18:41 +0000";
layers = (
{
layerId = "7CC436F9-9F12-4208-AF2B-E4ABCB0FA991";
paths = (
{
closed = 1;
nodes = (
"82 58 LINE",
"108 35 LINE",
"184 -32 LINE",
"184 25 LINE",
"195 26 OFFCURVE",
"208 29 OFFCURVE",
"223 34 CURVE SMOOTH",
"256 45 OFFCURVE",
"282 65 OFFCURVE",
"303 93 CURVE SMOOTH",
"323 121 OFFCURVE",
"333 153 OFFCURVE",
"334 188 CURVE SMOOTH",
"334 192 LINE SMOOTH",
"334 229 OFFCURVE",
"323 263 OFFCURVE",
"301 292 CURVE",
"300 294 OFFCURVE",
"299 295 OFFCURVE",
"298 296 CURVE",
"251 253 LINE",
"252 252 OFFCURVE",
"255 246 OFFCURVE",
"260 236 CURVE SMOOTH",
"267 221 OFFCURVE",
"270 206 OFFCURVE",
"270 192 CURVE SMOOTH",
"270 166 OFFCURVE",
"262 144 OFFCURVE",
"246 125 CURVE SMOOTH",
"229 106 OFFCURVE",
"209 94 OFFCURVE",
"184 90 CURVE",
"184 148 LINE",
"126 97 LINE"
);
},
{
closed = 1;
nodes = (
"0 156 OFFCURVE",
"11 123 OFFCURVE",
"33 92 CURVE",
"34 91 OFFCURVE",
"34 91 OFFCURVE",
"35 90 CURVE SMOOTH",
"36 89 OFFCURVE",
"36 88 OFFCURVE",
"36 87 CURVE",
"83 131 LINE",
"81 133 OFFCURVE",
"78 138 OFFCURVE",
"74 147 CURVE SMOOTH",
"67 162 OFFCURVE",
"64 177 OFFCURVE",
"64 192 CURVE SMOOTH",
"64 217 OFFCURVE",
"72 240 OFFCURVE",
"89 259 CURVE SMOOTH",
"105 278 OFFCURVE",
"125 290 OFFCURVE",
"150 294 CURVE",
"149 236 LINE",
"208 287 LINE",
"252 326 LINE",
"226 349 LINE",
"150 416 LINE",
"150 359 LINE",
"139 358 OFFCURVE",
"126 356 OFFCURVE",
"113 351 CURVE",
"80 340 OFFCURVE",
"54 320 OFFCURVE",
"33 292 CURVE SMOOTH",
"12 264 OFFCURVE",
"1 232 OFFCURVE",
"0 196 CURVE SMOOTH",
"0 192 LINE SMOOTH"
);
}
);
width = 334;
}
);
note = uniF201;
unicode = F201;
},
{
export = 0;
glyphname = uniF202;
lastChange = "2016-08-30 05:18:41 +0000";
layers = (
{
layerId = "7CC436F9-9F12-4208-AF2B-E4ABCB0FA991";
paths = (
{
closed = 1;
nodes = (
"118 359 OFFCURVE",
"121 368 OFFCURVE",
"121 379 CURVE SMOOTH",
"121 390 OFFCURVE",
"118 399 OFFCURVE",
"111 406 CURVE SMOOTH",
"104 413 OFFCURVE",
"95 416 OFFCURVE",
"84 416 CURVE SMOOTH",
"73 416 OFFCURVE",
"65 413 OFFCURVE",
"58 406 CURVE SMOOTH",
"51 399 OFFCURVE",
"47 390 OFFCURVE",
"47 379 CURVE SMOOTH",
"47 368 OFFCURVE",
"51 359 OFFCURVE",
"58 352 CURVE SMOOTH",
"65 345 OFFCURVE",
"73 341 OFFCURVE",
"84 341 CURVE SMOOTH",
"95 341 OFFCURVE",
"104 345 OFFCURVE",
"111 352 CURVE SMOOTH"
);
},
{
closed = 1;
nodes = (
"47 333 LINE SMOOTH",
"34 333 OFFCURVE",
"23 328 OFFCURVE",
"14 319 CURVE",
"5 309 OFFCURVE",
"0 298 OFFCURVE",
"0 285 CURVE SMOOTH",
"0 171 LINE SMOOTH",
"0 164 OFFCURVE",
"3 160 OFFCURVE",
"8 157 CURVE SMOOTH",
"13 154 OFFCURVE",
"19 154 OFFCURVE",
"24 157 CURVE SMOOTH",
"29 160 OFFCURVE",
"31 164 OFFCURVE",
"31 171 CURVE SMOOTH",
"31 276 LINE",
"37 276 LINE",
"37 -10 LINE SMOOTH",
"37 -19 OFFCURVE",
"41 -26 OFFCURVE",
"48 -29 CURVE",
"55 -33 OFFCURVE",
"62 -33 OFFCURVE",
"69 -29 CURVE",
"76 -26 OFFCURVE",
"80 -19 OFFCURVE",
"80 -10 CURVE SMOOTH",
"80 155 LINE",
"87 155 LINE",
"88 155 LINE",
"88 -10 LINE",
"89 -20 OFFCURVE",
"93 -27 OFFCURVE",
"100 -30 CURVE SMOOTH",
"107 -33 OFFCURVE",
"114 -33 OFFCURVE",
"121 -29 CURVE SMOOTH",
"128 -25 OFFCURVE",
"131 -19 OFFCURVE",
"131 -10 CURVE SMOOTH",
"131 276 LINE",
"136 276 LINE",
"136 171 LINE SMOOTH",
"136 164 OFFCURVE",
"139 160 OFFCURVE",
"144 157 CURVE SMOOTH",
"149 154 OFFCURVE",
"155 154 OFFCURVE",
"160 157 CURVE SMOOTH",
"165 160 OFFCURVE",
"168 164 OFFCURVE",
"168 171 CURVE SMOOTH",
"168 285 LINE SMOOTH",
"168 298 OFFCURVE",
"164 309 OFFCURVE",
"155 319 CURVE",
"146 328 OFFCURVE",
"134 333 OFFCURVE",
"121 333 CURVE SMOOTH",
"84 333 LINE"
);
}
);
width = 168;
}
);
note = uniF202;
unicode = F202;
},
{
export = 0;
glyphname = uniF203;
lastChange = "2016-08-30 05:18:41 +0000";
layers = (
{
layerId = "7CC436F9-9F12-4208-AF2B-E4ABCB0FA991";
paths = (
{
closed = 1;
nodes = (
"332 385 OFFCURVE",
"327 385 OFFCURVE",
"322 382 CURVE",
"224 316 LINE",
"127 382 LINE",
"122 385 OFFCURVE",
"117 385 OFFCURVE",
"112 382 CURVE",
"7 311 LINE",
"2 308 OFFCURVE",
"0 303 OFFCURVE",
"0 297 CURVE SMOOTH",
"0 16 LINE SMOOTH",
"0 10 OFFCURVE",
"3 5 OFFCURVE",
"8 2 CURVE SMOOTH",
"13 -1 OFFCURVE",
"18 -1 OFFCURVE",
"23 2 CURVE",
"120 68 LINE",
"217 2 LINE",
"222 -1 OFFCURVE",
"227 -1 OFFCURVE",
"232 2 CURVE",
"329 68 LINE",
"426 2 LINE",
"427 1 OFFCURVE",
"430 0 OFFCURVE",
"434 0 CURVE SMOOTH",
"436 0 OFFCURVE",
"438 1 OFFCURVE",
"441 2 CURVE",
"446 5 OFFCURVE",
"448 9 OFFCURVE",
"448 16 CURVE SMOOTH",
"448 297 LINE SMOOTH",
"448 303 OFFCURVE",
"446 308 OFFCURVE",
"441 311 CURVE",
"337 382 LINE"
);
},
{
closed = 1;
nodes = (
"32 287 LINE",
"103 337 LINE",
"103 95 LINE",
"32 45 LINE"
);
},
{
closed = 1;
nodes = (
"136 218 OFFCURVE",
"136 218 OFFCURVE",
"137 217 CURVE SMOOTH",
"138 216 LINE",
"148 229 LINE",
"147 230 OFFCURVE",
"142 232 OFFCURVE",
"135 236 CURVE",
"135 337 LINE",
"208 288 LINE",
"208 179 LINE",
"203 181 OFFCURVE",
"197 184 OFFCURVE",
"192 187 CURVE",
"184 174 LINE",
"194 168 OFFCURVE",
"201 165 OFFCURVE",
"204 164 CURVE",
"208 175 LINE",
"208 46 LINE",
"135 95 LINE",
"135 218 LINE"
);
},
{
closed = 1;
nodes = (
"241 160 LINE SMOOTH",
"242 160 OFFCURVE",
"243 160 OFFCURVE",
"245 161 CURVE",
"247 161 OFFCURVE",
"249 161 OFFCURVE",
"250 161 CURVE",
"247 176 LINE",
"240 176 LINE",
"240 288 LINE",
"313 337 LINE",
"313 218 LINE",
"308 223 LINE",
"307 222 OFFCURVE",
"305 220 OFFCURVE",
"304 218 CURVE",
"303 215 OFFCURVE",
"301 214 OFFCURVE",
"300 213 CURVE SMOOTH",
"294 207 LINE",
"306 196 LINE",
"312 202 LINE",
"312 203 LINE",
"313 204 LINE",
"313 95 LINE",
"240 46 LINE",
"240 160 LINE"
);
},
{
closed = 1;
nodes = (
"345 232 LINE",
"346 233 OFFCURVE",
"349 233 OFFCURVE",
"352 234 CURVE",
"357 235 LINE",
"353 251 LINE",
"352 250 OFFCURVE",
"351 250 OFFCURVE",
"350 250 CURVE SMOOTH",
"348 250 OFFCURVE",
"346 250 OFFCURVE",
"345 249 CURVE",
"345 337 LINE",
"416 288 LINE",
"416 46 LINE",
"345 95 LINE"
);
},
{
closed = 1;
nodes = (
"98 228 OFFCURVE",
"98 228 OFFCURVE",
"98 228 CURVE SMOOTH",
"97 228 OFFCURVE",
"97 228 OFFCURVE",
"98 229 CURVE",
"93 244 LINE",
"89 243 OFFCURVE",
"86 241 OFFCURVE",
"84 240 CURVE",
"81 239 OFFCURVE",
"77 236 OFFCURVE",
"72 232 CURVE",
"83 220 LINE",
"88 223 OFFCURVE",
"92 226 OFFCURVE",
"97 227 CURVE"
);
},
{
closed = 1;
nodes = (
"279 170 OFFCURVE",
"286 175 OFFCURVE",
"291 180 CURVE",
"280 192 LINE",
"279 191 OFFCURVE",
"274 187 OFFCURVE",
"265 182 CURVE",
"272 167 LINE"
);
},
{
closed = 1;
nodes = (
"70 200 OFFCURVE",
"72 205 OFFCURVE",
"74 208 CURVE",
"61 217 LINE",
"58 212 OFFCURVE",
"55 205 OFFCURVE",
"52 197 CURVE",
"52 196 LINE",
"67 191 LINE",
"67 192 LINE"
);
},
{
closed = 1;
nodes = (
"165 212 OFFCURVE",
"164 213 OFFCURVE",
"163 214 CURVE",
"151 203 LINE",
"154 200 LINE SMOOTH",
"155 199 OFFCURVE",
"157 197 OFFCURVE",
"160 194 CURVE SMOOTH",
"163 191 OFFCURVE",
"165 188 OFFCURVE",
"166 187 CURVE",
"177 199 LINE",
"173 202 OFFCURVE",
"169 206 OFFCURVE",
"166 210 CURVE"
);
},
{
closed = 1;
nodes = (
"397 218 LINE",
"408 230 LINE",
"398 240 LINE",
"408 250 LINE",
"397 262 LINE",
"386 251 LINE",
"376 262 LINE",
"365 250 LINE",
"375 240 LINE",
"365 230 LINE",
"376 218 LINE",
"386 229 LINE"
);
}
);
width = 448;
}
);
note = uniF203;
unicode = F203;
},
{
export = 0;
glyphname = uniF204;
lastChange = "2016-08-30 05:18:41 +0000";
layers = (
{
layerId = "7CC436F9-9F12-4208-AF2B-E4ABCB0FA991";
paths = (
{
closed = 1;
nodes = (
"0 163 OFFCURVE",
"10 135 OFFCURVE",
"31 110 CURVE SMOOTH",
"51 85 OFFCURVE",
"77 68 OFFCURVE",
"108 60 CURVE",
"110 60 LINE",
"112 59 LINE",
"118 57 OFFCURVE",
"122 53 OFFCURVE",
"124 46 CURVE",
"124 -12 LINE SMOOTH",
"124 -17 OFFCURVE",
"126 -22 OFFCURVE",
"130 -26 CURVE SMOOTH",
"134 -30 OFFCURVE",
"139 -32 OFFCURVE",
"144 -32 CURVE SMOOTH",
"149 -32 OFFCURVE",
"154 -30 OFFCURVE",
"158 -26 CURVE SMOOTH",
"162 -22 OFFCURVE",
"164 -17 OFFCURVE",
"164 -12 CURVE SMOOTH",
"164 46 LINE",
"166 53 OFFCURVE",
"170 57 OFFCURVE",
"176 59 CURVE",
"178 60 LINE",
"180 60 LINE",
"211 68 OFFCURVE",
"237 85 OFFCURVE",
"258 110 CURVE SMOOTH",
"278 135 OFFCURVE",
"288 163 OFFCURVE",
"288 196 CURVE SMOOTH",
"288 210 LINE SMOOTH",
"288 215 OFFCURVE",
"286 220 OFFCURVE",
"282 224 CURVE",
"278 227 OFFCURVE",
"273 229 OFFCURVE",
"268 229 CURVE SMOOTH",
"263 229 OFFCURVE",
"258 227 OFFCURVE",
"255 224 CURVE SMOOTH",
"251 220 OFFCURVE",
"249 215 OFFCURVE",
"249 210 CURVE SMOOTH",
"249 196 LINE SMOOTH",
"249 169 OFFCURVE",
"239 145 OFFCURVE",
"218 124 CURVE SMOOTH",
"197 103 OFFCURVE",
"173 93 OFFCURVE",
"144 93 CURVE SMOOTH",
"115 93 OFFCURVE",
"91 103 OFFCURVE",
"70 124 CURVE SMOOTH",
"49 145 OFFCURVE",
"39 169 OFFCURVE",
"39 196 CURVE SMOOTH",
"39 210 LINE SMOOTH",
"39 215 OFFCURVE",
"37 220 OFFCURVE",
"34 224 CURVE",
"30 227 OFFCURVE",
"25 229 OFFCURVE",
"20 229 CURVE SMOOTH",
"15 229 OFFCURVE",
"10 227 OFFCURVE",
"6 224 CURVE",
"2 220 OFFCURVE",
"0 215 OFFCURVE",
"0 210 CURVE SMOOTH",
"0 196 LINE SMOOTH"
);
},
{
closed = 1;
nodes = (
"67 175 OFFCURVE",
"75 158 OFFCURVE",
"90 143 CURVE SMOOTH",
"105 128 OFFCURVE",
"123 121 OFFCURVE",
"144 121 CURVE SMOOTH",
"165 121 OFFCURVE",
"184 128 OFFCURVE",
"199 143 CURVE SMOOTH",
"214 158 OFFCURVE",
"222 175 OFFCURVE",
"222 196 CURVE SMOOTH",
"222 340 LINE SMOOTH",
"222 361 OFFCURVE",
"214 379 OFFCURVE",
"199 394 CURVE SMOOTH",
"184 409 OFFCURVE",
"165 416 OFFCURVE",
"144 416 CURVE SMOOTH",
"123 416 OFFCURVE",
"105 409 OFFCURVE",
"90 394 CURVE SMOOTH",
"75 379 OFFCURVE",
"67 361 OFFCURVE",
"67 340 CURVE SMOOTH",
"67 196 LINE SMOOTH"
);
}
);
width = 288;
}
);
note = uniF204;
unicode = F204;
},
{
export = 0;
glyphname = uniF205;
lastChange = "2016-08-30 05:18:41 +0000";
layers = (
{
layerId = "7CC436F9-9F12-4208-AF2B-E4ABCB0FA991";
paths = (
{
closed = 1;
nodes = (
"151 375 OFFCURVE",
"141 389 OFFCURVE",
"127 400 CURVE SMOOTH",
"113 411 OFFCURVE",
"97 416 OFFCURVE",
"80 416 CURVE SMOOTH",
"63 416 OFFCURVE",
"47 411 OFFCURVE",
"33 400 CURVE SMOOTH",
"19 389 OFFCURVE",
"9 375 OFFCURVE",
"4 357 CURVE SMOOTH",
"-1 341 OFFCURVE",
"-2 323 OFFCURVE",
"2 302 CURVE SMOOTH",
"4 293 OFFCURVE",
"9 284 OFFCURVE",
"16 274 CURVE SMOOTH",
"19 270 OFFCURVE",
"22 267 OFFCURVE",
"27 265 CURVE",
"28 265 OFFCURVE",
"28 265 OFFCURVE",
"28 265 CURVE",
"28 264 OFFCURVE",
"28 264 OFFCURVE",
"29 264 CURVE",
"33 263 OFFCURVE",
"36 262 OFFCURVE",
"39 261 CURVE",
"52 258 OFFCURVE",
"66 256 OFFCURVE",
"80 256 CURVE SMOOTH",
"81 256 LINE",
"82 256 LINE SMOOTH",
"95 256 OFFCURVE",
"108 258 OFFCURVE",
"121 261 CURVE",
"124 262 OFFCURVE",
"127 263 OFFCURVE",
"131 264 CURVE",
"132 264 OFFCURVE",
"132 264 OFFCURVE",
"132 265 CURVE",
"132 265 OFFCURVE",
"132 265 OFFCURVE",
"133 265 CURVE",
"138 267 OFFCURVE",
"141 270 OFFCURVE",
"144 274 CURVE SMOOTH",
"151 284 OFFCURVE",
"156 293 OFFCURVE",
"158 302 CURVE SMOOTH",
"162 323 OFFCURVE",
"161 341 OFFCURVE",
"156 357 CURVE SMOOTH"
);
},
{
closed = 1;
nodes = (
"117 246 LINE",
"116 246 LINE SMOOTH",
"115 246 OFFCURVE",
"114 246 OFFCURVE",
"113 246 CURVE",
"112 245 OFFCURVE",
"111 245 OFFCURVE",
"110 245 CURVE",
"104 244 OFFCURVE",
"94 243 OFFCURVE",
"81 243 CURVE SMOOTH",
"66 243 OFFCURVE",
"56 244 OFFCURVE",
"50 245 CURVE",
"49 245 OFFCURVE",
"48 245 OFFCURVE",
"47 246 CURVE",
"46 246 OFFCURVE",
"45 246 OFFCURVE",
"44 246 CURVE SMOOTH",
"43 246 LINE",
"42 247 LINE",
"41 247 LINE SMOOTH",
"34 247 OFFCURVE",
"30 243 OFFCURVE",
"30 235 CURVE SMOOTH",
"30 233 LINE",
"31 214 OFFCURVE",
"34 184 OFFCURVE",
"37 143 CURVE SMOOTH",
"40 102 OFFCURVE",
"42 65 OFFCURVE",
"45 34 CURVE SMOOTH",
"47 2 OFFCURVE",
"48 -16 OFFCURVE",
"48 -19 CURVE",
"50 -22 LINE",
"51 -25 OFFCURVE",
"54 -27 OFFCURVE",
"59 -29 CURVE SMOOTH",
"64 -31 OFFCURVE",
"71 -32 OFFCURVE",
"80 -32 CURVE SMOOTH",
"99 -32 OFFCURVE",
"110 -28 OFFCURVE",
"112 -19 CURVE",
"113 -11 OFFCURVE",
"119 73 OFFCURVE",
"131 233 CURVE",
"131 235 LINE SMOOTH",
"131 243 OFFCURVE",
"127 247 OFFCURVE",
"119 247 CURVE SMOOTH",
"118 247 LINE"
);
},
{
closed = 1;
nodes = (
"90 159 OFFCURVE",
"87 155 OFFCURVE",
"80 155 CURVE SMOOTH",
"73 155 OFFCURVE",
"70 159 OFFCURVE",
"70 166 CURVE SMOOTH",
"70 199 LINE SMOOTH",
"70 206 OFFCURVE",
"73 210 OFFCURVE",
"80 210 CURVE SMOOTH",
"87 210 OFFCURVE",
"90 206 OFFCURVE",
"90 199 CURVE SMOOTH",
"90 166 LINE SMOOTH"
);
}
);
width = 160;
}
);
note = uniF205;
unicode = F205;
},
{
export = 0;
glyphname = uniF206;
lastChange = "2016-08-30 05:18:41 +0000";
layers = (
{
layerId = "7CC436F9-9F12-4208-AF2B-E4ABCB0FA991";
paths = (
{
closed = 1;
nodes = (
"40 416 OFFCURVE",
"27 411 OFFCURVE",
"16 401 CURVE SMOOTH",
"5 391 OFFCURVE",
"0 379 OFFCURVE",
"0 364 CURVE SMOOTH",
"0 336 LINE",
"152 336 LINE",
"152 299 LINE",
"0 299 LINE",
"0 256 LINE",
"152 256 LINE",
"152 219 LINE",
"0 219 LINE",
"0 176 LINE",
"152 176 LINE",
"152 139 LINE",
"0 139 LINE",
"0 97 LINE SMOOTH",
"0 82 OFFCURVE",
"5 70 OFFCURVE",
"16 60 CURVE SMOOTH",
"27 50 OFFCURVE",
"40 45 OFFCURVE",
"55 45 CURVE SMOOTH",
"85 45 LINE",
"85 -32 LINE",
"171 -32 LINE",
"171 45 LINE",
"201 45 LINE SMOOTH",
"216 45 OFFCURVE",
"229 50 OFFCURVE",
"240 60 CURVE SMOOTH",
"251 70 OFFCURVE",
"256 82 OFFCURVE",
"256 97 CURVE SMOOTH",
"256 139 LINE",
"197 139 LINE",
"197 176 LINE",
"256 176 LINE",
"256 219 LINE",
"197 219 LINE",
"197 256 LINE",
"256 256 LINE",
"256 299 LINE",
"197 299 LINE",
"197 336 LINE",
"256 336 LINE",
"256 364 LINE SMOOTH",
"256 379 OFFCURVE",
"251 391 OFFCURVE",
"240 401 CURVE SMOOTH",
"229 411 OFFCURVE",
"216 416 OFFCURVE",
"201 416 CURVE SMOOTH",
"55 416 LINE SMOOTH"
);
}
);
width = 256;
}
);
note = uniF206;
unicode = F206;
},
{
export = 0;
glyphname = uniF207;
lastChange = "2016-08-30 05:18:41 +0000";
layers = (
{
layerId = "7CC436F9-9F12-4208-AF2B-E4ABCB0FA991";
paths = (
{
closed = 1;
nodes = (
"22 307 OFFCURVE",
"0 254 OFFCURVE",
"0 192 CURVE SMOOTH",
"0 130 OFFCURVE",
"22 77 OFFCURVE",
"66 34 CURVE SMOOTH",
"109 -10 OFFCURVE",
"162 -32 OFFCURVE",
"224 -32 CURVE SMOOTH",
"286 -32 OFFCURVE",
"339 -10 OFFCURVE",
"383 34 CURVE SMOOTH",
"426 77 OFFCURVE",
"448 130 OFFCURVE",
"448 192 CURVE SMOOTH",
"448 254 OFFCURVE",
"426 307 OFFCURVE",
"383 351 CURVE SMOOTH",
"339 394 OFFCURVE",
"286 416 OFFCURVE",
"224 416 CURVE SMOOTH",
"162 416 OFFCURVE",
"109 394 OFFCURVE",
"66 351 CURVE SMOOTH"
);
},
{
closed = 1;
nodes = (
"96 208 LINE",
"352 208 LINE",
"352 176 LINE",
"96 176 LINE"
);
}
);
width = 448;
}
);
note = uniF207;
unicode = F207;
},
{
export = 0;
glyphname = uniF208;
lastChange = "2016-08-30 05:18:41 +0000";
layers = (
{
layerId = "7CC436F9-9F12-4208-AF2B-E4ABCB0FA991";
paths = (
{
closed = 1;
nodes = (
"22 224 OFFCURVE",
"15 221 OFFCURVE",
"9 215 CURVE",
"3 208 OFFCURVE",
"0 201 OFFCURVE",
"0 192 CURVE SMOOTH",
"0 183 OFFCURVE",
"3 176 OFFCURVE",
"9 170 CURVE",
"15 163 OFFCURVE",
"22 160 OFFCURVE",
"31 160 CURVE SMOOTH",
"353 160 LINE SMOOTH",
"362 160 OFFCURVE",
"369 163 OFFCURVE",
"375 170 CURVE",
"381 176 OFFCURVE",
"384 183 OFFCURVE",
"384 192 CURVE SMOOTH",
"384 201 OFFCURVE",
"381 208 OFFCURVE",
"375 215 CURVE",
"369 221 OFFCURVE",
"362 224 OFFCURVE",
"353 224 CURVE SMOOTH",
"31 224 LINE SMOOTH"
);
}
);
width = 384;
}
);
note = uniF208;
unicode = F208;
},
{
glyphname = uniF209;
lastChange = "2016-08-30 05:28:32 +0000";
layers = (
{
layerId = "7CC436F9-9F12-4208-AF2B-E4ABCB0FA991";
paths = (
{
closed = 1;
nodes = (
"384 224 LINE",
"0 224 LINE",
"0 160 LINE",
"384 160 LINE"
);
}
);
width = 384;
}
);
note = uniF209;
unicode = F209;
},
{
export = 0;
glyphname = uniF20A;
lastChange = "2016-08-30 05:18:41 +0000";
layers = (
{
layerId = "7CC436F9-9F12-4208-AF2B-E4ABCB0FA991";
paths = (
{
closed = 1;
nodes = (
"4 384 OFFCURVE",
"0 380 OFFCURVE",
"0 373 CURVE SMOOTH",
"0 107 LINE SMOOTH",
"0 100 OFFCURVE",
"4 96 OFFCURVE",
"11 96 CURVE SMOOTH",
"437 96 LINE SMOOTH",
"444 96 OFFCURVE",
"448 100 OFFCURVE",
"448 107 CURVE SMOOTH",
"448 373 LINE SMOOTH",
"448 380 OFFCURVE",
"444 384 OFFCURVE",
"437 384 CURVE SMOOTH",
"11 384 LINE SMOOTH"
);
},
{
closed = 1;
nodes = (
"32 352 LINE",
"416 352 LINE",
"416 128 LINE",
"32 128 LINE"
);
},
{
closed = 1;
nodes = (
"304 2 OFFCURVE",
"308 6 OFFCURVE",
"300 12 CURVE",
"297 14 OFFCURVE",
"293 17 OFFCURVE",
"288 20 CURVE",
"282 23 OFFCURVE",
"278 26 OFFCURVE",
"275 29 CURVE",
"272 31 OFFCURVE",
"270 33 OFFCURVE",
"270 35 CURVE SMOOTH",
"270 38 OFFCURVE",
"270 53 OFFCURVE",
"269 80 CURVE",
"224 80 LINE",
"179 80 LINE",
"178 35 LINE SMOOTH",
"178 33 OFFCURVE",
"177 31 OFFCURVE",
"174 29 CURVE",
"171 26 OFFCURVE",
"166 23 OFFCURVE",
"161 20 CURVE",
"155 17 OFFCURVE",
"151 14 OFFCURVE",
"148 12 CURVE SMOOTH",
"145 10 OFFCURVE",
"144 8 OFFCURVE",
"144 7 CURVE",
"143 2 OFFCURVE",
"155 0 OFFCURVE",
"178 0 CURVE SMOOTH",
"270 0 LINE",
"289 1 LINE SMOOTH"
);
}
);
width = 448;
}
);
note = uniF20A;
unicode = F20A;
},
{
export = 0;
glyphname = uniF20B;
lastChange = "2016-08-30 05:18:41 +0000";
layers = (
{
layerId = "7CC436F9-9F12-4208-AF2B-E4ABCB0FA991";
paths = (
{
closed = 1;
nodes = (
"95 167 OFFCURVE",
"100 179 OFFCURVE",
"100 192 CURVE SMOOTH",
"100 205 OFFCURVE",
"95 217 OFFCURVE",
"86 226 CURVE",
"76 235 OFFCURVE",
"64 240 OFFCURVE",
"50 240 CURVE SMOOTH",
"36 240 OFFCURVE",
"24 235 OFFCURVE",
"15 226 CURVE",
"5 217 OFFCURVE",
"0 205 OFFCURVE",
"0 192 CURVE SMOOTH",
"0 179 OFFCURVE",
"5 167 OFFCURVE",
"15 158 CURVE",
"24 149 OFFCURVE",
"36 144 OFFCURVE",
"50 144 CURVE SMOOTH",
"64 144 OFFCURVE",
"76 149 OFFCURVE",
"86 158 CURVE"
);
},
{
closed = 1;
nodes = (
"237 167 OFFCURVE",
"242 179 OFFCURVE",
"242 192 CURVE SMOOTH",
"242 205 OFFCURVE",
"237 217 OFFCURVE",
"228 226 CURVE",
"218 235 OFFCURVE",
"206 240 OFFCURVE",
"192 240 CURVE SMOOTH",
"178 240 OFFCURVE",
"166 235 OFFCURVE",
"157 226 CURVE",
"147 217 OFFCURVE",
"142 205 OFFCURVE",
"142 192 CURVE SMOOTH",
"142 179 OFFCURVE",
"147 167 OFFCURVE",
"157 158 CURVE",
"166 149 OFFCURVE",
"178 144 OFFCURVE",
"192 144 CURVE SMOOTH",
"206 144 OFFCURVE",
"218 149 OFFCURVE",
"228 158 CURVE"
);
},
{
closed = 1;
nodes = (
"379 167 OFFCURVE",
"384 179 OFFCURVE",
"384 192 CURVE SMOOTH",
"384 205 OFFCURVE",
"379 217 OFFCURVE",
"370 226 CURVE",
"360 235 OFFCURVE",
"348 240 OFFCURVE",
"334 240 CURVE SMOOTH",
"320 240 OFFCURVE",
"308 235 OFFCURVE",
"299 226 CURVE",
"289 217 OFFCURVE",
"284 205 OFFCURVE",
"284 192 CURVE SMOOTH",
"284 179 OFFCURVE",
"289 167 OFFCURVE",
"299 158 CURVE",
"308 149 OFFCURVE",
"320 144 OFFCURVE",
"334 144 CURVE SMOOTH",
"348 144 OFFCURVE",
"360 149 OFFCURVE",
"370 158 CURVE"
);
}
);
width = 384;
}
);
note = uniF20B;
unicode = F20B;
},
{
export = 0;
glyphname = uniF20C;
lastChange = "2016-08-30 05:18:41 +0000";
layers = (
{
layerId = "7CC436F9-9F12-4208-AF2B-E4ABCB0FA991";
paths = (
{
closed = 1;
nodes = (
"361 416 OFFCURVE",
"359 416 OFFCURVE",
"357 415 CURVE",
"139 382 LINE",
"132 380 OFFCURVE",
"126 376 OFFCURVE",
"121 370 CURVE",
"116 363 OFFCURVE",
"113 357 OFFCURVE",
"112 350 CURVE",
"112 64 LINE",
"51 64 LINE SMOOTH",
"37 64 OFFCURVE",
"25 60 OFFCURVE",
"15 51 CURVE SMOOTH",
"5 42 OFFCURVE",
"0 30 OFFCURVE",
"0 16 CURVE SMOOTH",
"0 2 OFFCURVE",
"5 -9 OFFCURVE",
"15 -18 CURVE SMOOTH",
"25 -27 OFFCURVE",
"37 -32 OFFCURVE",
"51 -32 CURVE SMOOTH",
"88 -32 LINE SMOOTH",
"103 -32 OFFCURVE",
"116 -26 OFFCURVE",
"126 -14 CURVE",
"128 -12 LINE",
"128 -11 OFFCURVE",
"128 -10 OFFCURVE",
"129 -9 CURVE SMOOTH",
"130 -8 OFFCURVE",
"130 -8 OFFCURVE",
"131 -7 CURVE",
"140 5 OFFCURVE",
"144 19 OFFCURVE",
"144 34 CURVE SMOOTH",
"144 266 LINE",
"352 304 LINE",
"352 112 LINE",
"292 112 LINE SMOOTH",
"278 112 OFFCURVE",
"266 108 OFFCURVE",
"256 99 CURVE",
"245 90 OFFCURVE",
"240 78 OFFCURVE",
"240 64 CURVE SMOOTH",
"240 50 OFFCURVE",
"245 39 OFFCURVE",
"256 30 CURVE",
"266 21 OFFCURVE",
"278 16 OFFCURVE",
"292 16 CURVE SMOOTH",
"329 16 LINE SMOOTH",
"349 16 OFFCURVE",
"363 23 OFFCURVE",
"372 37 CURVE",
"380 48 OFFCURVE",
"384 66 OFFCURVE",
"384 92 CURVE SMOOTH",
"384 395 LINE SMOOTH",
"384 401 OFFCURVE",
"382 406 OFFCURVE",
"378 410 CURVE",
"373 414 OFFCURVE",
"368 416 OFFCURVE",
"362 416 CURVE SMOOTH"
);
}
);
width = 384;
}
);
note = uniF20C;
unicode = F20C;
},
{
export = 0;
glyphname = uniF20D;
lastChange = "2016-08-30 05:18:41 +0000";
layers = (
{
layerId = "7CC436F9-9F12-4208-AF2B-E4ABCB0FA991";
paths = (
{
closed = 1;
nodes = (
"22 224 OFFCURVE",
"15 221 OFFCURVE",
"9 215 CURVE",
"3 208 OFFCURVE",
"0 201 OFFCURVE",
"0 192 CURVE SMOOTH",
"0 183 OFFCURVE",
"3 176 OFFCURVE",
"9 170 CURVE",
"15 163 OFFCURVE",
"22 160 OFFCURVE",
"31 160 CURVE SMOOTH",
"353 160 LINE SMOOTH",
"362 160 OFFCURVE",
"369 163 OFFCURVE",
"375 170 CURVE",
"381 176 OFFCURVE",
"384 183 OFFCURVE",
"384 192 CURVE SMOOTH",
"384 201 OFFCURVE",
"381 208 OFFCURVE",
"375 215 CURVE",
"369 221 OFFCURVE",
"362 224 OFFCURVE",
"353 224 CURVE SMOOTH",
"31 224 LINE SMOOTH"
);
},
{
closed = 1;
nodes = (
"22 352 OFFCURVE",
"15 349 OFFCURVE",
"9 343 CURVE",
"3 336 OFFCURVE",
"0 329 OFFCURVE",
"0 320 CURVE SMOOTH",
"0 311 OFFCURVE",
"3 304 OFFCURVE",
"9 298 CURVE",
"15 291 OFFCURVE",
"22 288 OFFCURVE",
"31 288 CURVE SMOOTH",
"353 288 LINE SMOOTH",
"362 288 OFFCURVE",
"369 291 OFFCURVE",
"375 298 CURVE",
"381 304 OFFCURVE",
"384 311 OFFCURVE",
"384 320 CURVE SMOOTH",
"384 329 OFFCURVE",
"381 336 OFFCURVE",
"375 343 CURVE",
"369 349 OFFCURVE",
"362 352 OFFCURVE",
"353 352 CURVE SMOOTH",
"31 352 LINE SMOOTH"
);
},
{
closed = 1;
nodes = (
"22 96 OFFCURVE",
"15 93 OFFCURVE",
"9 87 CURVE",
"3 80 OFFCURVE",
"0 73 OFFCURVE",
"0 64 CURVE SMOOTH",
"0 55 OFFCURVE",
"3 48 OFFCURVE",
"9 42 CURVE",
"15 35 OFFCURVE",
"22 32 OFFCURVE",
"31 32 CURVE SMOOTH",
"353 32 LINE SMOOTH",
"362 32 OFFCURVE",
"369 35 OFFCURVE",
"375 42 CURVE",
"381 48 OFFCURVE",
"384 55 OFFCURVE",
"384 64 CURVE SMOOTH",
"384 73 OFFCURVE",
"381 80 OFFCURVE",
"375 87 CURVE",
"369 93 OFFCURVE",
"362 96 OFFCURVE",
"353 96 CURVE SMOOTH",
"31 96 LINE SMOOTH"
);
}
);
width = 384;
}
);
note = uniF20D;
unicode = F20D;
},
{
export = 0;
glyphname = uniF20E;
lastChange = "2016-08-30 05:18:41 +0000";
layers = (
{
layerId = "7CC436F9-9F12-4208-AF2B-E4ABCB0FA991";
paths = (
{
closed = 1;
nodes = (
"320 207 LINE",
"0 207 LINE",
"0 175 LINE",
"320 175 LINE"
);
},
{
closed = 1;
nodes = (
"320 303 LINE",
"0 303 LINE",
"0 271 LINE",
"320 271 LINE"
);
},
{
closed = 1;
nodes = (
"320 111 LINE",
"0 111 LINE",
"0 79 LINE",
"320 79 LINE"
);
}
);
width = 320;
}
);
note = uniF20E;
unicode = F20E;
},
{
export = 0;
glyphname = uniF20F;
lastChange = "2016-08-30 05:18:41 +0000";
layers = (
{
layerId = "7CC436F9-9F12-4208-AF2B-E4ABCB0FA991";
paths = (
{
closed = 1;
nodes = (
"141 293 OFFCURVE",
"137 289 OFFCURVE",
"137 282 CURVE SMOOTH",
"137 87 LINE SMOOTH",
"137 66 OFFCURVE",
"131 51 OFFCURVE",
"120 40 CURVE SMOOTH",
"109 29 OFFCURVE",
"95 24 OFFCURVE",
"80 24 CURVE SMOOTH",
"65 24 OFFCURVE",
"51 30 OFFCURVE",
"40 41 CURVE SMOOTH",
"29 52 OFFCURVE",
"23 67 OFFCURVE",
"23 88 CURVE SMOOTH",
"23 322 LINE SMOOTH",
"23 339 OFFCURVE",
"29 350 OFFCURVE",
"40 356 CURVE",
"51 363 OFFCURVE",
"63 363 OFFCURVE",
"75 356 CURVE SMOOTH",
"86 350 OFFCURVE",
"92 339 OFFCURVE",
"92 322 CURVE SMOOTH",
"92 97 LINE SMOOTH",
"92 90 OFFCURVE",
"90 85 OFFCURVE",
"87 80 CURVE",
"84 77 OFFCURVE",
"82 76 OFFCURVE",
"80 76 CURVE SMOOTH",
"73 76 OFFCURVE",
"69 83 OFFCURVE",
"69 97 CURVE SMOOTH",
"69 270 LINE SMOOTH",
"69 278 OFFCURVE",
"65 282 OFFCURVE",
"58 282 CURVE SMOOTH",
"55 282 OFFCURVE",
"53 281 OFFCURVE",
"50 278 CURVE SMOOTH",
"47 275 OFFCURVE",
"46 273 OFFCURVE",
"46 270 CURVE SMOOTH",
"46 97 LINE SMOOTH",
"46 83 OFFCURVE",
"49 72 OFFCURVE",
"56 65 CURVE",
"63 57 OFFCURVE",
"71 53 OFFCURVE",
"80 53 CURVE SMOOTH",
"91 53 OFFCURVE",
"99 57 OFFCURVE",
"105 65 CURVE SMOOTH",
"111 73 OFFCURVE",
"114 84 OFFCURVE",
"114 97 CURVE SMOOTH",
"115 322 LINE SMOOTH",
"115 346 OFFCURVE",
"105 364 OFFCURVE",
"86 376 CURVE SMOOTH",
"68 387 OFFCURVE",
"49 387 OFFCURVE",
"29 376 CURVE SMOOTH",
"10 365 OFFCURVE",
"0 347 OFFCURVE",
"0 322 CURVE SMOOTH",
"0 88 LINE SMOOTH",
"0 61 OFFCURVE",
"8 39 OFFCURVE",
"24 24 CURVE SMOOTH",
"40 8 OFFCURVE",
"59 0 OFFCURVE",
"80 0 CURVE SMOOTH",
"102 0 OFFCURVE",
"121 8 OFFCURVE",
"136 23 CURVE SMOOTH",
"152 39 OFFCURVE",
"160 60 OFFCURVE",
"160 86 CURVE SMOOTH",
"160 281 LINE SMOOTH",
"160 289 OFFCURVE",
"156 293 OFFCURVE",
"149 293 CURVE SMOOTH"
);
}
);
width = 160;
}
);
note = uniF20F;
unicode = F20F;
},
{
export = 0;
glyphname = uniF210;
lastChange = "2016-08-30 05:18:41 +0000";
layers = (
{
layerId = "7CC436F9-9F12-4208-AF2B-E4ABCB0FA991";
paths = (
{
closed = 1;
nodes = (
"96 380 OFFCURVE",
"92 384 OFFCURVE",
"84 384 CURVE SMOOTH",
"12 384 LINE SMOOTH",
"4 384 OFFCURVE",
"0 380 OFFCURVE",
"0 372 CURVE SMOOTH",
"0 12 LINE SMOOTH",
"0 4 OFFCURVE",
"4 0 OFFCURVE",
"12 0 CURVE SMOOTH",
"84 0 LINE SMOOTH",
"92 0 OFFCURVE",
"96 4 OFFCURVE",
"96 12 CURVE SMOOTH",
"96 372 LINE SMOOTH"
);
},
{
closed = 1;
nodes = (
"164 384 OFFCURVE",
"160 380 OFFCURVE",
"160 372 CURVE SMOOTH",
"160 12 LINE SMOOTH",
"160 4 OFFCURVE",
"164 0 OFFCURVE",
"172 0 CURVE SMOOTH",
"244 0 LINE SMOOTH",
"252 0 OFFCURVE",
"256 4 OFFCURVE",
"256 12 CURVE SMOOTH",
"256 372 LINE SMOOTH",
"256 380 OFFCURVE",
"252 384 OFFCURVE",
"244 384 CURVE SMOOTH",
"172 384 LINE SMOOTH"
);
}
);
width = 256;
}
);
note = uniF210;
unicode = F210;
},
{
export = 0;
glyphname = uniF211;
lastChange = "2016-08-30 05:18:41 +0000";
layers = (
{
layerId = "7CC436F9-9F12-4208-AF2B-E4ABCB0FA991";
paths = (
{
closed = 1;
nodes = (
"448 171 LINE",
"448 213 LINE",
"397 213 LINE",
"397 264 LINE",
"355 264 LINE",
"355 213 LINE",
"304 213 LINE",
"304 171 LINE",
"355 171 LINE",
"355 120 LINE",
"397 120 LINE",
"397 171 LINE"
);
},
{
closed = 1;
nodes = (
"379 53 OFFCURVE",
"352 70 OFFCURVE",
"301 89 CURVE",
"299 90 OFFCURVE",
"297 90 OFFCURVE",
"296 91 CURVE",
"265 102 OFFCURVE",
"248 109 OFFCURVE",
"247 110 CURVE",
"243 113 OFFCURVE",
"241 124 OFFCURVE",
"241 144 CURVE SMOOTH",
"241 152 OFFCURVE",
"244 160 OFFCURVE",
"250 168 CURVE",
"256 175 OFFCURVE",
"261 189 OFFCURVE",
"264 208 CURVE SMOOTH",
"265 215 OFFCURVE",
"267 220 OFFCURVE",
"270 224 CURVE SMOOTH",
"273 228 OFFCURVE",
"275 236 OFFCURVE",
"278 248 CURVE",
"280 254 OFFCURVE",
"280 260 OFFCURVE",
"279 265 CURVE",
"277 270 OFFCURVE",
"276 274 OFFCURVE",
"276 275 CURVE",
"277 286 OFFCURVE",
"279 297 OFFCURVE",
"280 308 CURVE SMOOTH",
"281 323 OFFCURVE",
"275 340 OFFCURVE",
"260 358 CURVE SMOOTH",
"245 375 OFFCURVE",
"223 384 OFFCURVE",
"192 384 CURVE SMOOTH",
"161 384 OFFCURVE",
"139 375 OFFCURVE",
"124 358 CURVE SMOOTH",
"109 340 OFFCURVE",
"103 323 OFFCURVE",
"104 308 CURVE SMOOTH",
"105 297 OFFCURVE",
"107 286 OFFCURVE",
"108 275 CURVE",
"108 274 OFFCURVE",
"107 270 OFFCURVE",
"106 265 CURVE",
"104 260 OFFCURVE",
"104 254 OFFCURVE",
"106 248 CURVE",
"109 236 OFFCURVE",
"111 228 OFFCURVE",
"114 224 CURVE SMOOTH",
"117 220 OFFCURVE",
"119 215 OFFCURVE",
"120 208 CURVE SMOOTH",
"123 189 OFFCURVE",
"128 175 OFFCURVE",
"134 168 CURVE",
"140 160 OFFCURVE",
"143 152 OFFCURVE",
"143 144 CURVE SMOOTH",
"143 143 OFFCURVE",
"143 141 OFFCURVE",
"143 138 CURVE SMOOTH",
"143 123 OFFCURVE",
"142 115 OFFCURVE",
"139 112 CURVE SMOOTH",
"136 109 OFFCURVE",
"127 104 OFFCURVE",
"112 99 CURVE SMOOTH",
"101 95 OFFCURVE",
"91 92 OFFCURVE",
"83 89 CURVE SMOOTH",
"32 70 OFFCURVE",
"5 53 OFFCURVE",
"2 40 CURVE",
"1 31 OFFCURVE",
"0 17 OFFCURVE",
"0 0 CURVE",
"192 0 LINE",
"384 0 LINE",
"382 40 LINE"
);
}
);
width = 448;
}
);
note = uniF211;
unicode = F211;
},
{
export = 0;
glyphname = uniF212;
lastChange = "2016-08-30 05:18:41 +0000";
layers = (
{
layerId = "7CC436F9-9F12-4208-AF2B-E4ABCB0FA991";
paths = (
{
closed = 1;
nodes = (
"372 132 OFFCURVE",
"360 136 OFFCURVE",
"359 137 CURVE SMOOTH",
"356 140 OFFCURVE",
"354 148 OFFCURVE",
"354 162 CURVE SMOOTH",
"354 167 OFFCURVE",
"356 173 OFFCURVE",
"361 180 CURVE",
"365 187 OFFCURVE",
"368 196 OFFCURVE",
"370 209 CURVE",
"371 213 OFFCURVE",
"372 217 OFFCURVE",
"374 220 CURVE",
"375 223 OFFCURVE",
"377 229 OFFCURVE",
"379 237 CURVE",
"380 242 OFFCURVE",
"381 246 OFFCURVE",
"380 249 CURVE SMOOTH",
"379 252 OFFCURVE",
"378 254 OFFCURVE",
"378 255 CURVE SMOOTH",
"378 257 OFFCURVE",
"378 260 OFFCURVE",
"379 265 CURVE SMOOTH",
"380 270 OFFCURVE",
"380 274 OFFCURVE",
"380 277 CURVE",
"381 287 OFFCURVE",
"376 298 OFFCURVE",
"367 311 CURVE",
"357 323 OFFCURVE",
"342 329 OFFCURVE",
"322 329 CURVE SMOOTH",
"302 329 OFFCURVE",
"287 323 OFFCURVE",
"278 311 CURVE SMOOTH",
"269 299 OFFCURVE",
"264 288 OFFCURVE",
"265 277 CURVE",
"265 274 OFFCURVE",
"265 270 OFFCURVE",
"266 265 CURVE SMOOTH",
"267 260 OFFCURVE",
"267 257 OFFCURVE",
"267 255 CURVE SMOOTH",
"267 254 OFFCURVE",
"267 252 OFFCURVE",
"266 248 CURVE SMOOTH",
"265 244 OFFCURVE",
"265 240 OFFCURVE",
"266 237 CURVE",
"268 229 OFFCURVE",
"270 223 OFFCURVE",
"272 220 CURVE",
"273 217 OFFCURVE",
"274 213 OFFCURVE",
"275 209 CURVE",
"277 196 OFFCURVE",
"280 187 OFFCURVE",
"284 181 CURVE",
"288 174 OFFCURVE",
"290 168 OFFCURVE",
"290 162 CURVE SMOOTH",
"290 161 OFFCURVE",
"290 160 OFFCURVE",
"290 157 CURVE SMOOTH",
"290 154 OFFCURVE",
"290 152 OFFCURVE",
"290 151 CURVE SMOOTH",
"290 150 OFFCURVE",
"290 148 OFFCURVE",
"290 146 CURVE",
"289 144 OFFCURVE",
"288 143 OFFCURVE",
"287 142 CURVE SMOOTH",
"286 141 OFFCURVE",
"284 139 OFFCURVE",
"282 138 CURVE SMOOTH",
"280 137 OFFCURVE",
"278 135 OFFCURVE",
"275 134 CURVE",
"277 133 OFFCURVE",
"280 132 OFFCURVE",
"285 131 CURVE",
"289 129 OFFCURVE",
"292 128 OFFCURVE",
"294 127 CURVE",
"311 120 OFFCURVE",
"323 113 OFFCURVE",
"332 106 CURVE SMOOTH",
"341 99 OFFCURVE",
"346 93 OFFCURVE",
"347 90 CURVE SMOOTH",
"348 87 OFFCURVE",
"348 82 OFFCURVE",
"349 77 CURVE",
"350 73 OFFCURVE",
"350 47 OFFCURVE",
"350 0 CURVE",
"448 0 LINE",
"446 90 LINE",
"445 99 OFFCURVE",
"427 110 OFFCURVE",
"393 123 CURVE"
);
},
{
closed = 1;
nodes = (
"325 53 OFFCURVE",
"324 69 OFFCURVE",
"323 77 CURVE",
"320 89 OFFCURVE",
"297 103 OFFCURVE",
"254 120 CURVE SMOOTH",
"243 124 OFFCURVE",
"237 126 OFFCURVE",
"235 127 CURVE",
"226 130 OFFCURVE",
"220 133 OFFCURVE",
"216 135 CURVE",
"212 136 OFFCURVE",
"209 139 OFFCURVE",
"207 144 CURVE SMOOTH",
"205 149 OFFCURVE",
"204 152 OFFCURVE",
"204 155 CURVE SMOOTH",
"204 158 OFFCURVE",
"204 164 OFFCURVE",
"204 175 CURVE SMOOTH",
"204 182 OFFCURVE",
"207 188 OFFCURVE",
"212 195 CURVE",
"217 201 OFFCURVE",
"221 212 OFFCURVE",
"224 229 CURVE SMOOTH",
"225 234 OFFCURVE",
"226 239 OFFCURVE",
"229 243 CURVE SMOOTH",
"232 247 OFFCURVE",
"234 254 OFFCURVE",
"236 265 CURVE SMOOTH",
"237 271 OFFCURVE",
"237 276 OFFCURVE",
"236 280 CURVE SMOOTH",
"235 284 OFFCURVE",
"234 287 OFFCURVE",
"234 288 CURVE",
"235 297 OFFCURVE",
"236 307 OFFCURVE",
"237 317 CURVE SMOOTH",
"238 330 OFFCURVE",
"233 344 OFFCURVE",
"220 360 CURVE SMOOTH",
"207 376 OFFCURVE",
"188 384 OFFCURVE",
"162 384 CURVE SMOOTH",
"136 384 OFFCURVE",
"117 376 OFFCURVE",
"105 361 CURVE SMOOTH",
"92 345 OFFCURVE",
"87 330 OFFCURVE",
"88 317 CURVE SMOOTH",
"89 307 OFFCURVE",
"90 297 OFFCURVE",
"91 288 CURVE",
"91 287 OFFCURVE",
"91 284 OFFCURVE",
"90 280 CURVE",
"89 275 OFFCURVE",
"89 270 OFFCURVE",
"90 265 CURVE SMOOTH",
"92 254 OFFCURVE",
"94 247 OFFCURVE",
"97 243 CURVE",
"99 239 OFFCURVE",
"100 234 OFFCURVE",
"101 229 CURVE SMOOTH",
"104 212 OFFCURVE",
"108 201 OFFCURVE",
"113 195 CURVE",
"118 188 OFFCURVE",
"121 182 OFFCURVE",
"121 175 CURVE SMOOTH",
"121 156 OFFCURVE",
"119 144 OFFCURVE",
"116 141 CURVE",
"113 137 OFFCURVE",
"98 130 OFFCURVE",
"71 120 CURVE SMOOTH",
"28 103 OFFCURVE",
"5 89 OFFCURVE",
"2 77 CURVE",
"1 69 OFFCURVE",
"0 43 OFFCURVE",
"0 0 CURVE",
"162 0 LINE",
"325 0 LINE",
"325 30 LINE SMOOTH"
);
}
);
width = 448;
}
);
note = uniF212;
unicode = F212;
},
{
export = 0;
glyphname = uniF213;
lastChange = "2016-08-30 05:18:41 +0000";
layers = (
{
layerId = "7CC436F9-9F12-4208-AF2B-E4ABCB0FA991";
paths = (
{
closed = 1;
nodes = (
"379 53 OFFCURVE",
"352 70 OFFCURVE",
"301 89 CURVE",
"299 90 OFFCURVE",
"297 90 OFFCURVE",
"296 91 CURVE",
"265 102 OFFCURVE",
"248 109 OFFCURVE",
"247 110 CURVE",
"243 113 OFFCURVE",
"241 124 OFFCURVE",
"241 144 CURVE SMOOTH",
"241 152 OFFCURVE",
"244 160 OFFCURVE",
"250 168 CURVE",
"256 175 OFFCURVE",
"261 189 OFFCURVE",
"264 208 CURVE SMOOTH",
"265 215 OFFCURVE",
"267 220 OFFCURVE",
"270 224 CURVE SMOOTH",
"273 228 OFFCURVE",
"275 236 OFFCURVE",
"278 248 CURVE",
"280 254 OFFCURVE",
"280 260 OFFCURVE",
"279 265 CURVE",
"277 270 OFFCURVE",
"276 274 OFFCURVE",
"276 275 CURVE",
"277 286 OFFCURVE",
"279 297 OFFCURVE",
"280 308 CURVE SMOOTH",
"281 323 OFFCURVE",
"275 340 OFFCURVE",
"260 358 CURVE SMOOTH",
"245 375 OFFCURVE",
"223 384 OFFCURVE",
"192 384 CURVE SMOOTH",
"161 384 OFFCURVE",
"139 375 OFFCURVE",
"124 358 CURVE SMOOTH",
"109 340 OFFCURVE",
"103 323 OFFCURVE",
"104 308 CURVE SMOOTH",
"105 297 OFFCURVE",
"107 286 OFFCURVE",
"108 275 CURVE",
"108 274 OFFCURVE",
"107 270 OFFCURVE",
"106 265 CURVE",
"104 260 OFFCURVE",
"104 254 OFFCURVE",
"106 248 CURVE",
"109 236 OFFCURVE",
"111 228 OFFCURVE",
"114 224 CURVE SMOOTH",
"117 220 OFFCURVE",
"119 215 OFFCURVE",
"120 208 CURVE SMOOTH",
"123 189 OFFCURVE",
"128 175 OFFCURVE",
"134 168 CURVE",
"140 160 OFFCURVE",
"143 152 OFFCURVE",
"143 144 CURVE SMOOTH",
"143 143 OFFCURVE",
"143 141 OFFCURVE",
"143 138 CURVE SMOOTH",
"143 123 OFFCURVE",
"142 115 OFFCURVE",
"139 112 CURVE SMOOTH",
"136 109 OFFCURVE",
"127 104 OFFCURVE",
"112 99 CURVE SMOOTH",
"101 95 OFFCURVE",
"91 92 OFFCURVE",
"83 89 CURVE SMOOTH",
"32 70 OFFCURVE",
"5 53 OFFCURVE",
"2 40 CURVE",
"1 31 OFFCURVE",
"0 17 OFFCURVE",
"0 0 CURVE",
"192 0 LINE",
"384 0 LINE",
"382 40 LINE"
);
}
);
width = 384;
}
);
note = uniF213;
unicode = F213;
},
{
export = 0;
glyphname = uniF214;
lastChange = "2016-08-30 05:18:41 +0000";
layers = (
{
layerId = "7CC436F9-9F12-4208-AF2B-E4ABCB0FA991";
paths = (
{
closed = 1;
nodes = (
"250 141 OFFCURVE",
"253 142 OFFCURVE",
"258 141 CURVE SMOOTH",
"320 128 LINE",
"448 79 LINE",
"448 96 OFFCURVE",
"445 106 OFFCURVE",
"439 110 CURVE SMOOTH",
"256 241 LINE",
"251 354 LINE",
"251 368 OFFCURVE",
"248 385 OFFCURVE",
"243 404 CURVE",
"237 423 OFFCURVE",
"231 432 OFFCURVE",
"224 432 CURVE SMOOTH",
"217 432 OFFCURVE",
"211 423 OFFCURVE",
"206 404 CURVE",
"200 385 OFFCURVE",
"197 368 OFFCURVE",
"197 354 CURVE SMOOTH",
"197 321 OFFCURVE",
"195 283 OFFCURVE",
"192 241 CURVE",
"9 110 LINE SMOOTH",
"3 106 OFFCURVE",
"0 96 OFFCURVE",
"0 79 CURVE",
"128 128 LINE",
"190 141 LINE",
"192 142 LINE",
"193 142 OFFCURVE",
"195 142 OFFCURVE",
"196 141 CURVE SMOOTH",
"197 140 OFFCURVE",
"198 138 OFFCURVE",
"198 136 CURVE SMOOTH",
"198 87 OFFCURVE",
"200 53 OFFCURVE",
"204 34 CURVE",
"205 33 OFFCURVE",
"204 31 OFFCURVE",
"202 30 CURVE SMOOTH",
"200 29 OFFCURVE",
"199 28 OFFCURVE",
"199 27 CURVE",
"147 -6 LINE",
"146 -7 OFFCURVE",
"145 -10 OFFCURVE",
"145 -14 CURVE",
"144 -32 LINE",
"212 -16 LINE",
"224 -48 LINE",
"236 -16 LINE",
"304 -32 LINE",
"303 -14 LINE",
"300 -6 LINE",
"249 27 LINE",
"249 28 OFFCURVE",
"248 29 OFFCURVE",
"246 30 CURVE SMOOTH",
"244 31 OFFCURVE",
"243 33 OFFCURVE",
"244 34 CURVE",
"248 53 OFFCURVE",
"250 87 OFFCURVE",
"250 136 CURVE SMOOTH"
);
}
);
width = 448;
}
);
note = uniF214;
unicode = F214;
},
{
export = 0;
glyphname = uniF215;
lastChange = "2016-08-30 05:18:41 +0000";
layers = (
{
layerId = "7CC436F9-9F12-4208-AF2B-E4ABCB0FA991";
paths = (
{
closed = 1;
nodes = (
"28 383 OFFCURVE",
"24 384 OFFCURVE",
"20 384 CURVE SMOOTH",
"15 384 OFFCURVE",
"10 382 OFFCURVE",
"6 378 CURVE SMOOTH",
"2 374 OFFCURVE",
"0 369 OFFCURVE",
"0 364 CURVE SMOOTH",
"0 20 LINE SMOOTH",
"0 15 OFFCURVE",
"2 10 OFFCURVE",
"6 6 CURVE SMOOTH",
"10 2 OFFCURVE",
"15 0 OFFCURVE",
"20 0 CURVE SMOOTH",
"23 0 OFFCURVE",
"27 1 OFFCURVE",
"31 3 CURVE",
"309 169 LINE",
"316 175 OFFCURVE",
"320 183 OFFCURVE",
"320 192 CURVE SMOOTH",
"320 201 OFFCURVE",
"316 209 OFFCURVE",
"309 215 CURVE",
"31 381 LINE"
);
}
);
width = 320;
}
);
note = uniF215;
unicode = F215;
},
{
export = 0;
glyphname = uniF216;
lastChange = "2016-08-30 05:18:41 +0000";
layers = (
{
layerId = "7CC436F9-9F12-4208-AF2B-E4ABCB0FA991";
paths = (
{
closed = 1;
nodes = (
"22 307 OFFCURVE",
"0 254 OFFCURVE",
"0 192 CURVE SMOOTH",
"0 130 OFFCURVE",
"22 77 OFFCURVE",
"66 34 CURVE SMOOTH",
"109 -10 OFFCURVE",
"162 -32 OFFCURVE",
"224 -32 CURVE SMOOTH",
"286 -32 OFFCURVE",
"339 -10 OFFCURVE",
"383 34 CURVE SMOOTH",
"426 77 OFFCURVE",
"448 130 OFFCURVE",
"448 192 CURVE SMOOTH",
"448 254 OFFCURVE",
"426 307 OFFCURVE",
"383 351 CURVE SMOOTH",
"339 394 OFFCURVE",
"286 416 OFFCURVE",
"224 416 CURVE SMOOTH",
"162 416 OFFCURVE",
"109 394 OFFCURVE",
"66 351 CURVE SMOOTH"
);
},
{
closed = 1;
nodes = (
"240 64 LINE",
"208 64 LINE",
"208 176 LINE",
"96 176 LINE",
"96 208 LINE",
"208 208 LINE",
"208 320 LINE",
"240 320 LINE",
"240 208 LINE",
"352 208 LINE",
"352 176 LINE",
"240 176 LINE"
);
}
);
width = 448;
}
);
note = uniF216;
unicode = F216;
},
{
export = 0;
glyphname = uniF217;
lastChange = "2016-08-30 05:18:41 +0000";
layers = (
{
layerId = "7CC436F9-9F12-4208-AF2B-E4ABCB0FA991";
paths = (
{
closed = 1;
nodes = (
"224 353 LINE SMOOTH",
"224 362 OFFCURVE",
"221 369 OFFCURVE",
"215 375 CURVE",
"208 381 OFFCURVE",
"201 384 OFFCURVE",
"192 384 CURVE SMOOTH",
"183 384 OFFCURVE",
"176 381 OFFCURVE",
"170 375 CURVE",
"163 369 OFFCURVE",
"160 362 OFFCURVE",
"160 353 CURVE SMOOTH",
"160 224 LINE",
"31 224 LINE SMOOTH",
"22 224 OFFCURVE",
"15 221 OFFCURVE",
"9 215 CURVE",
"3 208 OFFCURVE",
"0 201 OFFCURVE",
"0 192 CURVE SMOOTH",
"0 183 OFFCURVE",
"3 176 OFFCURVE",
"9 170 CURVE",
"15 163 OFFCURVE",
"22 160 OFFCURVE",
"31 160 CURVE SMOOTH",
"160 160 LINE",
"160 31 LINE SMOOTH",
"160 22 OFFCURVE",
"163 15 OFFCURVE",
"170 9 CURVE",
"176 3 OFFCURVE",
"183 0 OFFCURVE",
"192 0 CURVE SMOOTH",
"201 0 OFFCURVE",
"208 3 OFFCURVE",
"215 9 CURVE",
"221 15 OFFCURVE",
"224 22 OFFCURVE",
"224 31 CURVE SMOOTH",
"224 160 LINE",
"353 160 LINE SMOOTH",
"362 160 OFFCURVE",
"369 163 OFFCURVE",
"375 170 CURVE",
"381 176 OFFCURVE",
"384 183 OFFCURVE",
"384 192 CURVE SMOOTH",
"384 201 OFFCURVE",
"381 208 OFFCURVE",
"375 215 CURVE",
"369 221 OFFCURVE",
"362 224 OFFCURVE",
"353 224 CURVE SMOOTH",
"224 224 LINE"
);
}
);
width = 384;
}
);
note = uniF217;
unicode = F217;
},
{
glyphname = uniF218;
lastChange = "2016-08-30 05:28:45 +0000";
layers = (
{
layerId = "7CC436F9-9F12-4208-AF2B-E4ABCB0FA991";
paths = (
{
closed = 1;
nodes = (
"224 384 LINE",
"160 384 LINE",
"160 224 LINE",
"0 224 LINE",
"0 160 LINE",
"160 160 LINE",
"160 0 LINE",
"224 0 LINE",
"224 160 LINE",
"384 160 LINE",
"384 224 LINE",
"224 224 LINE"
);
}
);
width = 384;
}
);
note = uniF218;
unicode = F218;
},
{
export = 0;
glyphname = uniF219;
lastChange = "2016-08-30 05:18:41 +0000";
layers = (
{
layerId = "7CC436F9-9F12-4208-AF2B-E4ABCB0FA991";
paths = (
{
closed = 1;
nodes = (
"134 -32 LINE",
"156 96 LINE",
"263 96 LINE",
"241 -32 LINE",
"304 -32 LINE",
"326 96 LINE",
"433 96 LINE",
"433 150 LINE",
"334 150 LINE",
"346 234 LINE",
"448 234 LINE",
"448 288 LINE",
"355 288 LINE",
"377 416 LINE",
"314 416 LINE",
"292 288 LINE",
"186 288 LINE",
"208 416 LINE",
"144 416 LINE",
"122 288 LINE",
"15 288 LINE",
"15 234 LINE",
"114 234 LINE",
"101 150 LINE",
"0 150 LINE",
"0 96 LINE",
"93 96 LINE",
"71 -32 LINE"
);
},
{
closed = 1;
nodes = (
"271 150 LINE",
"165 150 LINE",
"177 234 LINE",
"283 234 LINE"
);
}
);
width = 448;
}
);
note = uniF219;
unicode = F219;
},
{
export = 0;
glyphname = uniF21A;
lastChange = "2016-08-30 05:18:41 +0000";
layers = (
{
layerId = "7CC436F9-9F12-4208-AF2B-E4ABCB0FA991";
paths = (
{
closed = 1;
nodes = (
"352 384 LINE",
"96 384 LINE",
"96 320 LINE",
"56 320 LINE SMOOTH",
"41 320 OFFCURVE",
"28 315 OFFCURVE",
"17 306 CURVE SMOOTH",
"6 297 OFFCURVE",
"0 283 OFFCURVE",
"0 265 CURVE SMOOTH",
"0 142 LINE SMOOTH",
"0 124 OFFCURVE",
"6 109 OFFCURVE",
"17 98 CURVE",
"28 86 OFFCURVE",
"41 80 OFFCURVE",
"56 80 CURVE SMOOTH",
"96 80 LINE",
"96 -32 LINE",
"101 -32 LINE",
"112 -32 LINE",
"336 -32 LINE",
"344 -32 LINE",
"352 -32 LINE",
"352 80 LINE",
"392 80 LINE SMOOTH",
"407 80 OFFCURVE",
"420 85 OFFCURVE",
"431 96 CURVE",
"442 106 OFFCURVE",
"448 119 OFFCURVE",
"448 134 CURVE SMOOTH",
"448 265 LINE SMOOTH",
"448 282 OFFCURVE",
"443 296 OFFCURVE",
"432 306 CURVE",
"421 315 OFFCURVE",
"407 320 OFFCURVE",
"392 320 CURVE SMOOTH",
"352 320 LINE"
);
},
{
closed = 1;
nodes = (
"112 160 LINE",
"336 160 LINE",
"336 -16 LINE",
"112 -16 LINE"
);
},
{
closed = 1;
nodes = (
"112 368 LINE",
"336 368 LINE",
"336 320 LINE",
"112 320 LINE"
);
},
{
closed = 1;
nodes = (
"367 272 LINE",
"384 272 LINE",
"384 256 LINE",
"367 256 LINE"
);
},
{
closed = 1;
nodes = (
"320 128 LINE",
"128 128 LINE",
"128 112 LINE",
"320 112 LINE"
);
},
{
closed = 1;
nodes = (
"320 80 LINE",
"128 80 LINE",
"128 64 LINE",
"320 64 LINE"
);
},
{
closed = 1;
nodes = (
"320 32 LINE",
"128 32 LINE",
"128 16 LINE",
"320 16 LINE"
);
}
);
width = 448;
}
);
note = uniF21A;
unicode = F21A;
},
{
export = 0;
glyphname = uniF21B;
lastChange = "2016-08-30 05:18:41 +0000";
layers = (
{
layerId = "7CC436F9-9F12-4208-AF2B-E4ABCB0FA991";
paths = (
{
closed = 1;
nodes = (
"396 86 OFFCURVE",
"416 135 OFFCURVE",
"416 192 CURVE SMOOTH",
"416 249 OFFCURVE",
"396 298 OFFCURVE",
"355 339 CURVE SMOOTH",
"314 380 OFFCURVE",
"265 400 OFFCURVE",
"208 400 CURVE SMOOTH",
"151 400 OFFCURVE",
"102 380 OFFCURVE",
"61 339 CURVE SMOOTH",
"20 298 OFFCURVE",
"0 249 OFFCURVE",
"0 192 CURVE SMOOTH",
"0 135 OFFCURVE",
"20 86 OFFCURVE",
"61 45 CURVE SMOOTH",
"102 4 OFFCURVE",
"151 -16 OFFCURVE",
"208 -16 CURVE SMOOTH",
"265 -16 OFFCURVE",
"314 4 OFFCURVE",
"355 45 CURVE SMOOTH"
);
}
);
width = 416;
}
);
note = uniF21B;
unicode = F21B;
},
{
export = 0;
glyphname = uniF21C;
lastChange = "2016-08-30 05:18:41 +0000";
layers = (
{
layerId = "7CC436F9-9F12-4208-AF2B-E4ABCB0FA991";
paths = (
{
closed = 1;
nodes = (
"383 208 LINE",
"381 236 OFFCURVE",
"373 262 OFFCURVE",
"360 285 CURVE SMOOTH",
"331 338 OFFCURVE",
"286 370 OFFCURVE",
"227 381 CURVE",
"225 381 LINE",
"223 381 LINE",
"213 383 OFFCURVE",
"203 384 OFFCURVE",
"192 384 CURVE SMOOTH",
"192 384 LINE SMOOTH",
"147 384 OFFCURVE",
"108 370 OFFCURVE",
"73 342 CURVE SMOOTH",
"38 314 OFFCURVE",
"15 278 OFFCURVE",
"5 235 CURVE",
"5 234 OFFCURVE",
"5 234 OFFCURVE",
"4 233 CURVE",
"4 232 LINE",
"4 231 LINE",
"4 228 LINE",
"4 227 LINE",
"3 226 LINE",
"3 225 LINE SMOOTH",
"3 224 OFFCURVE",
"3 224 OFFCURVE",
"3 223 CURVE",
"2 222 OFFCURVE",
"2 222 OFFCURVE",
"2 221 CURVE",
"1 213 OFFCURVE",
"0 207 OFFCURVE",
"0 202 CURVE SMOOTH",
"0 201 LINE",
"0 197 LINE",
"0 192 LINE",
"0 187 LINE",
"0 183 LINE",
"0 182 LINE SMOOTH",
"0 177 OFFCURVE",
"1 171 OFFCURVE",
"2 163 CURVE",
"2 162 OFFCURVE",
"2 162 OFFCURVE",
"3 161 CURVE",
"3 160 OFFCURVE",
"3 160 OFFCURVE",
"3 159 CURVE SMOOTH",
"3 158 LINE",
"4 156 LINE",
"4 156 OFFCURVE",
"4 156 OFFCURVE",
"4 155 CURVE SMOOTH",
"4 153 LINE",
"4 152 LINE",
"5 151 OFFCURVE",
"5 150 OFFCURVE",
"5 149 CURVE",
"15 106 OFFCURVE",
"38 70 OFFCURVE",
"73 42 CURVE SMOOTH",
"108 14 OFFCURVE",
"147 0 OFFCURVE",
"192 0 CURVE SMOOTH",
"234 0 OFFCURVE",
"273 14 OFFCURVE",
"309 41 CURVE",
"316 47 LINE",
"273 93 LINE",
"267 88 LINE",
"245 72 OFFCURVE",
"220 64 OFFCURVE",
"192 64 CURVE SMOOTH",
"157 64 OFFCURVE",
"127 77 OFFCURVE",
"102 102 CURVE SMOOTH",
"77 127 OFFCURVE",
"64 157 OFFCURVE",
"64 192 CURVE SMOOTH",
"64 227 OFFCURVE",
"77 258 OFFCURVE",
"102 283 CURVE SMOOTH",
"127 308 OFFCURVE",
"157 320 OFFCURVE",
"192 320 CURVE SMOOTH",
"225 320 OFFCURVE",
"255 309 OFFCURVE",
"280 288 CURVE SMOOTH",
"305 267 OFFCURVE",
"319 240 OFFCURVE",
"322 208 CURVE",
"248 208 LINE",
"352 96 LINE",
"448 208 LINE"
);
}
);
width = 448;
}
);
note = uniF21C;
unicode = F21C;
},
{
export = 0;
glyphname = uniF21D;
lastChange = "2016-08-30 05:18:41 +0000";
layers = (
{
layerId = "7CC436F9-9F12-4208-AF2B-E4ABCB0FA991";
paths = (
{
closed = 1;
nodes = (
"105 192 LINE",
"257 58 LINE",
"257 150 LINE",
"295 150 OFFCURVE",
"325 144 OFFCURVE",
"347 132 CURVE SMOOTH",
"369 119 OFFCURVE",
"392 91 OFFCURVE",
"416 48 CURVE",
"414 70 LINE SMOOTH",
"413 84 OFFCURVE",
"410 101 OFFCURVE",
"404 122 CURVE SMOOTH",
"398 142 OFFCURVE",
"390 162 OFFCURVE",
"380 183 CURVE",
"369 203 OFFCURVE",
"353 220 OFFCURVE",
"332 235 CURVE SMOOTH",
"311 249 OFFCURVE",
"286 256 OFFCURVE",
"257 256 CURVE",
"257 336 LINE"
);
},
{
closed = 1;
nodes = (
"144 124 LINE",
"62 192 LINE",
"144 271 LINE",
"144 328 LINE",
"0 192 LINE",
"144 66 LINE"
);
}
);
width = 416;
}
);
note = uniF21D;
unicode = F21D;
},
{
export = 0;
glyphname = uniF21E;
lastChange = "2016-08-30 05:18:41 +0000";
layers = (
{
layerId = "7CC436F9-9F12-4208-AF2B-E4ABCB0FA991";
paths = (
{
closed = 1;
nodes = (
"376 84 OFFCURVE",
"369 101 OFFCURVE",
"359 122 CURVE",
"348 142 OFFCURVE",
"335 162 OFFCURVE",
"320 183 CURVE SMOOTH",
"305 203 OFFCURVE",
"283 220 OFFCURVE",
"255 235 CURVE",
"226 249 OFFCURVE",
"195 256 OFFCURVE",
"160 256 CURVE",
"160 336 LINE",
"0 192 LINE",
"160 58 LINE",
"160 150 LINE",
"219 150 OFFCURVE",
"265 144 OFFCURVE",
"298 131 CURVE SMOOTH",
"331 118 OFFCURVE",
"359 91 OFFCURVE",
"384 48 CURVE",
"379 70 LINE SMOOTH"
);
}
);
width = 384;
}
);
note = uniF21E;
unicode = F21E;
},
{
export = 0;
glyphname = uniF21F;
lastChange = "2016-08-30 05:18:41 +0000";
layers = (
{
layerId = "7CC436F9-9F12-4208-AF2B-E4ABCB0FA991";
paths = (
{
closed = 1;
nodes = (
"310 171 OFFCURVE",
"317 197 OFFCURVE",
"317 225 CURVE SMOOTH",
"317 269 OFFCURVE",
"302 307 OFFCURVE",
"271 338 CURVE SMOOTH",
"240 369 OFFCURVE",
"202 384 OFFCURVE",
"159 384 CURVE SMOOTH",
"116 384 OFFCURVE",
"78 369 OFFCURVE",
"47 338 CURVE SMOOTH",
"16 307 OFFCURVE",
"0 269 OFFCURVE",
"0 225 CURVE SMOOTH",
"0 181 OFFCURVE",
"16 144 OFFCURVE",
"47 113 CURVE SMOOTH",
"78 82 OFFCURVE",
"116 66 OFFCURVE",
"159 66 CURVE SMOOTH",
"187 66 OFFCURVE",
"214 74 OFFCURVE",
"239 89 CURVE",
"323 3 LINE SMOOTH",
"325 1 OFFCURVE",
"327 0 OFFCURVE",
"330 0 CURVE SMOOTH",
"333 0 OFFCURVE",
"336 1 OFFCURVE",
"338 3 CURVE SMOOTH",
"381 47 LINE SMOOTH",
"386 52 OFFCURVE",
"386 56 OFFCURVE",
"381 61 CURVE SMOOTH",
"296 147 LINE"
);
},
{
closed = 1;
nodes = (
"246 275 OFFCURVE",
"255 252 OFFCURVE",
"255 225 CURVE SMOOTH",
"255 198 OFFCURVE",
"246 176 OFFCURVE",
"227 157 CURVE SMOOTH",
"208 138 OFFCURVE",
"186 128 OFFCURVE",
"159 128 CURVE SMOOTH",
"132 128 OFFCURVE",
"110 138 OFFCURVE",
"91 157 CURVE SMOOTH",
"72 176 OFFCURVE",
"62 198 OFFCURVE",
"62 225 CURVE SMOOTH",
"62 252 OFFCURVE",
"72 275 OFFCURVE",
"91 294 CURVE SMOOTH",
"110 313 OFFCURVE",
"132 322 OFFCURVE",
"159 322 CURVE SMOOTH",
"186 322 OFFCURVE",
"208 313 OFFCURVE",
"227 294 CURVE SMOOTH"
);
}
);
width = 384;
}
);
note = uniF21F;
unicode = F21F;
},
{
export = 0;
glyphname = uniF220;
lastChange = "2016-08-30 05:18:41 +0000";
layers = (
{
layerId = "7CC436F9-9F12-4208-AF2B-E4ABCB0FA991";
paths = (
{
closed = 1;
nodes = (
"38 250 LINE",
"96 250 LINE",
"100 256 LINE",
"103 259 OFFCURVE",
"109 264 OFFCURVE",
"116 271 CURVE",
"123 277 OFFCURVE",
"130 283 OFFCURVE",
"139 288 CURVE",
"19 288 LINE SMOOTH",
"6 288 OFFCURVE",
"0 282 OFFCURVE",
"0 269 CURVE SMOOTH",
"0 51 LINE SMOOTH",
"0 46 OFFCURVE",
"2 41 OFFCURVE",
"6 38 CURVE",
"9 34 OFFCURVE",
"14 32 OFFCURVE",
"19 32 CURVE SMOOTH",
"307 32 LINE SMOOTH",
"320 32 OFFCURVE",
"326 38 OFFCURVE",
"326 51 CURVE SMOOTH",
"326 160 LINE",
"288 129 LINE",
"288 70 LINE",
"38 70 LINE"
);
},
{
closed = 1;
nodes = (
"384 256 LINE",
"256 352 LINE",
"256 292 LINE",
"227 292 OFFCURVE",
"202 286 OFFCURVE",
"181 275 CURVE SMOOTH",
"159 263 OFFCURVE",
"143 250 OFFCURVE",
"133 235 CURVE",
"122 220 OFFCURVE",
"114 204 OFFCURVE",
"108 185 CURVE SMOOTH",
"102 166 OFFCURVE",
"99 153 OFFCURVE",
"98 146 CURVE SMOOTH",
"97 139 OFFCURVE",
"96 133 OFFCURVE",
"96 128 CURVE",
"119 165 OFFCURVE",
"141 191 OFFCURVE",
"163 204 CURVE SMOOTH",
"184 217 OFFCURVE",
"215 224 OFFCURVE",
"256 224 CURVE",
"256 160 LINE"
);
}
);
width = 384;
}
);
note = uniF220;
unicode = F220;
},
{
export = 0;
glyphname = uniF221;
lastChange = "2016-08-30 05:18:41 +0000";
layers = (
{
layerId = "7CC436F9-9F12-4208-AF2B-E4ABCB0FA991";
paths = (
{
closed = 1;
nodes = (
"367 219 LINE",
"448 303 LINE",
"367 384 LINE",
"367 330 LINE",
"338 330 LINE SMOOTH",
"318 330 OFFCURVE",
"300 327 OFFCURVE",
"283 321 CURVE SMOOTH",
"266 315 OFFCURVE",
"251 305 OFFCURVE",
"236 292 CURVE",
"221 278 OFFCURVE",
"210 266 OFFCURVE",
"202 257 CURVE SMOOTH",
"193 247 OFFCURVE",
"182 233 OFFCURVE",
"168 214 CURVE SMOOTH",
"153 195 OFFCURVE",
"144 182 OFFCURVE",
"140 177 CURVE SMOOTH",
"135 171 OFFCURVE",
"127 162 OFFCURVE",
"115 150 CURVE",
"103 137 OFFCURVE",
"92 129 OFFCURVE",
"82 125 CURVE",
"71 120 OFFCURVE",
"60 118 OFFCURVE",
"47 118 CURVE SMOOTH",
"0 118 LINE",
"0 55 LINE",
"47 55 LINE SMOOTH",
"66 55 OFFCURVE",
"85 58 OFFCURVE",
"102 65 CURVE",
"119 71 OFFCURVE",
"135 81 OFFCURVE",
"150 96 CURVE SMOOTH",
"165 110 OFFCURVE",
"176 122 OFFCURVE",
"184 132 CURVE",
"192 141 OFFCURVE",
"203 156 OFFCURVE",
"218 175 CURVE SMOOTH",
"231 192 OFFCURVE",
"240 205 OFFCURVE",
"246 212 CURVE SMOOTH",
"252 219 OFFCURVE",
"261 227 OFFCURVE",
"272 238 CURVE SMOOTH",
"283 249 OFFCURVE",
"293 256 OFFCURVE",
"304 261 CURVE",
"314 265 OFFCURVE",
"325 267 OFFCURVE",
"338 267 CURVE SMOOTH",
"367 267 LINE"
);
},
{
closed = 1;
nodes = (
"122 231 OFFCURVE",
"124 234 OFFCURVE",
"127 237 CURVE",
"129 240 OFFCURVE",
"131 243 OFFCURVE",
"132 245 CURVE",
"144 261 OFFCURVE",
"153 273 OFFCURVE",
"160 281 CURVE",
"126 313 OFFCURVE",
"88 329 OFFCURVE",
"47 329 CURVE SMOOTH",
"0 329 LINE",
"0 266 LINE",
"47 266 LINE",
"73 265 OFFCURVE",
"98 253 OFFCURVE",
"121 230 CURVE"
);
},
{
closed = 1;
nodes = (
"310 118 OFFCURVE",
"284 131 OFFCURVE",
"260 157 CURVE",
"259 156 OFFCURVE",
"258 155 OFFCURVE",
"257 153 CURVE",
"255 151 OFFCURVE",
"254 149 OFFCURVE",
"253 148 CURVE",
"235 124 OFFCURVE",
"224 110 OFFCURVE",
"221 107 CURVE",
"256 72 OFFCURVE",
"295 54 OFFCURVE",
"338 54 CURVE SMOOTH",
"367 54 LINE",
"367 0 LINE",
"448 81 LINE",
"367 165 LINE",
"367 118 LINE",
"338 118 LINE SMOOTH"
);
}
);
width = 448;
}
);
note = uniF221;
unicode = F221;
},
{
export = 0;
glyphname = uniF222;
lastChange = "2016-08-30 05:18:41 +0000";
layers = (
{
layerId = "7CC436F9-9F12-4208-AF2B-E4ABCB0FA991";
paths = (
{
closed = 1;
nodes = (
"4 352 OFFCURVE",
"0 348 OFFCURVE",
"0 340 CURVE SMOOTH",
"0 44 LINE SMOOTH",
"0 36 OFFCURVE",
"4 32 OFFCURVE",
"12 32 CURVE SMOOTH",
"20 32 LINE SMOOTH",
"28 32 OFFCURVE",
"32 36 OFFCURVE",
"32 44 CURVE SMOOTH",
"32 157 LINE",
"219 35 LINE SMOOTH",
"222 33 OFFCURVE",
"225 32 OFFCURVE",
"227 32 CURVE SMOOTH",
"231 32 OFFCURVE",
"235 34 OFFCURVE",
"238 37 CURVE SMOOTH",
"241 40 OFFCURVE",
"243 44 OFFCURVE",
"243 49 CURVE SMOOTH",
"243 113 LINE",
"361 35 LINE SMOOTH",
"364 33 OFFCURVE",
"367 32 OFFCURVE",
"369 32 CURVE SMOOTH",
"379 32 OFFCURVE",
"384 38 OFFCURVE",
"384 49 CURVE SMOOTH",
"384 335 LINE SMOOTH",
"384 346 OFFCURVE",
"379 352 OFFCURVE",
"369 352 CURVE SMOOTH",
"365 352 OFFCURVE",
"362 351 OFFCURVE",
"361 350 CURVE",
"243 272 LINE",
"243 335 LINE SMOOTH",
"243 340 OFFCURVE",
"241 344 OFFCURVE",
"238 347 CURVE SMOOTH",
"235 350 OFFCURVE",
"231 352 OFFCURVE",
"227 352 CURVE SMOOTH",
"224 352 OFFCURVE",
"221 351 OFFCURVE",
"219 349 CURVE",
"32 227 LINE",
"32 340 LINE SMOOTH",
"32 348 OFFCURVE",
"28 352 OFFCURVE",
"20 352 CURVE SMOOTH",
"12 352 LINE SMOOTH"
);
}
);
width = 384;
}
);
note = uniF222;
unicode = F222;
},
{
export = 0;
glyphname = uniF223;
lastChange = "2016-08-30 05:18:41 +0000";
layers = (
{
layerId = "7CC436F9-9F12-4208-AF2B-E4ABCB0FA991";
paths = (
{
closed = 1;
nodes = (
"356 352 OFFCURVE",
"352 348 OFFCURVE",
"352 340 CURVE SMOOTH",
"352 227 LINE",
"165 349 LINE",
"163 351 OFFCURVE",
"160 352 OFFCURVE",
"157 352 CURVE SMOOTH",
"147 352 OFFCURVE",
"142 346 OFFCURVE",
"142 335 CURVE SMOOTH",
"142 272 LINE",
"23 350 LINE",
"22 351 OFFCURVE",
"19 352 OFFCURVE",
"15 352 CURVE SMOOTH",
"5 352 OFFCURVE",
"0 346 OFFCURVE",
"0 335 CURVE SMOOTH",
"0 49 LINE SMOOTH",
"0 38 OFFCURVE",
"5 32 OFFCURVE",
"15 32 CURVE SMOOTH",
"17 32 OFFCURVE",
"20 33 OFFCURVE",
"23 35 CURVE SMOOTH",
"142 113 LINE",
"142 49 LINE SMOOTH",
"142 38 OFFCURVE",
"147 32 OFFCURVE",
"157 32 CURVE SMOOTH",
"159 32 OFFCURVE",
"162 33 OFFCURVE",
"165 35 CURVE SMOOTH",
"352 157 LINE",
"352 44 LINE SMOOTH",
"352 36 OFFCURVE",
"356 32 OFFCURVE",
"364 32 CURVE SMOOTH",
"372 32 LINE SMOOTH",
"380 32 OFFCURVE",
"384 36 OFFCURVE",
"384 44 CURVE SMOOTH",
"384 340 LINE SMOOTH",
"384 348 OFFCURVE",
"380 352 OFFCURVE",
"372 352 CURVE SMOOTH",
"364 352 LINE SMOOTH"
);
}
);
width = 384;
}
);
note = uniF223;
unicode = F223;
},
{
export = 0;
glyphname = uniF224;
lastChange = "2016-08-30 05:18:41 +0000";
layers = (
{
layerId = "7CC436F9-9F12-4208-AF2B-E4ABCB0FA991";
paths = (
{
closed = 1;
nodes = (
"272 91 LINE",
"250 91 LINE",
"233 91 LINE",
"233 76 LINE",
"233 24 LINE SMOOTH",
"233 19 OFFCURVE",
"231 16 OFFCURVE",
"226 16 CURVE SMOOTH",
"226 16 LINE",
"225 16 LINE SMOOTH",
"224 16 OFFCURVE",
"222 17 OFFCURVE",
"221 18 CURVE",
"220 18 LINE",
"218 20 OFFCURVE",
"217 22 OFFCURVE",
"217 24 CURVE SMOOTH",
"217 76 LINE",
"217 91 LINE",
"202 91 LINE",
"153 91 LINE",
"136 91 LINE",
"136 76 LINE",
"136 24 LINE SMOOTH",
"136 19 OFFCURVE",
"133 16 OFFCURVE",
"128 16 CURVE SMOOTH",
"123 16 OFFCURVE",
"120 19 OFFCURVE",
"120 24 CURVE SMOOTH",
"120 76 LINE",
"120 91 LINE",
"104 91 LINE",
"80 91 LINE",
"80 180 LINE",
"80 240 LINE",
"272 240 LINE",
"272 180 LINE"
);
},
{
closed = 1;
nodes = (
"64 180 LINE",
"64 90 LINE SMOOTH",
"64 80 OFFCURVE",
"68 75 OFFCURVE",
"76 75 CURVE SMOOTH",
"104 75 LINE",
"104 24 LINE SMOOTH",
"104 17 OFFCURVE",
"106 12 OFFCURVE",
"111 7 CURVE SMOOTH",
"116 2 OFFCURVE",
"121 0 OFFCURVE",
"128 0 CURVE SMOOTH",
"135 0 OFFCURVE",
"140 2 OFFCURVE",
"145 7 CURVE SMOOTH",
"150 12 OFFCURVE",
"152 17 OFFCURVE",
"152 24 CURVE SMOOTH",
"152 75 LINE",
"201 75 LINE",
"201 24 LINE SMOOTH",
"201 16 OFFCURVE",
"204 10 OFFCURVE",
"210 5 CURVE",
"215 2 OFFCURVE",
"220 0 OFFCURVE",
"225 0 CURVE SMOOTH",
"226 0 LINE SMOOTH",
"233 0 OFFCURVE",
"238 2 OFFCURVE",
"243 7 CURVE",
"247 12 OFFCURVE",
"249 17 OFFCURVE",
"249 24 CURVE SMOOTH",
"249 75 LINE",
"278 75 LINE SMOOTH",
"285 75 OFFCURVE",
"288 80 OFFCURVE",
"288 90 CURVE SMOOTH",
"288 180 LINE",
"288 256 LINE",
"64 256 LINE"
);
},
{
closed = 1;
nodes = (
"320 253 OFFCURVE",
"323 256 OFFCURVE",
"328 256 CURVE SMOOTH",
"333 256 OFFCURVE",
"336 253 OFFCURVE",
"336 248 CURVE SMOOTH",
"336 152 LINE SMOOTH",
"336 147 OFFCURVE",
"333 144 OFFCURVE",
"328 144 CURVE SMOOTH",
"323 144 OFFCURVE",
"320 147 OFFCURVE",
"320 152 CURVE SMOOTH",
"320 248 LINE SMOOTH"
);
},
{
closed = 1;
nodes = (
"352 255 OFFCURVE",
"350 260 OFFCURVE",
"345 265 CURVE SMOOTH",
"340 270 OFFCURVE",
"335 272 OFFCURVE",
"328 272 CURVE SMOOTH",
"321 272 OFFCURVE",
"316 270 OFFCURVE",
"311 265 CURVE SMOOTH",
"306 260 OFFCURVE",
"304 255 OFFCURVE",
"304 248 CURVE SMOOTH",
"304 152 LINE SMOOTH",
"304 145 OFFCURVE",
"306 140 OFFCURVE",
"311 135 CURVE SMOOTH",
"316 130 OFFCURVE",
"321 128 OFFCURVE",
"328 128 CURVE SMOOTH",
"335 128 OFFCURVE",
"340 130 OFFCURVE",
"345 135 CURVE SMOOTH",
"350 140 OFFCURVE",
"352 145 OFFCURVE",
"352 152 CURVE SMOOTH",
"352 248 LINE SMOOTH"
);
},
{
closed = 1;
nodes = (
"16 253 OFFCURVE",
"19 256 OFFCURVE",
"24 256 CURVE SMOOTH",
"29 256 OFFCURVE",
"32 253 OFFCURVE",
"32 248 CURVE SMOOTH",
"32 152 LINE SMOOTH",
"32 147 OFFCURVE",
"29 144 OFFCURVE",
"24 144 CURVE SMOOTH",
"19 144 OFFCURVE",
"16 147 OFFCURVE",
"16 152 CURVE SMOOTH",
"16 248 LINE SMOOTH"
);
},
{
closed = 1;
nodes = (
"48 255 OFFCURVE",
"46 260 OFFCURVE",
"41 265 CURVE SMOOTH",
"36 270 OFFCURVE",
"31 272 OFFCURVE",
"24 272 CURVE SMOOTH",
"17 272 OFFCURVE",
"12 270 OFFCURVE",
"7 265 CURVE SMOOTH",
"2 260 OFFCURVE",
"0 255 OFFCURVE",
"0 248 CURVE SMOOTH",
"0 152 LINE SMOOTH",
"0 145 OFFCURVE",
"2 140 OFFCURVE",
"7 135 CURVE SMOOTH",
"12 130 OFFCURVE",
"17 128 OFFCURVE",
"24 128 CURVE SMOOTH",
"31 128 OFFCURVE",
"36 130 OFFCURVE",
"41 135 CURVE SMOOTH",
"46 140 OFFCURVE",
"48 145 OFFCURVE",
"48 152 CURVE SMOOTH",
"48 248 LINE SMOOTH"
);
},
{
closed = 1;
nodes = (
"176 354 LINE",
"190 354 OFFCURVE",
"203 352 OFFCURVE",
"215 348 CURVE",
"225 344 LINE",
"248 333 OFFCURVE",
"263 315 OFFCURVE",
"269 288 CURVE",
"83 288 LINE",
"89 315 OFFCURVE",
"104 334 OFFCURVE",
"127 344 CURVE SMOOTH",
"137 348 LINE",
"152 352 OFFCURVE",
"164 354 OFFCURVE",
"175 354 CURVE SMOOTH",
"176 354 LINE"
);
},
{
closed = 1;
nodes = (
"102 381 LINE",
"121 359 LINE",
"110 354 OFFCURVE",
"100 348 OFFCURVE",
"92 340 CURVE",
"84 331 OFFCURVE",
"78 322 OFFCURVE",
"75 313 CURVE",
"71 304 OFFCURVE",
"68 296 OFFCURVE",
"67 290 CURVE SMOOTH",
"66 283 OFFCURVE",
"65 277 OFFCURVE",
"64 272 CURVE",
"288 272 LINE",
"287 280 OFFCURVE",
"286 288 OFFCURVE",
"284 297 CURVE",
"281 306 OFFCURVE",
"276 316 OFFCURVE",
"267 329 CURVE SMOOTH",
"258 342 OFFCURVE",
"246 351 OFFCURVE",
"231 358 CURVE",
"250 380 LINE",
"248 383 LINE",
"247 383 OFFCURVE",
"247 383 OFFCURVE",
"246 384 CURVE",
"226 361 LINE",
"209 367 OFFCURVE",
"193 370 OFFCURVE",
"176 370 CURVE SMOOTH",
"175 370 LINE SMOOTH",
"157 370 OFFCURVE",
"140 367 OFFCURVE",
"125 361 CURVE",
"106 384 LINE",
"105 384 LINE",
"104 383 LINE"
);
},
{
closed = 1;
nodes = (
"136 309 OFFCURVE",
"140 313 OFFCURVE",
"140 322 CURVE SMOOTH",
"140 325 OFFCURVE",
"139 329 OFFCURVE",
"136 332 CURVE SMOOTH",
"133 335 OFFCURVE",
"130 336 OFFCURVE",
"127 336 CURVE SMOOTH",
"123 336 OFFCURVE",
"120 335 OFFCURVE",
"117 332 CURVE SMOOTH",
"114 329 OFFCURVE",
"113 325 OFFCURVE",
"113 322 CURVE SMOOTH",
"113 319 OFFCURVE",
"115 316 OFFCURVE",
"118 313 CURVE SMOOTH",
"121 310 OFFCURVE",
"124 309 OFFCURVE",
"127 309 CURVE SMOOTH"
);
},
{
closed = 1;
nodes = (
"212 313 OFFCURVE",
"216 309 OFFCURVE",
"225 309 CURVE SMOOTH",
"234 309 OFFCURVE",
"238 313 OFFCURVE",
"238 322 CURVE SMOOTH",
"238 325 OFFCURVE",
"237 329 OFFCURVE",
"234 332 CURVE SMOOTH",
"231 335 OFFCURVE",
"228 336 OFFCURVE",
"225 336 CURVE SMOOTH",
"216 336 OFFCURVE",
"212 331 OFFCURVE",
"212 322 CURVE SMOOTH"
);
}
);
width = 352;
}
);
note = uniF224;
unicode = F224;
},
{
export = 0;
glyphname = uniF225;
lastChange = "2016-08-30 05:18:41 +0000";
layers = (
{
layerId = "7CC436F9-9F12-4208-AF2B-E4ABCB0FA991";
paths = (
{
closed = 1;
nodes = (
"64 81 OFFCURVE",
"68 76 OFFCURVE",
"75 76 CURVE SMOOTH",
"104 76 LINE",
"104 24 LINE SMOOTH",
"104 17 OFFCURVE",
"106 12 OFFCURVE",
"111 7 CURVE SMOOTH",
"116 2 OFFCURVE",
"121 0 OFFCURVE",
"128 0 CURVE SMOOTH",
"135 0 OFFCURVE",
"140 2 OFFCURVE",
"145 7 CURVE SMOOTH",
"150 12 OFFCURVE",
"152 17 OFFCURVE",
"152 24 CURVE SMOOTH",
"152 76 LINE",
"201 76 LINE",
"201 24 LINE SMOOTH",
"201 16 OFFCURVE",
"204 10 OFFCURVE",
"210 5 CURVE",
"215 2 OFFCURVE",
"219 0 OFFCURVE",
"224 0 CURVE SMOOTH",
"225 0 LINE SMOOTH",
"232 0 OFFCURVE",
"237 2 OFFCURVE",
"242 7 CURVE SMOOTH",
"247 12 OFFCURVE",
"249 17 OFFCURVE",
"249 24 CURVE SMOOTH",
"249 76 LINE",
"277 76 LINE SMOOTH",
"284 76 OFFCURVE",
"288 81 OFFCURVE",
"288 90 CURVE SMOOTH",
"288 180 LINE",
"288 256 LINE",
"64 256 LINE",
"64 180 LINE",
"64 90 LINE SMOOTH"
);
},
{
closed = 1;
nodes = (
"352 255 OFFCURVE",
"350 260 OFFCURVE",
"345 265 CURVE SMOOTH",
"340 270 OFFCURVE",
"335 272 OFFCURVE",
"328 272 CURVE SMOOTH",
"321 272 OFFCURVE",
"316 270 OFFCURVE",
"311 265 CURVE SMOOTH",
"306 260 OFFCURVE",
"304 255 OFFCURVE",
"304 248 CURVE SMOOTH",
"304 152 LINE SMOOTH",
"304 145 OFFCURVE",
"306 140 OFFCURVE",
"311 135 CURVE SMOOTH",
"316 130 OFFCURVE",
"321 128 OFFCURVE",
"328 128 CURVE SMOOTH",
"335 128 OFFCURVE",
"340 130 OFFCURVE",
"345 135 CURVE SMOOTH",
"350 140 OFFCURVE",
"352 145 OFFCURVE",
"352 152 CURVE SMOOTH",
"352 248 LINE SMOOTH"
);
},
{
closed = 1;
nodes = (
"48 255 OFFCURVE",
"46 260 OFFCURVE",
"41 265 CURVE SMOOTH",
"36 270 OFFCURVE",
"31 272 OFFCURVE",
"24 272 CURVE SMOOTH",
"17 272 OFFCURVE",
"12 270 OFFCURVE",
"7 265 CURVE SMOOTH",
"2 260 OFFCURVE",
"0 255 OFFCURVE",
"0 248 CURVE SMOOTH",
"0 152 LINE SMOOTH",
"0 145 OFFCURVE",
"2 140 OFFCURVE",
"7 135 CURVE SMOOTH",
"12 130 OFFCURVE",
"17 128 OFFCURVE",
"24 128 CURVE SMOOTH",
"31 128 OFFCURVE",
"36 130 OFFCURVE",
"41 135 CURVE SMOOTH",
"46 140 OFFCURVE",
"48 145 OFFCURVE",
"48 152 CURVE SMOOTH",
"48 248 LINE SMOOTH"
);
},
{
closed = 1;
nodes = (
"248 383 LINE SMOOTH",
"247 384 OFFCURVE",
"247 384 OFFCURVE",
"246 384 CURVE",
"226 361 LINE",
"209 367 OFFCURVE",
"193 370 OFFCURVE",
"176 370 CURVE SMOOTH",
"159 370 OFFCURVE",
"142 367 OFFCURVE",
"125 361 CURVE",
"106 384 LINE",
"103 383 LINE",
"102 382 OFFCURVE",
"102 382 OFFCURVE",
"102 381 CURVE",
"120 359 LINE",
"85 344 OFFCURVE",
"67 315 OFFCURVE",
"64 272 CURVE",
"288 272 LINE",
"287 280 OFFCURVE",
"286 288 OFFCURVE",
"284 297 CURVE",
"281 306 OFFCURVE",
"276 317 OFFCURVE",
"267 330 CURVE SMOOTH",
"258 343 OFFCURVE",
"246 352 OFFCURVE",
"231 359 CURVE",
"250 381 LINE"
);
},
{
closed = 1;
nodes = (
"124 309 OFFCURVE",
"121 310 OFFCURVE",
"118 313 CURVE SMOOTH",
"115 316 OFFCURVE",
"113 319 OFFCURVE",
"113 322 CURVE SMOOTH",
"113 325 OFFCURVE",
"114 329 OFFCURVE",
"117 332 CURVE SMOOTH",
"120 335 OFFCURVE",
"123 336 OFFCURVE",
"127 336 CURVE SMOOTH",
"130 336 OFFCURVE",
"133 335 OFFCURVE",
"136 332 CURVE SMOOTH",
"139 329 OFFCURVE",
"140 325 OFFCURVE",
"140 322 CURVE SMOOTH",
"140 313 OFFCURVE",
"136 309 OFFCURVE",
"127 309 CURVE SMOOTH"
);
},
{
closed = 1;
nodes = (
"216 309 OFFCURVE",
"212 313 OFFCURVE",
"212 322 CURVE SMOOTH",
"212 331 OFFCURVE",
"216 336 OFFCURVE",
"225 336 CURVE SMOOTH",
"228 336 OFFCURVE",
"232 335 OFFCURVE",
"235 332 CURVE SMOOTH",
"238 329 OFFCURVE",
"239 325 OFFCURVE",
"239 322 CURVE SMOOTH",
"239 319 OFFCURVE",
"238 316 OFFCURVE",
"235 313 CURVE SMOOTH",
"232 310 OFFCURVE",
"228 309 OFFCURVE",
"225 309 CURVE SMOOTH"
);
}
);
width = 352;
}
);
note = uniF225;
unicode = F225;
},
{
export = 0;
glyphname = uniF226;
lastChange = "2016-08-30 05:18:41 +0000";
layers = (
{
layerId = "7CC436F9-9F12-4208-AF2B-E4ABCB0FA991";
paths = (
{
closed = 1;
nodes = (
"255 278 OFFCURVE",
"270 271 OFFCURVE",
"285 258 CURVE",
"275 250 OFFCURVE",
"267 240 OFFCURVE",
"261 228 CURVE SMOOTH",
"253 213 OFFCURVE",
"250 195 OFFCURVE",
"251 175 CURVE SMOOTH",
"252 157 OFFCURVE",
"258 140 OFFCURVE",
"269 123 CURVE SMOOTH",
"276 112 OFFCURVE",
"286 102 OFFCURVE",
"299 95 CURVE",
"294 84 OFFCURVE",
"288 73 OFFCURVE",
"282 64 CURVE SMOOTH",
"262 32 OFFCURVE",
"245 16 OFFCURVE",
"230 16 CURVE SMOOTH",
"227 16 OFFCURVE",
"220 18 OFFCURVE",
"211 22 CURVE",
"198 29 OFFCURVE",
"183 32 OFFCURVE",
"167 32 CURVE SMOOTH",
"151 32 OFFCURVE",
"136 29 OFFCURVE",
"123 22 CURVE",
"114 18 OFFCURVE",
"107 16 OFFCURVE",
"103 16 CURVE SMOOTH",
"102 16 LINE SMOOTH",
"87 16 OFFCURVE",
"71 31 OFFCURVE",
"52 61 CURVE SMOOTH",
"31 93 OFFCURVE",
"20 126 OFFCURVE",
"17 160 CURVE SMOOTH",
"14 193 OFFCURVE",
"18 219 OFFCURVE",
"30 237 CURVE",
"38 250 OFFCURVE",
"48 261 OFFCURVE",
"61 268 CURVE",
"72 275 OFFCURVE",
"83 278 OFFCURVE",
"95 278 CURVE SMOOTH",
"103 278 OFFCURVE",
"114 275 OFFCURVE",
"129 270 CURVE SMOOTH",
"145 265 OFFCURVE",
"157 262 OFFCURVE",
"166 262 CURVE SMOOTH",
"176 262 OFFCURVE",
"188 265 OFFCURVE",
"201 270 CURVE",
"216 275 OFFCURVE",
"228 278 OFFCURVE",
"238 278 CURVE SMOOTH"
);
},
{
closed = 1;
nodes = (
"226 294 OFFCURVE",
"213 291 OFFCURVE",
"198 286 CURVE SMOOTH",
"183 281 OFFCURVE",
"173 278 OFFCURVE",
"166 278 CURVE SMOOTH",
"159 278 OFFCURVE",
"148 281 OFFCURVE",
"133 286 CURVE SMOOTH",
"118 291 OFFCURVE",
"105 294 OFFCURVE",
"95 294 CURVE SMOOTH",
"63 294 OFFCURVE",
"37 278 OFFCURVE",
"17 246 CURVE SMOOTH",
"3 225 OFFCURVE",
"-2 196 OFFCURVE",
"1 159 CURVE SMOOTH",
"4 122 OFFCURVE",
"17 86 OFFCURVE",
"38 53 CURVE SMOOTH",
"61 18 OFFCURVE",
"82 0 OFFCURVE",
"102 0 CURVE SMOOTH",
"103 0 LINE SMOOTH",
"110 0 OFFCURVE",
"120 3 OFFCURVE",
"132 8 CURVE SMOOTH",
"143 13 OFFCURVE",
"155 16 OFFCURVE",
"167 16 CURVE SMOOTH",
"178 16 OFFCURVE",
"190 13 OFFCURVE",
"202 8 CURVE SMOOTH",
"213 3 OFFCURVE",
"223 0 OFFCURVE",
"230 0 CURVE SMOOTH",
"231 0 LINE SMOOTH",
"250 0 OFFCURVE",
"272 19 OFFCURVE",
"296 56 CURVE SMOOTH",
"305 69 OFFCURVE",
"313 85 OFFCURVE",
"320 102 CURVE",
"299 110 OFFCURVE",
"284 124 OFFCURVE",
"275 144 CURVE SMOOTH",
"266 164 OFFCURVE",
"264 185 OFFCURVE",
"270 206 CURVE SMOOTH",
"276 227 OFFCURVE",
"289 244 OFFCURVE",
"309 255 CURVE",
"289 281 OFFCURVE",
"265 294 OFFCURVE",
"238 294 CURVE SMOOTH"
);
},
{
closed = 1;
nodes = (
"211 351 OFFCURVE",
"206 340 OFFCURVE",
"199 331 CURVE",
"192 321 OFFCURVE",
"183 314 OFFCURVE",
"171 310 CURVE",
"171 312 OFFCURVE",
"172 315 OFFCURVE",
"173 319 CURVE",
"176 328 OFFCURVE",
"181 335 OFFCURVE",
"186 342 CURVE",
"193 351 OFFCURVE",
"203 359 OFFCURVE",
"214 364 CURVE"
);
},
{
closed = 1;
nodes = (
"209 383 OFFCURVE",
"190 372 OFFCURVE",
"173 352 CURVE",
"158 331 OFFCURVE",
"152 311 OFFCURVE",
"155 292 CURVE",
"156 292 LINE SMOOTH",
"178 292 OFFCURVE",
"197 302 OFFCURVE",
"212 322 CURVE SMOOTH",
"227 342 OFFCURVE",
"233 363 OFFCURVE",
"230 384 CURVE"
);
}
);
width = 320;
}
);
note = uniF226;
unicode = F226;
},
{
export = 0;
glyphname = uniF227;
lastChange = "2016-08-30 05:18:41 +0000";
layers = (
{
layerId = "7CC436F9-9F12-4208-AF2B-E4ABCB0FA991";
paths = (
{
closed = 1;
nodes = (
"226 294 OFFCURVE",
"213 291 OFFCURVE",
"198 286 CURVE SMOOTH",
"183 281 OFFCURVE",
"173 278 OFFCURVE",
"166 278 CURVE SMOOTH",
"159 278 OFFCURVE",
"148 281 OFFCURVE",
"133 286 CURVE SMOOTH",
"118 291 OFFCURVE",
"105 294 OFFCURVE",
"95 294 CURVE SMOOTH",
"63 294 OFFCURVE",
"37 278 OFFCURVE",
"17 246 CURVE SMOOTH",
"3 225 OFFCURVE",
"-2 196 OFFCURVE",
"1 159 CURVE SMOOTH",
"4 122 OFFCURVE",
"17 86 OFFCURVE",
"38 53 CURVE SMOOTH",
"61 18 OFFCURVE",
"82 0 OFFCURVE",
"102 0 CURVE SMOOTH",
"103 0 LINE SMOOTH",
"110 0 OFFCURVE",
"120 3 OFFCURVE",
"132 8 CURVE SMOOTH",
"143 13 OFFCURVE",
"155 16 OFFCURVE",
"167 16 CURVE SMOOTH",
"178 16 OFFCURVE",
"190 13 OFFCURVE",
"202 8 CURVE SMOOTH",
"213 3 OFFCURVE",
"223 0 OFFCURVE",
"230 0 CURVE SMOOTH",
"231 0 LINE SMOOTH",
"250 0 OFFCURVE",
"272 19 OFFCURVE",
"296 56 CURVE SMOOTH",
"305 69 OFFCURVE",
"313 85 OFFCURVE",
"320 102 CURVE",
"299 110 OFFCURVE",
"284 124 OFFCURVE",
"275 144 CURVE SMOOTH",
"266 164 OFFCURVE",
"264 185 OFFCURVE",
"270 206 CURVE SMOOTH",
"276 227 OFFCURVE",
"289 244 OFFCURVE",
"309 255 CURVE",
"289 281 OFFCURVE",
"265 294 OFFCURVE",
"238 294 CURVE SMOOTH"
);
},
{
closed = 1;
nodes = (
"209 383 OFFCURVE",
"190 372 OFFCURVE",
"173 352 CURVE",
"158 331 OFFCURVE",
"152 311 OFFCURVE",
"155 292 CURVE",
"156 292 LINE SMOOTH",
"178 292 OFFCURVE",
"197 302 OFFCURVE",
"212 322 CURVE SMOOTH",
"227 342 OFFCURVE",
"233 363 OFFCURVE",
"230 384 CURVE"
);
}
);
width = 320;
}
);
note = uniF227;
unicode = F227;
},
{
export = 0;
glyphname = uniF228;
lastChange = "2016-08-30 05:18:41 +0000";
layers = (
{
layerId = "7CC436F9-9F12-4208-AF2B-E4ABCB0FA991";
paths = (
{
closed = 1;
nodes = (
"180 200 OFFCURVE",
"185 199 OFFCURVE",
"192 199 CURVE SMOOTH",
"199 199 OFFCURVE",
"204 200 OFFCURVE",
"208 202 CURVE SMOOTH",
"377 284 LINE",
"382 286 OFFCURVE",
"384 289 OFFCURVE",
"384 292 CURVE SMOOTH",
"384 295 OFFCURVE",
"382 297 OFFCURVE",
"377 299 CURVE",
"208 381 LINE SMOOTH",
"204 383 OFFCURVE",
"199 384 OFFCURVE",
"192 384 CURVE SMOOTH",
"185 384 OFFCURVE",
"180 383 OFFCURVE",
"176 381 CURVE SMOOTH",
"7 299 LINE",
"2 297 OFFCURVE",
"0 295 OFFCURVE",
"0 292 CURVE SMOOTH",
"0 289 OFFCURVE",
"2 286 OFFCURVE",
"7 284 CURVE",
"176 202 LINE SMOOTH"
);
},
{
closed = 1;
nodes = (
"186 367 OFFCURVE",
"189 368 OFFCURVE",
"192 368 CURVE SMOOTH",
"195 368 OFFCURVE",
"198 367 OFFCURVE",
"201 366 CURVE",
"357 291 LINE",
"201 216 LINE",
"200 215 OFFCURVE",
"197 215 OFFCURVE",
"192 215 CURVE SMOOTH",
"187 215 OFFCURVE",
"184 215 OFFCURVE",
"183 216 CURVE",
"27 291 LINE",
"183 366 LINE"
);
},
{
closed = 1;
nodes = (
"339 218 OFFCURVE",
"336 218 OFFCURVE",
"333 217 CURVE SMOOTH",
"330 216 OFFCURVE",
"289 195 OFFCURVE",
"208 156 CURVE SMOOTH",
"204 154 OFFCURVE",
"199 153 OFFCURVE",
"192 153 CURVE SMOOTH",
"185 153 OFFCURVE",
"180 154 OFFCURVE",
"176 156 CURVE SMOOTH",
"53 216 LINE",
"48 219 OFFCURVE",
"44 219 OFFCURVE",
"40 216 CURVE",
"36 214 OFFCURVE",
"25 209 OFFCURVE",
"7 200 CURVE",
"2 198 OFFCURVE",
"0 195 OFFCURVE",
"0 192 CURVE SMOOTH",
"0 189 OFFCURVE",
"2 186 OFFCURVE",
"7 184 CURVE",
"176 103 LINE",
"181 100 OFFCURVE",
"187 99 OFFCURVE",
"192 99 CURVE SMOOTH",
"197 99 OFFCURVE",
"203 100 OFFCURVE",
"208 103 CURVE",
"377 184 LINE",
"382 186 OFFCURVE",
"384 189 OFFCURVE",
"384 192 CURVE SMOOTH",
"384 195 OFFCURVE",
"382 198 OFFCURVE",
"377 200 CURVE",
"342 217 LINE"
);
},
{
closed = 1;
nodes = (
"198 116 OFFCURVE",
"195 115 OFFCURVE",
"192 115 CURVE SMOOTH",
"189 115 OFFCURVE",
"186 116 OFFCURVE",
"183 117 CURVE",
"27 192 LINE",
"46 201 LINE",
"169 142 LINE",
"176 139 OFFCURVE",
"183 137 OFFCURVE",
"192 137 CURVE SMOOTH",
"201 137 OFFCURVE",
"208 139 OFFCURVE",
"215 142 CURVE",
"338 201 LINE",
"357 192 LINE",
"201 117 LINE"
);
},
{
closed = 1;
nodes = (
"339 118 OFFCURVE",
"336 118 OFFCURVE",
"333 117 CURVE SMOOTH",
"330 116 OFFCURVE",
"289 96 OFFCURVE",
"208 57 CURVE SMOOTH",
"204 55 OFFCURVE",
"199 54 OFFCURVE",
"192 54 CURVE SMOOTH",
"185 54 OFFCURVE",
"180 55 OFFCURVE",
"176 57 CURVE SMOOTH",
"53 116 LINE",
"48 119 OFFCURVE",
"43 119 OFFCURVE",
"40 117 CURVE",
"36 115 OFFCURVE",
"25 109 OFFCURVE",
"7 100 CURVE",
"2 98 OFFCURVE",
"0 96 OFFCURVE",
"0 93 CURVE SMOOTH",
"0 90 OFFCURVE",
"2 87 OFFCURVE",
"7 85 CURVE",
"176 3 LINE SMOOTH",
"180 1 OFFCURVE",
"185 0 OFFCURVE",
"192 0 CURVE SMOOTH",
"199 0 OFFCURVE",
"204 1 OFFCURVE",
"208 3 CURVE SMOOTH",
"377 85 LINE",
"382 87 OFFCURVE",
"384 90 OFFCURVE",
"384 93 CURVE SMOOTH",
"384 96 OFFCURVE",
"382 98 OFFCURVE",
"377 100 CURVE",
"342 117 LINE"
);
},
{
closed = 1;
nodes = (
"198 17 OFFCURVE",
"195 16 OFFCURVE",
"192 16 CURVE SMOOTH",
"189 16 OFFCURVE",
"186 17 OFFCURVE",
"183 18 CURVE",
"27 93 LINE",
"46 102 LINE",
"169 42 LINE",
"174 39 OFFCURVE",
"182 38 OFFCURVE",
"192 38 CURVE SMOOTH",
"202 38 OFFCURVE",
"210 39 OFFCURVE",
"215 42 CURVE",
"338 102 LINE",
"357 93 LINE",
"201 18 LINE"
);
}
);
width = 384;
}
);
note = uniF228;
unicode = F228;
},
{
export = 0;
glyphname = uniF229;
lastChange = "2016-08-30 05:18:41 +0000";
layers = (
{
layerId = "7CC436F9-9F12-4208-AF2B-E4ABCB0FA991";
paths = (
{
closed = 1;
nodes = (
"180 200 OFFCURVE",
"185 199 OFFCURVE",
"192 199 CURVE SMOOTH",
"199 199 OFFCURVE",
"204 200 OFFCURVE",
"208 202 CURVE SMOOTH",
"377 284 LINE",
"382 286 OFFCURVE",
"384 289 OFFCURVE",
"384 292 CURVE SMOOTH",
"384 295 OFFCURVE",
"382 297 OFFCURVE",
"377 299 CURVE",
"208 381 LINE SMOOTH",
"204 383 OFFCURVE",
"199 384 OFFCURVE",
"192 384 CURVE SMOOTH",
"185 384 OFFCURVE",
"180 383 OFFCURVE",
"176 381 CURVE SMOOTH",
"7 299 LINE",
"2 297 OFFCURVE",
"0 295 OFFCURVE",
"0 292 CURVE SMOOTH",
"0 289 OFFCURVE",
"2 286 OFFCURVE",
"7 284 CURVE",
"176 202 LINE SMOOTH"
);
},
{
closed = 1;
nodes = (
"339 218 OFFCURVE",
"336 218 OFFCURVE",
"333 217 CURVE SMOOTH",
"330 216 OFFCURVE",
"289 195 OFFCURVE",
"208 156 CURVE SMOOTH",
"204 154 OFFCURVE",
"199 153 OFFCURVE",
"192 153 CURVE SMOOTH",
"185 153 OFFCURVE",
"180 154 OFFCURVE",
"176 156 CURVE SMOOTH",
"53 216 LINE",
"48 219 OFFCURVE",
"44 219 OFFCURVE",
"40 216 CURVE",
"36 214 OFFCURVE",
"25 209 OFFCURVE",
"7 200 CURVE",
"2 198 OFFCURVE",
"0 195 OFFCURVE",
"0 192 CURVE SMOOTH",
"0 189 OFFCURVE",
"2 186 OFFCURVE",
"7 184 CURVE",
"176 103 LINE",
"181 100 OFFCURVE",
"187 99 OFFCURVE",
"192 99 CURVE SMOOTH",
"197 99 OFFCURVE",
"203 100 OFFCURVE",
"208 103 CURVE",
"377 184 LINE",
"382 186 OFFCURVE",
"384 189 OFFCURVE",
"384 192 CURVE SMOOTH",
"384 195 OFFCURVE",
"382 198 OFFCURVE",
"377 200 CURVE",
"342 217 LINE"
);
},
{
closed = 1;
nodes = (
"339 118 OFFCURVE",
"336 118 OFFCURVE",
"333 117 CURVE SMOOTH",
"330 116 OFFCURVE",
"289 96 OFFCURVE",
"208 57 CURVE SMOOTH",
"204 55 OFFCURVE",
"199 54 OFFCURVE",
"192 54 CURVE SMOOTH",
"185 54 OFFCURVE",
"180 55 OFFCURVE",
"176 57 CURVE SMOOTH",
"53 116 LINE",
"48 119 OFFCURVE",
"43 119 OFFCURVE",
"40 117 CURVE",
"36 115 OFFCURVE",
"25 109 OFFCURVE",
"7 100 CURVE",
"2 98 OFFCURVE",
"0 96 OFFCURVE",
"0 93 CURVE SMOOTH",
"0 90 OFFCURVE",
"2 87 OFFCURVE",
"7 85 CURVE",
"176 3 LINE SMOOTH",
"180 1 OFFCURVE",
"185 0 OFFCURVE",
"192 0 CURVE SMOOTH",
"199 0 OFFCURVE",
"204 1 OFFCURVE",
"208 3 CURVE SMOOTH",
"377 85 LINE",
"382 87 OFFCURVE",
"384 90 OFFCURVE",
"384 93 CURVE SMOOTH",
"384 96 OFFCURVE",
"382 98 OFFCURVE",
"377 100 CURVE",
"342 117 LINE"
);
}
);
width = 384;
}
);
note = uniF229;
unicode = F229;
},
{
export = 0;
glyphname = uniF22A;
lastChange = "2016-08-30 05:18:41 +0000";
layers = (
{
layerId = "7CC436F9-9F12-4208-AF2B-E4ABCB0FA991";
paths = (
{
closed = 1;
nodes = (
"259 249 LINE",
"259 302 LINE",
"194 352 LINE"
);
},
{
closed = 1;
nodes = (
"297 188 LINE",
"261 188 LINE",
"198 286 LINE",
"200 188 LINE",
"159 188 LINE",
"159 295 LINE",
"122 324 LINE",
"125 321 LINE",
"135 307 OFFCURVE",
"140 290 OFFCURVE",
"140 270 CURVE SMOOTH",
"140 245 OFFCURVE",
"133 226 OFFCURVE",
"119 211 CURVE SMOOTH",
"105 196 OFFCURVE",
"86 188 OFFCURVE",
"63 188 CURVE SMOOTH",
"0 188 LINE",
"200 32 LINE",
"448 32 LINE",
"448 233 LINE",
"297 352 LINE",
"297 272 LINE"
);
},
{
closed = 1;
nodes = (
"47 172 LINE",
"63 172 LINE SMOOTH",
"77 172 OFFCURVE",
"90 174 OFFCURVE",
"101 179 CURVE SMOOTH",
"113 184 OFFCURVE",
"123 191 OFFCURVE",
"131 200 CURVE",
"136 205 OFFCURVE",
"140 210 OFFCURVE",
"143 217 CURVE",
"143 188 LINE",
"143 172 LINE",
"159 172 LINE",
"200 172 LINE",
"216 172 LINE",
"216 188 LINE",
"215 230 LINE",
"248 180 LINE",
"252 172 LINE",
"261 172 LINE",
"298 172 LINE",
"313 172 LINE",
"313 189 LINE",
"313 272 LINE",
"313 319 LINE",
"313 318 LINE",
"432 226 LINE",
"432 48 LINE",
"206 48 LINE"
);
},
{
closed = 1;
nodes = (
"74 298 OFFCURVE",
"82 288 OFFCURVE",
"82 269 CURVE SMOOTH",
"82 259 OFFCURVE",
"80 252 OFFCURVE",
"76 247 CURVE",
"72 243 OFFCURVE",
"66 241 OFFCURVE",
"59 241 CURVE SMOOTH",
"55 241 LINE",
"55 298 LINE",
"58 298 LINE",
"59 298 LINE SMOOTH"
);
},
{
closed = 1;
nodes = (
"39 225 LINE",
"58 225 LINE SMOOTH",
"85 225 OFFCURVE",
"98 240 OFFCURVE",
"98 269 CURVE SMOOTH",
"98 299 OFFCURVE",
"85 314 OFFCURVE",
"59 314 CURVE SMOOTH",
"39 314 LINE"
);
}
);
width = 448;
}
);
note = uniF22A;
unicode = F22A;
},
{
export = 0;
glyphname = uniF22B;
lastChange = "2016-08-30 05:18:41 +0000";
layers = (
{
layerId = "7CC436F9-9F12-4208-AF2B-E4ABCB0FA991";
paths = (
{
closed = 1;
nodes = (
"259 250 LINE",
"258 303 LINE",
"195 352 LINE"
);
},
{
closed = 1;
nodes = (
"297 189 LINE",
"261 189 LINE",
"197 288 LINE",
"199 189 LINE",
"159 189 LINE",
"159 296 LINE",
"122 325 LINE",
"125 322 LINE",
"135 308 OFFCURVE",
"140 291 OFFCURVE",
"140 271 CURVE SMOOTH",
"140 246 OFFCURVE",
"133 227 OFFCURVE",
"119 212 CURVE SMOOTH",
"105 197 OFFCURVE",
"86 189 OFFCURVE",
"63 189 CURVE SMOOTH",
"0 189 LINE",
"200 32 LINE",
"448 32 LINE",
"448 234 LINE",
"297 352 LINE",
"297 272 LINE"
);
},
{
closed = 1;
nodes = (
"98 300 OFFCURVE",
"85 315 OFFCURVE",
"58 315 CURVE SMOOTH",
"39 315 LINE",
"39 226 LINE",
"58 226 LINE SMOOTH",
"85 226 OFFCURVE",
"98 241 OFFCURVE",
"98 270 CURVE SMOOTH"
);
}
);
width = 448;
}
);
note = uniF22B;
unicode = F22B;
},
{
export = 0;
glyphname = uniF22C;
lastChange = "2016-08-30 05:18:41 +0000";
layers = (
{
layerId = "7CC436F9-9F12-4208-AF2B-E4ABCB0FA991";
paths = (
{
closed = 1;
nodes = (
"19 291 OFFCURVE",
"0 245 OFFCURVE",
"0 192 CURVE SMOOTH",
"0 139 OFFCURVE",
"19 93 OFFCURVE",
"56 56 CURVE SMOOTH",
"93 19 OFFCURVE",
"139 0 OFFCURVE",
"192 0 CURVE SMOOTH",
"245 0 OFFCURVE",
"291 19 OFFCURVE",
"328 56 CURVE SMOOTH",
"365 93 OFFCURVE",
"384 139 OFFCURVE",
"384 192 CURVE SMOOTH",
"384 245 OFFCURVE",
"365 291 OFFCURVE",
"328 328 CURVE SMOOTH",
"291 365 OFFCURVE",
"245 384 OFFCURVE",
"192 384 CURVE SMOOTH",
"139 384 OFFCURVE",
"93 365 OFFCURVE",
"56 328 CURVE SMOOTH"
);
},
{
closed = 1;
nodes = (
"337 269 OFFCURVE",
"350 238 OFFCURVE",
"352 203 CURVE",
"316 205 OFFCURVE",
"279 204 OFFCURVE",
"242 201 CURVE",
"237 213 OFFCURVE",
"233 223 OFFCURVE",
"229 232 CURVE",
"269 250 OFFCURVE",
"297 271 OFFCURVE",
"314 296 CURVE"
);
},
{
closed = 1;
nodes = (
"230 352 OFFCURVE",
"264 340 OFFCURVE",
"294 315 CURVE",
"277 293 OFFCURVE",
"251 275 OFFCURVE",
"215 260 CURVE",
"194 298 OFFCURVE",
"173 327 OFFCURVE",
"153 347 CURVE",
"168 350 OFFCURVE",
"181 352 OFFCURVE",
"192 352 CURVE SMOOTH"
);
},
{
closed = 1;
nodes = (
"143 311 OFFCURVE",
"164 283 OFFCURVE",
"183 248 CURVE",
"146 237 OFFCURVE",
"105 231 OFFCURVE",
"62 231 CURVE SMOOTH",
"37 231 LINE",
"50 278 OFFCURVE",
"77 312 OFFCURVE",
"120 334 CURVE"
);
},
{
closed = 1;
nodes = (
"35 200 OFFCURVE",
"39 200 OFFCURVE",
"46 200 CURVE",
"53 199 OFFCURVE",
"57 199 OFFCURVE",
"60 199 CURVE SMOOTH",
"112 200 OFFCURVE",
"158 207 OFFCURVE",
"198 220 CURVE",
"201 215 OFFCURVE",
"204 207 OFFCURVE",
"208 196 CURVE",
"202 195 OFFCURVE",
"197 193 OFFCURVE",
"194 192 CURVE",
"138 169 OFFCURVE",
"97 133 OFFCURVE",
"72 86 CURVE",
"45 116 OFFCURVE",
"32 151 OFFCURVE",
"32 192 CURVE SMOOTH",
"32 200 LINE"
);
},
{
closed = 1;
nodes = (
"156 32 OFFCURVE",
"123 43 OFFCURVE",
"94 66 CURVE",
"115 109 OFFCURVE",
"151 141 OFFCURVE",
"201 164 CURVE",
"204 166 OFFCURVE",
"210 168 OFFCURVE",
"218 170 CURVE",
"226 149 OFFCURVE",
"231 132 OFFCURVE",
"234 121 CURVE SMOOTH",
"241 96 OFFCURVE",
"246 70 OFFCURVE",
"249 42 CURVE",
"232 35 OFFCURVE",
"213 32 OFFCURVE",
"192 32 CURVE SMOOTH"
);
},
{
closed = 1;
nodes = (
"275 87 OFFCURVE",
"270 113 OFFCURVE",
"264 136 CURVE",
"263 141 OFFCURVE",
"259 153 OFFCURVE",
"252 174 CURVE",
"279 177 OFFCURVE",
"312 177 OFFCURVE",
"351 174 CURVE",
"346 125 OFFCURVE",
"322 87 OFFCURVE",
"278 58 CURVE"
);
}
);
width = 384;
}
);
note = uniF22C;
unicode = F22C;
},
{
export = 0;
glyphname = uniF22D;
lastChange = "2016-08-30 05:18:41 +0000";
layers = (
{
layerId = "7CC436F9-9F12-4208-AF2B-E4ABCB0FA991";
paths = (
{
closed = 1;
nodes = (
"19 291 OFFCURVE",
"0 245 OFFCURVE",
"0 192 CURVE SMOOTH",
"0 139 OFFCURVE",
"19 93 OFFCURVE",
"56 56 CURVE SMOOTH",
"93 19 OFFCURVE",
"139 0 OFFCURVE",
"192 0 CURVE SMOOTH",
"245 0 OFFCURVE",
"291 19 OFFCURVE",
"328 56 CURVE SMOOTH",
"365 93 OFFCURVE",
"384 139 OFFCURVE",
"384 192 CURVE SMOOTH",
"384 245 OFFCURVE",
"365 291 OFFCURVE",
"328 328 CURVE SMOOTH",
"291 365 OFFCURVE",
"245 384 OFFCURVE",
"192 384 CURVE SMOOTH",
"139 384 OFFCURVE",
"93 365 OFFCURVE",
"56 328 CURVE SMOOTH"
);
},
{
closed = 1;
nodes = (
"48 110 OFFCURVE",
"32 148 OFFCURVE",
"32 192 CURVE SMOOTH",
"32 236 OFFCURVE",
"48 274 OFFCURVE",
"79 305 CURVE SMOOTH",
"110 336 OFFCURVE",
"148 352 OFFCURVE",
"192 352 CURVE SMOOTH",
"236 352 OFFCURVE",
"274 336 OFFCURVE",
"305 305 CURVE SMOOTH",
"336 274 OFFCURVE",
"352 236 OFFCURVE",
"352 192 CURVE SMOOTH",
"352 148 OFFCURVE",
"336 110 OFFCURVE",
"305 79 CURVE SMOOTH",
"274 48 OFFCURVE",
"236 32 OFFCURVE",
"192 32 CURVE SMOOTH",
"148 32 OFFCURVE",
"110 48 OFFCURVE",
"79 79 CURVE SMOOTH"
);
},
{
closed = 1;
nodes = (
"265 203 OFFCURVE",
"291 204 OFFCURVE",
"320 204 CURVE",
"318 227 OFFCURVE",
"309 250 OFFCURVE",
"292 271 CURVE",
"277 257 OFFCURVE",
"256 244 OFFCURVE",
"229 232 CURVE",
"233 223 OFFCURVE",
"237 213 OFFCURVE",
"242 201 CURVE"
);
},
{
closed = 1;
nodes = (
"247 311 OFFCURVE",
"221 320 OFFCURVE",
"192 320 CURVE SMOOTH",
"185 320 OFFCURVE",
"180 320 OFFCURVE",
"177 319 CURVE",
"190 302 OFFCURVE",
"202 283 OFFCURVE",
"215 260 CURVE",
"237 269 OFFCURVE",
"256 279 OFFCURVE",
"271 292 CURVE"
);
},
{
closed = 1;
nodes = (
"105 295 OFFCURVE",
"81 268 OFFCURVE",
"70 231 CURVE",
"110 232 OFFCURVE",
"148 237 OFFCURVE",
"183 248 CURVE",
"168 275 OFFCURVE",
"155 295 OFFCURVE",
"142 310 CURVE"
);
},
{
closed = 1;
nodes = (
"298 177 OFFCURVE",
"276 176 OFFCURVE",
"252 174 CURVE",
"259 153 OFFCURVE",
"263 141 OFFCURVE",
"264 136 CURVE SMOOTH",
"265 130 OFFCURVE",
"267 122 OFFCURVE",
"270 111 CURVE",
"272 100 OFFCURVE",
"273 94 OFFCURVE",
"273 93 CURVE",
"300 114 OFFCURVE",
"315 142 OFFCURVE",
"319 176 CURVE"
);
},
{
closed = 1;
nodes = (
"197 193 OFFCURVE",
"202 195 OFFCURVE",
"208 196 CURVE",
"204 207 OFFCURVE",
"201 215 OFFCURVE",
"198 220 CURVE",
"159 207 OFFCURVE",
"115 200 OFFCURVE",
"64 199 CURVE",
"64 192 LINE SMOOTH",
"64 164 OFFCURVE",
"73 138 OFFCURVE",
"90 114 CURVE",
"117 148 OFFCURVE",
"151 174 OFFCURVE",
"194 192 CURVE"
);
},
{
closed = 1;
nodes = (
"210 167 OFFCURVE",
"204 165 OFFCURVE",
"201 164 CURVE",
"163 147 OFFCURVE",
"133 123 OFFCURVE",
"111 93 CURVE",
"134 74 OFFCURVE",
"161 64 OFFCURVE",
"192 64 CURVE SMOOTH",
"210 64 OFFCURVE",
"227 68 OFFCURVE",
"244 75 CURVE",
"239 98 OFFCURVE",
"236 113 OFFCURVE",
"234 121 CURVE SMOOTH",
"230 137 OFFCURVE",
"225 153 OFFCURVE",
"219 170 CURVE"
);
}
);
width = 384;
}
);
note = uniF22D;
unicode = F22D;
},
